<svg width="126" height="70" viewBox="0 0 126 70" fill="none" xmlns="http://www.w3.org/2000/svg">
<mask id="mask0_5719_3735" style="mask-type:luminance" maskUnits="userSpaceOnUse" x="10" y="0" width="63" height="70">
<path d="M10.5784 0H72.5085V70H10.5784V0Z" fill="white"/>
</mask>
<g mask="url(#mask0_5719_3735)">
<mask id="mask1_5719_3735" style="mask-type:luminance" maskUnits="userSpaceOnUse" x="11" y="-3" width="62" height="76">
<path d="M11.2114 1.54259L66.9753 -2.61572L72.2717 68.767L16.5078 72.9253L11.2114 1.54259Z" fill="white"/>
</mask>
<g mask="url(#mask1_5719_3735)">
<mask id="mask2_5719_3735" style="mask-type:luminance" maskUnits="userSpaceOnUse" x="11" y="-3" width="62" height="76">
<path d="M11.2114 1.54259L66.9753 -2.61572L72.2717 68.767L16.5078 72.9253L11.2114 1.54259Z" fill="white"/>
</mask>
<g mask="url(#mask2_5719_3735)">
<mask id="mask3_5719_3735" style="mask-type:luminance" maskUnits="userSpaceOnUse" x="11" y="-3" width="62" height="76">
<path d="M11.2114 1.54259L66.9753 -2.61572L72.2717 68.767L16.5078 72.9253L11.2114 1.54259Z" fill="white"/>
</mask>
<g mask="url(#mask3_5719_3735)">
<mask id="mask4_5719_3735" style="mask-type:luminance" maskUnits="userSpaceOnUse" x="11" y="-3" width="62" height="76">
<path d="M11.2114 1.54259L66.9753 -2.61572L72.2717 68.767L16.5078 72.9253L11.2114 1.54259Z" fill="white"/>
</mask>
<g mask="url(#mask4_5719_3735)">
<path d="M64.4119 62.1528L64.3913 61.8742L64.6538 61.5646C64.5972 61.4769 64.5869 61.3324 64.5303 61.1983C64.5303 61.1983 64.4325 61.157 64.3861 61.157C64.3192 60.9249 64.2523 60.6463 64.1854 60.3677C64.1339 60.3212 64.0361 60.28 63.8869 60.1974C63.7685 59.924 63.9898 59.7176 64.0207 59.4751C63.8714 59.3926 63.7222 59.31 63.6244 59.2223C63.6089 59.0314 63.5472 58.8457 63.5317 58.6084C63.5729 58.5568 63.6655 58.5052 63.7942 58.3504C63.9332 58.2937 64.1648 58.2318 64.4479 58.1595C64.3964 58.1183 64.3913 58.0718 64.3398 58.0254C64.4736 57.8758 64.5817 58.0564 64.6332 58.0976C65.6472 58.9283 65.4464 58.7993 65.5906 59.4545C65.4567 59.5577 65.2097 59.4803 65.1839 59.7692L65.3383 59.8982C65.4773 59.8414 65.6626 59.7795 65.8016 59.7228C65.9714 60.0891 66.0023 60.5637 66.1773 60.9765C66.2854 61.1622 66.2545 61.3995 66.3163 61.5388C66.4244 61.7194 66.4862 61.9051 66.5942 62.0857C66.831 62.0702 66.9082 61.8277 67.0369 61.6265L67.2737 61.611C67.4075 61.5027 67.5413 61.3995 67.6803 61.3428L68.0921 61.1673C68.2207 60.9197 68.4935 60.7598 68.7663 60.6411C68.859 60.5895 69.0031 60.6256 69.0031 60.6256C69.1781 60.3728 69.5127 60.3986 69.7288 60.1407C69.8163 60.0426 69.9038 59.9395 70.0016 59.9343C70.2796 59.8621 70.5009 59.6093 70.7789 59.5422L71.1083 59.5164C71.2112 59.6041 71.2627 59.6505 71.3605 59.6867C71.2781 59.8363 71.2421 60.0323 71.1597 60.1768C71.2267 60.4141 71.4119 60.3986 71.6487 60.378C71.5097 60.4399 71.4171 60.4451 71.4222 60.4915C71.3862 60.6824 71.2061 60.8423 71.0259 60.9507C70.8458 61.059 70.7634 61.2551 70.5833 61.3634C70.398 61.4717 70.2178 61.5801 70.084 61.7297C70.0428 61.7813 69.945 61.7916 69.8575 61.8432C69.6722 61.9515 69.4355 61.9722 69.4097 62.2559C69.3222 62.3127 69.173 62.2766 69.1369 62.3746C68.8796 62.7719 68.4627 62.9008 68.0972 63.1175C67.7781 63.2826 67.459 63.4941 67.2016 63.8501C67.2994 63.9378 67.4023 64.0204 67.459 64.1132L67.5001 64.6808C67.7781 64.6137 67.8038 64.9439 68.0457 65.0213C68.1435 65.0625 68.1641 65.2947 68.2722 65.4804C68.6222 65.692 68.7921 66.1047 68.9722 66.569C69.07 66.6051 69.2141 66.6413 69.3582 66.6825L69.384 67.0127C69.5384 67.1881 69.6465 67.3739 69.7546 67.508C69.7083 67.5596 69.6671 67.606 69.6259 67.704C69.6825 67.7969 69.734 67.8898 69.7443 68.0291C69.698 68.0342 69.7031 68.0807 69.6516 68.0858C69.595 67.9465 69.4921 67.8124 69.4355 67.6731L69.2913 67.6834C69.3428 67.7247 69.348 67.7763 69.3994 67.864C69.4097 68.0084 69.281 68.1581 69.0957 68.2664C69.245 68.3541 69.4406 68.3851 69.5899 68.4676C69.6362 68.4676 69.631 68.416 69.6774 68.3696C69.6774 68.416 69.7237 68.4109 69.7288 68.4573L69.7546 68.7875C69.6568 68.7514 69.559 68.7565 69.4612 68.7152C69.4715 68.8081 69.4252 68.8597 69.4303 68.9061C69.4303 68.9061 69.4355 68.9577 69.384 68.9577C69.106 69.03 68.8229 69.0506 68.6171 68.8288C68.509 68.6946 68.3185 68.6585 68.2568 68.4728C68.2001 68.3335 67.9634 68.3541 67.9016 68.1684C67.9016 68.1684 67.8038 68.1271 67.706 68.1323C67.7472 67.9878 67.7318 67.8021 67.7215 67.704C67.5722 67.5751 67.3715 67.4461 67.217 67.3171L67.2016 67.0798C67.1553 67.0849 67.0575 67.0437 67.0112 67.0437L66.9854 66.7135C66.831 66.5381 66.5788 66.3627 66.6045 66.0789C66.5582 66.0841 66.5067 66.0376 66.4141 66.0428C66.4038 65.9499 66.3523 65.8571 66.3369 65.6713C66.2545 65.8209 66.2134 65.919 66.167 65.9706C66.1207 65.9706 66.1156 65.9241 66.0692 65.9293C66.0641 65.8313 66.1053 65.7848 66.095 65.6404C65.7964 65.4753 65.7192 65.0522 65.292 65.0367C65.292 65.0832 65.256 65.1812 65.2097 65.2328C65.1582 65.1864 65.1119 65.1915 65.0604 65.1502C64.8803 65.2586 64.6435 65.3205 64.417 65.434C64.4222 65.5269 64.4325 65.6249 64.3913 65.7229C64.2883 65.6352 64.1905 65.5939 64.0876 65.5062L64.1236 65.9757C63.9795 65.9396 63.928 65.8983 63.8354 65.9035C63.753 66.0995 63.6707 66.2956 63.5472 66.5432L63.3464 66.3678C63.2538 66.4246 63.2074 66.4246 63.1148 66.4813C62.9758 66.5381 62.7442 66.6051 62.7082 66.7496C62.6207 66.8992 62.4868 66.956 62.3993 67.1056C62.2707 67.3016 62.039 67.3687 61.8023 67.3377C61.5861 67.023 61.2001 66.956 60.8604 66.8373L60.8295 66.4142C60.7368 66.4658 60.742 66.5174 60.6956 66.5639C60.6442 66.4762 60.5927 66.4297 60.5361 66.342C60.5361 66.342 60.5361 66.2956 60.5824 66.2904C60.6699 66.2337 60.7162 66.1821 60.8089 66.1305C60.989 66.0221 61.2721 66.0015 61.2001 65.6713C61.1949 65.6249 61.2876 65.5733 61.3802 65.5165C61.5604 65.4082 61.7457 65.2999 61.8692 65.0987C61.9567 65.0006 62.0545 64.9903 62.142 64.8923C62.3221 64.7324 62.6104 64.8097 62.7288 64.4641C62.8111 64.268 63.0839 64.1545 63.3052 63.9482L63.5935 63.9275L63.5729 63.6438C63.4236 63.5612 63.2435 63.716 63.1817 63.5303C63.1199 63.3445 63.0016 63.6386 62.842 63.458C62.6876 63.2826 62.4096 63.3961 62.2089 63.2207C62.0545 63.0917 61.7302 63.164 61.5707 62.937C61.2361 62.9627 60.9839 62.7409 60.6545 62.7667C60.3662 62.7873 60.1243 62.7099 59.9236 62.5397C59.8206 62.452 59.625 62.3694 59.4809 62.3333C59.1927 62.354 58.9405 62.1373 58.6522 62.1115C58.6059 62.1115 58.5544 62.0238 58.503 61.9773C58.3074 61.9464 58.1324 62.1012 57.9728 61.9206C57.9316 61.9722 57.8853 62.0238 57.839 62.0289C57.489 61.8174 57.1905 61.6007 56.8405 61.3892C56.7478 61.4459 56.5471 61.2705 56.3206 61.4305C56.0684 61.2551 55.8213 61.0848 55.5228 60.9197C55.4765 60.9197 55.3838 60.9765 55.2912 60.9816C55.1419 60.9455 55.0029 60.9558 54.9051 60.9145C54.5037 60.6617 54.1588 60.4967 53.8603 60.28C53.7676 60.3367 53.675 60.3883 53.6287 60.3935C53.3764 60.2232 53.0007 60.249 52.7897 59.9807C52.7331 59.8879 52.5478 59.9033 52.3985 59.8672C52.3522 59.8724 52.311 59.9188 52.2647 59.9704C52.0125 59.7537 51.7603 59.5835 51.5132 59.4132L51.4669 59.4597C51.3691 59.4235 51.3125 59.3307 51.2147 59.243C51.1683 59.2946 51.122 59.2997 51.0294 59.3513C50.8286 59.2223 50.5816 59.0521 50.3294 58.8818L49.8095 58.9179C49.8043 58.8715 49.8043 58.8251 49.7477 58.7322L49.4183 58.758C49.2639 58.629 49.1146 58.4949 49.0065 58.3607L48.6308 58.3917L48.4249 58.2163L48.0492 58.2421C47.797 58.0718 47.5962 57.8964 47.344 57.7262C47.2977 57.7778 47.2565 57.8293 47.2102 57.8293C46.9631 57.752 46.7675 57.6746 46.5256 57.5972C46.5256 57.5972 46.4845 57.6488 46.433 57.6488L46.4175 57.4166C46.1756 57.3392 45.98 57.3031 45.7845 57.2257C45.7896 57.2722 45.7433 57.3237 45.7536 57.4166C45.6506 57.3289 45.594 57.1896 45.4911 57.1019C45.3984 57.1586 45.3572 57.2102 45.3109 57.2618L44.9969 56.8543L44.9094 56.9574C44.6675 56.8801 44.4668 56.7975 44.2249 56.7253L44.0962 56.8749L43.741 56.5705L43.4065 56.5911C43.2829 56.2248 42.8557 56.2094 42.6035 56.0339C42.1815 56.1165 41.9241 55.8482 41.5793 55.6831C41.3322 55.5593 41.0851 55.4355 40.8895 55.3065C40.8432 55.3581 40.7506 55.4148 40.7042 55.4148C40.6013 55.2807 40.5447 55.193 40.4932 55.1001L40.0197 55.1362C40.0145 55.0898 39.9631 55.0434 39.9579 54.9505C39.8601 54.9557 39.716 54.9196 39.577 54.9299C39.5719 54.8834 39.5667 54.837 39.5153 54.7906C39.3711 54.7545 39.1807 54.7699 39.0778 54.6358C38.9748 54.5017 38.702 54.7132 38.5939 54.5275C38.5322 54.2953 38.1719 54.61 38.1976 54.3211C38.0483 54.2385 37.9042 54.2024 37.7549 54.1147C37.7498 54.0683 37.7035 54.027 37.6983 53.9806C37.4101 53.9548 37.1218 53.9238 36.7873 53.9032C36.7873 53.8568 36.7358 53.8103 36.7255 53.7175L36.4888 53.7381L35.8814 53.2119C35.6498 53.2738 35.5417 53.1396 35.4799 52.9539C35.1917 52.8817 34.9498 52.8043 34.6564 52.7321L34.6255 52.309C34.4711 52.1284 34.188 52.1491 34.2086 51.8137C34.1623 51.8189 34.1159 51.824 34.1159 51.8705C34.0748 51.9685 34.0387 52.0665 34.0387 52.113C33.8431 52.0304 33.6939 51.9479 33.5497 51.9117C33.1586 51.7518 33.035 51.3803 32.8189 51.014L32.5461 51.1791C32.3711 50.7664 31.9336 50.6529 31.5836 50.3949C31.4291 50.266 31.3674 50.0338 31.0791 50.0028C30.9813 50.0132 30.8784 49.879 30.7343 49.8893C30.549 49.9048 30.4872 49.7191 30.5181 49.523C30.3688 49.4405 30.1835 49.456 30.1629 49.2186C29.9725 49.1825 29.7357 49.2496 29.7151 48.9194L29.4321 48.94C29.3806 48.8988 29.324 48.8059 29.2725 48.7595C29.221 48.6718 29.1181 48.5841 29.0718 48.5892C28.9276 48.5995 28.8298 48.5583 28.7269 48.4706C28.6754 48.3777 28.6703 48.2848 28.66 48.192C28.5673 48.1971 28.5159 48.1507 28.4695 48.1558L28.4541 47.9701L27.996 47.5729C27.9548 47.6245 27.8622 47.6812 27.7695 47.7328L27.61 47.4594C27.8262 47.2066 27.5739 46.9899 27.507 46.7525C27.3681 46.8145 27.2806 46.866 27.1416 46.9228L27.1107 46.4997L26.6011 46.0612L26.4107 46.0767C26.4467 45.8858 26.4776 45.6898 26.4622 45.4576C26.318 45.4679 26.2203 45.4266 26.1276 45.4318L26.107 45.148C26.0092 45.1584 25.9166 45.1635 25.8651 45.1171C25.618 44.9933 25.4173 44.8178 25.2166 44.694C25.1651 44.6476 25.1188 44.6528 25.1136 44.6063C25.0364 44.2297 24.6967 44.1162 24.3982 43.9459C24.2489 43.8634 24.1871 43.6777 24.0379 43.5435C23.8783 43.3681 23.7702 43.1824 23.5643 42.9605C23.6107 42.9141 23.6004 42.7696 23.6364 42.6252C23.5283 42.491 23.4305 42.4033 23.3224 42.2228L23.2246 42.2279C23.0857 42.2383 22.9415 42.2486 22.8386 42.1144L22.818 41.8307L22.5607 41.614C22.5555 41.5624 22.6018 41.516 22.6379 41.3663C22.432 41.1445 22.2209 40.8762 21.9584 40.5151L21.9481 40.3758C21.8452 40.2881 21.7011 40.252 21.5981 40.1642C21.629 39.9218 21.6651 39.7773 21.6959 39.54C21.6445 39.4936 21.5415 39.4058 21.4437 39.3646C21.3305 39.0911 21.1709 38.8641 21.0011 38.5443C21.0011 38.5443 21.0474 38.4927 21.0886 38.3946C20.9908 38.3534 20.8415 38.2708 20.7386 38.1831C20.7798 38.1315 20.7798 38.0851 20.8209 37.9871C20.7695 37.9458 20.6717 37.951 20.6202 37.9097C20.6356 37.4299 20.229 37.1306 20.4709 36.5425C20.2908 36.6508 20.1981 36.656 20.1055 36.7127C20.1312 36.4238 19.9665 36.1504 20.1415 35.8976L19.8275 35.4952C20.1003 35.3352 19.7092 35.2217 19.7915 35.0721C19.9202 34.8709 19.7194 34.7419 19.7092 34.5562C19.6989 34.4117 19.5908 34.2312 19.529 34.0919C19.529 34.0919 19.4827 34.097 19.3849 34.0558C19.3283 33.9165 19.3128 33.7307 19.2511 33.545L19.3386 33.4418L19.179 33.1684C19.2202 33.1168 19.215 33.0704 19.2614 33.0188C19.2047 32.9311 19.1481 32.7918 19.0452 32.7041L19.1327 32.6009C18.9731 32.3274 18.7621 32.0592 18.7312 31.6825C18.7158 31.4452 18.6025 31.1666 18.3503 30.9964C18.4687 30.6558 18.4944 30.4134 18.3297 30.0935C18.2216 29.9129 18.2988 29.6704 18.2834 29.4796C18.1805 29.3454 18.0724 29.2113 17.918 29.0307C17.8974 28.7521 17.8305 28.4683 18.1496 28.3033C18.0981 28.2104 17.9952 28.1227 17.9385 27.9885C17.8819 27.8957 17.779 27.7615 17.7172 27.5758L17.6709 27.0083C17.7121 26.9103 17.8047 26.8535 17.8922 26.7555C17.8407 26.7091 17.8356 26.6626 17.7841 26.5698L17.9437 26.1777C17.7944 26.0951 17.6452 25.9661 17.4907 25.832C17.5216 25.5947 17.8459 25.476 17.64 25.2542C17.5885 25.2542 17.5422 25.2129 17.4444 25.2181C17.4341 25.0788 17.3724 24.8466 17.4084 24.7021C17.4856 24.5061 17.4753 24.3152 17.4599 24.1243C17.4444 23.9386 17.3878 23.7993 17.5165 23.6445C17.2694 23.5207 17.5937 23.3556 17.4856 23.2214C17.2231 23.5258 17.2231 23.5258 17.2128 24.0005L17.079 24.1553C17.0326 24.1553 16.9863 24.1604 16.9349 24.1191C16.8885 24.1191 16.8371 24.0779 16.8319 24.0314C16.7856 24.0314 16.7444 24.083 16.7444 24.083C16.7599 24.3204 16.5694 24.3358 16.4356 24.439C16.5334 24.4803 16.5797 24.4751 16.729 24.5577C16.6415 24.6144 16.5951 24.666 16.554 24.7176C16.5076 24.7692 16.4665 24.8672 16.4253 24.9137C16.3738 24.8724 16.3275 24.8775 16.3223 24.826C16.1885 24.9343 16.0084 25.0891 15.8745 25.1923C16.029 25.3728 15.8025 25.5328 15.8643 25.6721C15.7253 25.7288 15.54 25.7907 15.401 25.8939L15.4165 26.0848C15.2415 26.286 15.1591 26.4821 14.9841 26.6833C14.9326 26.5956 14.8812 26.5491 14.8245 26.4614C14.6444 26.5698 14.5106 26.6729 14.3253 26.7349C13.9392 26.6678 14.0473 26.2344 13.8003 26.0642C14.0164 25.7598 13.7642 25.5895 13.651 25.3574C13.7231 25.0684 13.8414 24.7279 13.9135 24.3874C14.2789 24.2223 14.5517 24.0108 14.665 23.6703C14.7062 23.5207 14.84 23.4175 14.876 23.273C14.9584 23.1234 15.19 23.0099 15.1745 22.8242C15.4113 22.8036 15.4422 22.5662 15.5245 22.4166C15.612 22.267 15.7407 22.1174 15.9363 22.1948L16.0496 21.7614L16.4716 21.7304L16.4459 21.3487C16.9863 20.9772 17.6349 20.7399 17.9128 20.0073C18.0055 19.9505 18.1393 19.8473 18.2731 19.739C18.3246 19.7854 18.376 19.8267 18.4224 19.8267C18.7055 19.7545 18.4275 19.254 18.9062 19.2643C19.0966 19.3005 19.1636 19.5326 19.318 19.708C19.2253 19.7183 19.1327 19.7699 19.04 19.7803L19.0606 20.064C19.1533 20.0537 19.2974 20.0898 19.4415 20.0795C19.4981 20.1724 19.5496 20.2652 19.6525 20.3529C19.6937 20.3013 19.7452 20.2962 19.7864 20.2446C19.7915 20.291 19.843 20.3375 19.843 20.3839C19.8584 20.5748 19.8121 20.5748 19.7194 20.6315L19.7452 20.9617C20.1312 21.0288 20.1106 21.4106 20.229 21.684C20.2805 21.7769 20.2496 22.0142 20.4864 21.9523C20.5327 21.9471 20.5893 22.0864 20.6459 22.1793C20.8003 22.3547 20.9084 22.5353 21.1092 22.7107L21.1298 22.9944C21.6856 23.3814 21.9636 23.9798 22.3857 24.5164C22.4371 24.5628 22.5349 24.6041 22.6327 24.6402L22.6533 24.924L23.3636 25.5379C23.3276 25.6824 23.2864 25.7804 23.2504 25.9249C23.4357 25.863 23.482 25.8165 23.5746 25.7598C23.621 25.8062 23.6724 25.8475 23.7702 25.8888C23.5901 25.9971 23.4563 26.1003 23.271 26.2086C23.2349 26.3582 23.1577 26.6007 23.0805 26.7968C22.9312 26.7607 22.8335 26.7194 22.7871 26.7194C22.154 26.4821 21.8709 25.8887 21.3665 25.4967L21.3511 25.3058L21.2996 25.2645C21.2378 25.0323 20.8724 25.2954 20.9033 25.0117C20.718 25.0684 20.6923 24.7847 20.507 24.8002C20.4606 24.8053 20.3525 24.6712 20.3474 24.6247C20.2805 24.341 20.0797 24.2172 19.9202 23.9902L19.6834 24.0056C19.7452 24.1449 19.7555 24.2894 19.8172 24.47C19.6783 24.5783 19.5908 24.6299 19.5033 24.7331C19.6011 24.7744 19.6989 24.8156 19.8481 24.8982C19.8018 24.9498 19.8069 24.9962 19.7606 25.0478L19.8636 25.1355C19.8224 25.2335 19.7349 25.2851 19.6474 25.3883C19.7555 25.5689 19.9047 25.703 20.0128 25.8836C19.9768 26.028 19.9408 26.1725 19.9511 26.317L20.0283 27.354C20.0386 27.452 19.9922 27.4984 19.9511 27.5964C20.0077 27.6893 20.1106 27.8234 20.1672 27.9163C20.1312 28.1072 20.1467 28.2981 20.1158 28.489C20.0746 28.6334 20.09 28.8243 20.0592 29.0152C20.1106 29.0617 20.2084 29.1494 20.265 29.2371C20.2239 29.3351 20.1827 29.4331 20.1878 29.4796C20.3422 29.6601 20.2702 29.949 20.3731 30.0832C20.4812 30.2225 20.4452 30.3669 20.5018 30.5062C20.5533 30.5939 20.615 30.7332 20.5275 30.8364C20.4812 30.8829 20.5842 30.9706 20.5893 31.0686L20.9033 31.471C20.8673 31.569 20.8209 31.6206 20.7798 31.7186C20.9342 31.8476 21.0886 32.0282 21.0577 32.2655C21.2636 32.4409 21.0937 32.7402 21.2481 32.8691C21.4077 33.0961 21.3253 33.2922 21.2945 33.4882C21.3511 33.6224 21.4077 33.7617 21.4643 33.8546C21.4334 34.0919 21.4437 34.2363 21.4077 34.4272C21.8143 34.7316 21.7989 35.1598 21.8298 35.6293C21.8812 35.6293 21.9276 35.6242 22.0254 35.6654C22.1026 36.0369 22.1798 36.4599 22.257 36.883C22.3084 36.9243 22.4526 36.9655 22.5555 37.0481L22.4268 37.2029C22.6842 37.4711 22.8026 37.791 22.8746 38.1212C23.0239 38.2038 23.1217 38.245 23.3173 38.374C23.2812 38.5185 23.2452 38.6629 23.2143 38.8538C23.3636 38.9364 23.5592 39.0189 23.7085 39.1015L23.7496 39.0499C23.6982 39.0086 23.6982 38.9622 23.5952 38.8745C23.7857 38.9054 23.8835 38.9467 23.9813 38.988C23.9401 39.0395 23.8938 39.0911 23.8989 39.1376C23.9967 39.1788 24.0533 39.2666 24.1511 39.3078L23.8783 39.4729C23.8783 39.5194 23.8835 39.5658 23.9349 39.6071C24.0893 39.7412 24.2849 39.8702 24.3519 40.1023C24.4188 40.3345 24.6144 40.4583 24.7688 40.5925C24.9747 40.8143 25.1394 41.0877 25.2526 41.3612C25.1599 41.4179 25.0724 41.4747 24.9849 41.5727C25.1342 41.6553 25.232 41.6965 25.3298 41.7378C25.4585 41.5882 25.6077 41.6243 25.7982 41.6553C25.757 41.7533 25.7158 41.8049 25.6747 41.9029C25.7725 41.9442 25.8188 41.939 25.9114 41.9339L25.932 42.166L26.1328 42.3414C26.0967 42.491 26.107 42.5839 26.071 42.7748C26.21 42.7181 26.3026 42.6613 26.3901 42.6097L26.5445 42.7387L26.5703 43.0689C26.6166 43.0689 26.6629 43.0637 26.7144 43.1102C27.0078 43.1824 27.2085 43.3578 27.3681 43.5796C27.7798 44.0285 28.1967 44.5186 28.66 45.0036C28.6188 45.0552 28.5725 45.1068 28.5365 45.2048C28.6291 45.1996 28.6754 45.1945 28.8195 45.2306C29.0203 45.3596 29.2262 45.5814 29.3394 45.8084C29.4475 45.9941 29.6019 46.1231 29.7975 46.2057C29.9982 46.3295 30.199 46.4585 30.3071 46.6906C30.3637 46.7783 30.4203 46.9176 30.5181 46.9589C30.9608 47.1653 31.1872 47.6193 31.5836 47.8773L31.774 47.8618C31.9336 48.0423 32.1755 48.1662 32.335 48.3932C32.4483 48.5737 32.6078 48.8007 32.9269 48.6769C33.035 48.8162 33.1895 48.9916 33.3439 49.1258C33.4931 49.2548 33.6939 49.3837 33.8946 49.5076C34.0439 49.5953 34.1983 49.7242 34.3424 49.8068L34.363 50.0441C34.4556 49.9925 34.5483 49.9822 34.6409 49.9306L34.6615 50.2144C34.7542 50.2041 34.852 50.2453 34.9961 50.235C34.9601 50.3795 34.8726 50.4826 34.8314 50.6271L34.9858 50.7612C35.0733 50.6581 35.1145 50.56 35.1968 50.4104C35.3512 50.5394 35.6704 50.3743 35.7424 50.7045C36.0307 50.7303 36.1439 50.9573 36.252 51.1379C36.6483 51.3494 37.0395 51.5093 37.4821 51.7157C37.4821 51.7157 37.477 51.6641 37.5233 51.6641L38.1873 52.2316C38.3366 52.3606 38.4858 52.4483 38.6763 52.4328C38.8204 52.4225 38.9645 52.4586 39.0623 52.4999C39.3042 52.5773 39.5461 52.6031 39.752 52.8249C39.9064 52.9591 40.1484 53.0364 40.3388 53.021C40.5292 53.0519 40.5859 53.1912 40.6476 53.3305C40.8381 53.3615 41.0748 53.346 41.2704 53.4285C41.4145 53.4647 41.5638 53.5472 41.6668 53.6349C41.8212 53.7639 41.9704 53.898 42.2021 53.7845C42.6396 53.9445 43.0307 54.058 43.4322 54.3572C43.4322 54.3572 43.4374 54.4036 43.4888 54.4501C43.3962 54.5017 43.3087 54.6048 43.1697 54.6616L43.1749 54.708C43.319 54.7493 43.5094 54.7803 43.6587 54.8164L43.6999 54.7648C43.6999 54.7648 43.6947 54.7183 43.6484 54.7235C43.6484 54.6771 43.5969 54.6771 43.5969 54.6306C43.7359 54.5739 43.8234 54.5171 43.9624 54.4604C44.1631 54.5894 44.405 54.6668 44.6058 54.7957L44.6933 54.6926C44.9403 54.8164 45.1411 54.9918 45.3933 55.162L45.7742 55.1362C45.8256 55.2239 45.9234 55.2652 45.98 55.3581L46.3558 55.3271L46.8139 55.7244L47.2411 55.6883C47.3904 55.8224 47.5396 55.905 47.7918 56.0752L48.2654 56.0391C48.2705 56.0907 48.3168 56.132 48.3271 56.2248C48.4198 56.2197 48.5176 56.2145 48.6617 56.2506C48.8573 56.328 49.058 56.457 49.3051 56.5808C49.3051 56.6273 49.408 56.715 49.4646 56.8078C49.7735 56.4983 49.9896 56.8646 50.2316 56.8904C50.3294 56.9781 50.386 57.0709 50.4426 57.1638C50.7566 56.9471 50.8029 56.9471 51.3176 57.4269L51.7397 57.396C51.7448 57.4424 51.8014 57.5353 51.8014 57.5817C52.1823 57.5559 52.5272 57.721 52.7434 58.0821C52.836 58.0306 52.8772 57.979 52.9235 57.9274C53.3507 57.9428 53.5309 58.4536 54.0507 58.3659C54.1485 58.4536 54.2566 58.5877 54.3595 58.7219C54.4522 58.6703 54.4934 58.6187 54.586 58.562C54.9206 58.5877 55.039 58.8612 55.2449 59.083C55.286 59.0366 55.3838 59.0263 55.425 58.9747C55.8522 58.9902 56.2485 59.1501 56.5574 59.5112C56.65 59.4545 56.6912 59.4029 56.6963 59.4493C57.1647 59.3668 57.3861 59.7795 57.8133 59.7486C58.1118 59.9653 58.4927 59.9343 58.8787 60.0478C58.9868 60.1819 59.0949 60.3677 59.203 60.5482C59.342 60.4915 59.4758 60.3831 59.6148 60.3264L59.9184 60.5895C60.3508 60.6514 60.7831 60.7133 61.1383 61.0229L61.6633 60.9816C61.9618 61.1983 62.3839 61.1158 62.6361 61.3376C62.8935 61.5543 63.3567 61.3789 63.5266 61.7916C63.8097 61.771 64.067 62.0392 64.4119 62.1528C64.5251 62.4313 64.6847 62.6119 64.8648 62.5036L64.8391 62.1682L64.6898 62.0392C64.592 62.0444 64.5045 62.1012 64.4119 62.1528ZM25.1342 6.44889C25.0827 6.35603 25.1188 6.258 25.0673 6.21157C25.0158 6.12386 25.2474 6.01036 25.0467 5.88138C24.9438 5.79368 25.0261 5.59763 25.0107 5.41189C24.9129 5.37062 24.8614 5.32419 24.7636 5.28807C24.8563 5.23132 24.9026 5.22616 24.9901 5.17457C24.8872 5.04043 24.8717 4.84954 24.6864 4.86502C24.6658 4.58126 24.6658 4.58126 24.5063 4.40069C24.4548 4.31299 24.3519 4.22528 24.2952 4.13241C24.1254 3.76611 23.868 3.4514 23.6158 3.28115C23.3636 3.11089 23.0702 2.98707 22.8592 2.71879C22.6996 2.44535 22.4423 2.18224 22.1901 2.00682C21.7886 1.75402 21.3923 1.54766 21.0886 1.2381L20.5687 1.27422C20.5121 1.18651 20.4092 1.0988 20.3062 1.0111C20.1158 0.974984 19.9305 1.03689 19.7812 0.954347C19.6371 0.918233 19.4518 1.02658 19.2665 1.04205C19.215 1.04205 19.1172 1.00078 19.0709 1.00594C18.9319 1.01626 18.7827 0.980144 18.6952 1.03689C18.5099 1.14524 18.3246 1.15556 18.1238 1.07817C18.026 1.03689 17.8871 1.04721 17.6503 1.06269C17.6555 1.11428 17.6143 1.21231 17.6194 1.30517C17.3724 1.18135 17.1459 1.29485 16.9503 1.25874C16.7753 1.46511 16.5488 1.61988 16.2657 1.64568C16.1731 1.65084 16.1268 1.70243 16.0393 1.75402C15.6223 1.92944 15.1642 2.15128 14.7525 2.37313C14.2944 2.64656 13.8414 2.96643 13.4914 3.32242C13.3576 3.43076 13.2186 3.53395 13.1363 3.68356C13.0539 3.87961 12.8789 4.03439 12.7451 4.18916C12.8583 4.41617 12.6267 4.48324 12.5444 4.67929C12.601 4.76699 12.6113 4.91145 12.673 5.09718C12.5341 5.15393 12.3951 5.21068 12.2098 5.31903C12.0914 5.6131 12.0194 5.95361 11.901 6.24768C11.9524 6.28896 12.0039 6.33539 12.0554 6.4231C11.9679 6.52628 11.8804 6.62946 11.8392 6.72749C11.8958 6.8152 11.9061 6.95965 11.9576 7.04736C12.0142 7.14022 11.7826 7.25373 11.9782 7.33112C11.8444 7.43946 11.9061 7.5736 11.9113 7.67162C11.8701 7.76965 11.7826 7.86767 11.6899 7.92442C11.7466 8.01729 11.798 8.05856 11.8495 8.105C11.6796 8.39907 11.7054 8.78085 11.8701 9.04913C11.9885 9.32773 11.9576 9.61664 11.8804 9.85912C12.1274 9.98294 12.287 10.1584 12.3488 10.3957C12.3591 10.535 12.5598 10.6175 12.3797 10.7723C12.5701 10.8033 12.4414 11.0045 12.5495 11.1386C12.6525 11.2727 12.7091 11.412 12.7657 11.5049C12.8223 11.5926 12.8738 11.6855 12.9304 11.8248L13.2392 12.0879C13.162 12.3304 13.3113 12.4594 13.4554 12.4955C13.6561 12.578 13.5275 12.7792 13.6767 12.9082C13.9753 13.0785 14.2738 13.2436 14.6187 13.4087C14.6701 13.4499 14.7164 13.4499 14.7628 13.4448C15.0922 13.3725 15.0665 13.6615 15.1282 13.8472C15.4937 13.6769 15.7407 13.7543 16.0547 14.2032C16.101 14.1516 16.0959 14.0587 16.1319 13.9607C16.2451 14.1413 16.3018 14.2806 16.4047 14.4147C16.4459 14.3167 16.5334 14.2135 16.6157 14.069C16.626 14.2083 16.6878 14.3476 16.7496 14.5798C16.9297 14.425 17.0584 14.2702 17.1922 14.1206C17.3466 14.2496 17.4959 14.3321 17.6452 14.4663C17.7327 14.3631 17.7738 14.2651 17.8613 14.1619C18.0157 14.3425 17.9385 14.5849 18.1805 14.6159C18.2165 14.4714 18.5099 14.5901 18.4944 14.3528C18.6334 14.296 18.7724 14.2393 18.9525 14.1309C19.215 14.4456 19.4672 14.0432 19.7555 14.069C19.7143 14.1671 19.7246 14.2651 19.6834 14.3631C19.9099 14.2496 20.1415 14.1361 20.3268 14.0742L20.3062 13.7904L20.543 13.775C20.5996 13.8627 20.6974 13.9039 20.8003 14.0381C20.8312 13.8472 20.8261 13.7543 20.8673 13.6563L21.0062 13.646C21.0577 13.6872 21.068 13.7801 21.1195 13.8265L21.4489 13.8007L21.2842 13.5273C21.3717 13.4293 21.4592 13.3261 21.593 13.2229C21.6496 13.3106 21.7062 13.4035 21.7526 13.4448C22.0254 13.2384 22.2982 13.0733 22.5658 12.8618L22.7202 12.9959C22.7048 12.805 22.7408 12.6606 22.7305 12.5161L23.0136 12.4955C23.0136 12.449 23.0548 12.351 23.0496 12.3046C23.1474 12.3459 23.1938 12.3407 23.2452 12.3871L23.729 11.8248L23.7136 11.639L23.9864 11.474C24.0379 11.5204 24.0842 11.5152 24.182 11.5565C24.2695 11.4533 24.3158 11.4017 24.3519 11.3037C24.2952 11.1644 24.2438 11.1231 24.1871 10.9838L24.568 10.958C24.6504 10.8084 24.7894 10.7465 24.8202 10.5556C24.8099 10.4163 24.9438 10.308 24.9849 10.2099C25.0724 10.0603 25.1085 9.96231 25.1497 9.81785C25.1857 9.67339 25.1754 9.53409 25.2114 9.38964C25.2063 9.33804 25.1599 9.3432 25.1085 9.30193C25.2783 9.0027 25.4945 8.6983 25.4636 8.32168C25.4379 7.99149 25.51 7.65615 25.6283 7.31048C25.5305 7.27436 25.4276 7.18666 25.3247 7.09895C25.2629 6.86679 25.196 6.63463 25.1342 6.44889ZM22.5915 4.8805C22.5504 4.92693 22.5504 4.97852 22.5143 5.07655C22.5658 5.16425 22.6636 5.20553 22.7665 5.29323L22.7923 5.66985C22.9055 5.85043 22.957 5.94329 23.0651 6.07743C23.0239 6.22189 22.9415 6.37151 22.8592 6.56755C22.9107 6.61399 23.0136 6.70169 23.0702 6.7894C23.1268 6.9287 23.2401 7.1557 23.1526 7.25889C23.0702 7.45494 23.2246 7.63551 23.1011 7.88315C23.0187 8.02761 23.1268 8.25977 23.1423 8.45066L22.7665 8.47646C22.7254 8.57448 22.6842 8.67251 22.6482 8.81696C22.6996 8.8634 22.7511 8.90467 22.7511 8.9511C22.6585 8.96142 22.6585 8.96142 22.6121 9.00786C22.6636 9.05429 22.6739 9.14715 22.7254 9.19359C22.5864 9.25034 22.4474 9.30709 22.3599 9.41027C22.2724 9.51346 22.2364 9.65791 22.1489 9.80753L22.2518 9.89524C22.2106 9.94167 22.1695 10.0397 22.0717 10.05C21.7371 10.0242 21.7062 10.2203 21.7217 10.406C21.4077 10.7155 21.1452 11.0199 20.9239 11.2263C20.6459 11.345 20.4195 11.4533 20.1364 11.5255C20.1364 11.5255 20.0849 11.4791 20.0386 11.4843C19.8584 11.5926 19.6165 11.5617 19.3849 11.6287C19.3437 11.7268 19.2614 11.8764 19.1739 11.9744C18.8805 11.9022 18.6694 11.6339 18.4069 11.9383C18.2165 11.9022 18.0157 11.7319 17.7944 11.9847C17.6349 11.7577 17.3981 11.7732 17.2025 11.6958C17.1047 11.6545 16.9657 11.7113 16.7804 11.7732C16.5849 11.6958 16.3687 11.3295 16.0598 11.6855C15.3187 11.314 14.9378 10.6278 14.4179 10.05C14.4848 9.70951 14.2738 9.39479 14.1091 9.12136C14.0576 9.02849 14.001 8.94079 13.9907 8.79633C13.9289 8.56416 13.862 8.332 13.8466 8.09468L13.79 7.38787C13.7848 7.295 13.7282 7.20214 13.6767 7.10927C13.8466 6.86163 13.9701 6.56755 13.9392 6.19093C13.9856 6.18577 14.037 6.18062 14.0782 6.12902C14.1245 6.12902 14.1245 6.07743 14.1709 6.07743C14.1194 6.031 14.1142 5.98457 14.0679 5.98972C14.2069 5.93297 14.2995 5.87622 14.4334 5.77304C14.4642 5.57699 14.4951 5.33967 14.5723 5.09718C14.6187 5.09202 14.665 5.04043 14.7525 4.98884C14.701 4.89597 14.6495 4.8547 14.5981 4.76184L14.7267 4.60706C14.8245 4.64833 14.9223 4.68961 15.0665 4.72572C15.0562 4.58642 15.0922 4.43681 15.0819 4.29751L15.3598 4.13241C15.504 4.17369 15.6481 4.2098 15.8385 4.24076L15.8025 3.71968C15.9054 3.80738 16.0032 3.89509 16.101 3.93636C16.1422 3.79191 16.1782 3.69388 16.2657 3.54426L16.5385 3.37917L16.6878 3.51331C16.6826 3.42044 16.7238 3.32242 16.7187 3.22439C16.8988 3.11605 17.0378 3.0593 17.2179 2.95096L17.2694 2.99223C17.7378 2.90968 18.1599 2.8323 18.7261 2.74459C18.968 2.82198 19.2716 3.0335 19.6937 2.95612C19.8327 2.89936 19.9459 3.1728 20.1209 2.97159C20.1672 2.92 20.3628 3.00255 20.4606 3.04382C20.4606 3.09026 20.5121 3.13153 20.5224 3.22439L20.6511 3.07478C20.7077 3.21408 20.7695 3.35337 20.8724 3.48751C20.9187 3.48235 20.9187 3.43592 20.965 3.43076L21.3717 3.78159L21.382 3.97248C21.629 4.0963 21.8658 4.07566 21.9842 4.35426C21.9893 4.44712 22.1798 4.43165 22.329 4.51935C22.432 4.65349 22.4937 4.79279 22.5915 4.8805Z" fill="black"/>
</g>
</g>
</g>
</g>
</g>
<path d="M0 14.4607H8.62657V34.3546H16.8208V41.4949H0V14.4607Z" fill="#052C65"/>
<path d="M27.8339 19.8673H32.1369L34.2986 22.0341C36.8362 20.1665 39.7134 19.2275 42.9252 19.2275C44.9429 19.2275 46.5282 19.6712 47.6812 20.5483C48.8341 21.415 49.4106 22.6326 49.4106 24.201V41.4946H40.784V26.3472H38.1487C37.5413 26.3472 37.109 26.4453 36.8516 26.6361C36.5891 26.8322 36.4604 27.1417 36.4604 27.5648V41.4946H27.8339V19.8673Z" fill="#052C65"/>
<path d="M64.9372 35.8195C67.3255 35.8195 69.8836 35.4481 72.6167 34.7051L73.6667 40.6692C70.702 41.6443 67.5005 42.1344 64.0725 42.1344C60.1607 42.1344 57.2783 41.2057 55.4253 39.3484C53.5724 37.4911 52.6459 34.602 52.6459 30.681C52.6459 26.7342 53.5621 23.8399 55.4047 21.9929C57.2422 20.151 60.1298 19.2275 64.0725 19.2275C66.7181 19.2275 68.7666 19.4545 70.2078 19.9086C71.649 20.3522 72.6785 21.1003 73.2961 22.158C73.9138 23.2053 74.2226 24.6757 74.2226 26.5742C74.2226 28.3387 73.816 29.742 73.0079 30.7841C72.2101 31.816 70.9284 32.5692 69.1578 33.0336C67.3872 33.4876 64.9784 33.7146 61.9313 33.7146V35.6544C62.5335 35.7679 63.5372 35.8195 64.9372 35.8195ZM64.896 25.4805C63.7688 25.4805 62.9916 25.5992 62.5695 25.8313C62.1423 26.0686 61.9313 26.502 61.9313 27.1314V29.3808H63.4754C64.5975 29.3808 65.3747 29.2519 65.8019 28.9887C66.2394 28.7308 66.4607 28.2561 66.4607 27.5648V25.4805H64.896Z" fill="#052C65"/>
<path d="M99.4581 41.4948H95.1551L92.9933 39.3279C90.4506 41.2007 87.5785 42.1345 84.3667 42.1345C82.1123 42.1345 80.4652 41.6392 79.4255 40.6487C78.3961 39.6581 77.8813 38.0691 77.8813 35.8816V19.8674H86.5285V36.2943H89.1432C89.7455 36.2943 90.1778 36.2066 90.4403 36.026C90.6977 35.8352 90.8315 35.5256 90.8315 35.0974V19.8674H99.4581V41.4948Z" fill="#052C65"/>
<path d="M116.735 19.2275C119.947 19.2275 122.294 20.1459 123.776 21.9722C125.259 23.8037 126 26.7084 126 30.681C126 34.6587 125.259 37.5633 123.776 39.3897C122.294 41.2212 119.947 42.1344 116.735 42.1344C115.088 42.1344 113.647 41.8919 112.412 41.4121V47.9746L103.785 48.635V19.8673H108.088L109.694 22.0341C111.187 20.1665 113.534 19.2275 116.735 19.2275ZM116.735 25.7075H114.1C113.467 25.7075 113.029 25.8004 112.782 25.9758C112.535 26.1409 112.412 26.4607 112.412 26.9251V35.6544H115.047C115.675 35.6544 116.118 35.5719 116.365 35.4068C116.612 35.2314 116.735 34.9063 116.735 34.4369V25.7075Z" fill="#052C65"/>
</svg>
