<svg xmlns="http://www.w3.org/2000/svg" xmlns:xlink="http://www.w3.org/1999/xlink" width="777" zoomAndPan="magnify" viewBox="0 0 582.75 323.249999" height="431" preserveAspectRatio="xMidYMid meet" version="1.0"><defs><g/><clipPath id="cc9d1841a5"><path d="M 121 69 L 322 69 L 322 296 L 121 296 Z M 121 69 " clip-rule="nonzero"/></clipPath><clipPath id="e3b5337b1d"><path d="M 119.886719 70.996094 L 305.691406 57.171875 L 323.34375 294.464844 L 137.542969 308.285156 Z M 119.886719 70.996094 " clip-rule="nonzero"/></clipPath><clipPath id="78f05e0695"><path d="M 119.886719 70.996094 L 305.691406 57.171875 L 323.34375 294.464844 L 137.542969 308.285156 Z M 119.886719 70.996094 " clip-rule="nonzero"/></clipPath><clipPath id="20c1d8e1f6"><path d="M 119.886719 70.996094 L 305.539062 57.183594 L 323.207031 294.648438 L 137.554688 308.460938 Z M 119.886719 70.996094 " clip-rule="nonzero"/></clipPath></defs><g fill="#b6cff7" fill-opacity="1"><g transform="translate(75.336213, 204.809929)"><g><path d="M 7.1875 -89.875 L 35.953125 -89.875 L 35.953125 -23.71875 L 63.265625 -23.71875 L 63.265625 0 L 7.1875 0 Z M 7.1875 -89.875 "/></g></g></g><g fill="#b6cff7" fill-opacity="1"><g transform="translate(139.319931, 204.809929)"><g/></g></g><g fill="#b6cff7" fill-opacity="1"><g transform="translate(168.076653, 204.809929)"><g><path d="M 7.1875 -71.90625 L 21.5625 -71.90625 L 28.765625 -64.703125 C 37.191406 -70.941406 46.773438 -74.0625 57.515625 -74.0625 C 64.222656 -74.0625 69.492188 -72.597656 73.328125 -69.671875 C 77.171875 -66.742188 79.09375 -62.691406 79.09375 -57.515625 L 79.09375 0 L 50.328125 0 L 50.328125 -50.328125 L 41.5625 -50.328125 C 39.539062 -50.328125 38.097656 -50.015625 37.234375 -49.390625 C 36.378906 -48.765625 35.953125 -47.734375 35.953125 -46.296875 L 35.953125 0 L 7.1875 0 Z M 7.1875 -71.90625 "/></g></g></g><g fill="#b6cff7" fill-opacity="1"><g transform="translate(253.62791, 204.809929)"><g><path d="M 45.296875 -18.84375 C 53.253906 -18.84375 61.785156 -20.085938 70.890625 -22.578125 L 74.34375 -2.734375 C 64.46875 0.523438 53.828125 2.15625 42.421875 2.15625 C 29.378906 2.15625 19.765625 -0.929688 13.578125 -7.109375 C 7.398438 -13.296875 4.3125 -22.910156 4.3125 -35.953125 C 4.3125 -49.085938 7.378906 -58.722656 13.515625 -64.859375 C 19.648438 -70.992188 29.285156 -74.0625 42.421875 -74.0625 C 51.242188 -74.0625 58.050781 -73.316406 62.84375 -71.828125 C 67.632812 -70.335938 71.0625 -67.84375 73.125 -64.34375 C 75.1875 -60.84375 76.21875 -55.929688 76.21875 -49.609375 C 76.21875 -43.765625 74.875 -39.113281 72.1875 -35.65625 C 69.5 -32.207031 65.207031 -29.71875 59.3125 -28.1875 C 53.414062 -26.65625 45.390625 -25.890625 35.234375 -25.890625 L 35.234375 -19.40625 C 37.242188 -19.03125 40.597656 -18.84375 45.296875 -18.84375 Z M 45.15625 -53.203125 C 41.414062 -53.203125 38.828125 -52.816406 37.390625 -52.046875 C 35.953125 -51.285156 35.234375 -49.847656 35.234375 -47.734375 L 35.234375 -40.265625 L 40.40625 -40.265625 C 44.144531 -40.265625 46.734375 -40.691406 48.171875 -41.546875 C 49.609375 -42.410156 50.328125 -43.992188 50.328125 -46.296875 L 50.328125 -53.203125 Z M 45.15625 -53.203125 "/></g></g></g><g fill="#b6cff7" fill-opacity="1"><g transform="translate(335.584564, 204.809929)"><g><path d="M 78.375 0 L 63.984375 0 L 56.796875 -7.1875 C 48.359375 -0.957031 38.773438 2.15625 28.046875 2.15625 C 20.566406 2.15625 15.097656 0.503906 11.640625 -2.796875 C 8.191406 -6.109375 6.46875 -11.40625 6.46875 -18.6875 L 6.46875 -71.90625 L 35.234375 -71.90625 L 35.234375 -17.25 L 44 -17.25 C 46.007812 -17.25 47.445312 -17.5625 48.3125 -18.1875 C 49.175781 -18.8125 49.609375 -19.84375 49.609375 -21.28125 L 49.609375 -71.90625 L 78.375 -71.90625 Z M 78.375 0 "/></g></g></g><g fill="#b6cff7" fill-opacity="1"><g transform="translate(421.135822, 204.809929)"><g><path d="M 50.328125 -74.0625 C 61.066406 -74.0625 68.90625 -71.015625 73.84375 -64.921875 C 78.78125 -58.835938 81.25 -49.179688 81.25 -35.953125 C 81.25 -22.722656 78.78125 -13.0625 73.84375 -6.96875 C 68.90625 -0.882812 61.066406 2.15625 50.328125 2.15625 C 44.859375 2.15625 40.066406 1.34375 35.953125 -0.28125 L 35.953125 21.5625 L 7.1875 23.71875 L 7.1875 -71.90625 L 21.5625 -71.90625 L 26.890625 -64.703125 C 31.878906 -70.941406 39.691406 -74.0625 50.328125 -74.0625 Z M 50.328125 -52.484375 L 41.5625 -52.484375 C 39.445312 -52.484375 37.984375 -52.195312 37.171875 -51.625 C 36.359375 -51.050781 35.953125 -49.992188 35.953125 -48.453125 L 35.953125 -19.40625 L 44.71875 -19.40625 C 46.832031 -19.40625 48.296875 -19.691406 49.109375 -20.265625 C 49.921875 -20.847656 50.328125 -21.90625 50.328125 -23.4375 Z M 50.328125 -52.484375 "/></g></g></g><g clip-path="url(#cc9d1841a5)"><g clip-path="url(#e3b5337b1d)"><g clip-path="url(#78f05e0695)"><g clip-path="url(#20c1d8e1f6)"><path fill="#f0f1f5" d="M 297.03125 272.644531 L 296.960938 271.703125 L 297.835938 270.6875 C 297.652344 270.386719 297.617188 269.914062 297.425781 269.453125 C 297.425781 269.453125 297.101562 269.320312 296.941406 269.332031 C 296.726562 268.558594 296.5 267.625 296.269531 266.695312 C 296.101562 266.546875 295.777344 266.414062 295.28125 266.136719 C 294.894531 265.214844 295.636719 264.527344 295.734375 263.730469 C 295.238281 263.453125 294.742188 263.171875 294.402344 262.882812 C 294.359375 262.253906 294.152344 261.636719 294.09375 260.847656 C 294.242188 260.679688 294.542969 260.5 294.980469 259.992188 C 295.441406 259.800781 296.21875 259.585938 297.148438 259.355469 C 296.980469 259.210938 296.96875 259.054688 296.800781 258.910156 C 297.238281 258.402344 297.597656 259.007812 297.769531 259.152344 C 301.140625 261.90625 300.472656 261.480469 300.953125 263.660156 C 300.503906 264.007812 299.695312 263.753906 299.605469 264.707031 L 300.113281 265.144531 C 300.574219 264.949219 301.191406 264.746094 301.652344 264.554688 C 302.21875 265.777344 302.335938 267.347656 302.914062 268.730469 C 303.273438 269.335938 303.175781 270.132812 303.367188 270.59375 C 303.730469 271.199219 303.933594 271.816406 304.296875 272.421875 C 305.082031 272.363281 305.339844 271.550781 305.765625 270.886719 L 306.554688 270.828125 C 307 270.480469 307.449219 270.128906 307.910156 269.9375 L 309.292969 269.359375 C 309.707031 268.539062 310.617188 267.996094 311.539062 267.613281 C 311.839844 267.433594 312.324219 267.554688 312.324219 267.554688 C 312.898438 266.722656 314.011719 266.796875 314.738281 265.953125 C 315.03125 265.613281 315.324219 265.277344 315.636719 265.253906 C 316.570312 265.027344 317.300781 264.179688 318.230469 263.953125 L 319.335938 263.871094 C 319.671875 264.164062 319.839844 264.308594 320.167969 264.441406 C 319.886719 264.9375 319.777344 265.578125 319.496094 266.074219 C 319.714844 266.847656 320.34375 266.800781 321.128906 266.742188 C 320.671875 266.933594 320.355469 266.957031 320.367188 267.113281 C 320.257812 267.753906 319.660156 268.273438 319.054688 268.632812 C 318.449219 268.996094 318.179688 269.648438 317.574219 270.007812 C 316.96875 270.371094 316.363281 270.730469 315.925781 271.238281 C 315.777344 271.40625 315.464844 271.429688 315.160156 271.613281 C 314.554688 271.972656 313.765625 272.03125 313.679688 272.988281 C 313.375 273.167969 312.890625 273.046875 312.757812 273.371094 C 311.90625 274.699219 310.511719 275.117188 309.300781 275.839844 C 308.234375 276.394531 307.179688 277.105469 306.316406 278.277344 C 306.652344 278.566406 306.992188 278.859375 307.171875 279.160156 L 307.3125 281.046875 C 308.246094 280.820312 308.328125 281.921875 309.140625 282.175781 C 309.464844 282.3125 309.523438 283.097656 309.886719 283.703125 C 311.046875 284.40625 311.625 285.785156 312.214844 287.324219 C 312.539062 287.457031 313.023438 287.578125 313.507812 287.699219 L 313.589844 288.800781 C 314.109375 289.394531 314.46875 290 314.820312 290.449219 C 314.675781 290.617188 314.527344 290.785156 314.394531 291.113281 C 314.574219 291.414062 314.757812 291.71875 314.792969 292.191406 C 314.632812 292.203125 314.644531 292.359375 314.488281 292.371094 C 314.296875 291.910156 313.945312 291.460938 313.753906 291.003906 L 313.28125 291.039062 C 313.449219 291.183594 313.460938 291.339844 313.640625 291.644531 C 313.675781 292.113281 313.242188 292.621094 312.632812 292.980469 C 313.128906 293.261719 313.769531 293.371094 314.265625 293.652344 C 314.425781 293.640625 314.414062 293.480469 314.558594 293.3125 C 314.570312 293.46875 314.726562 293.457031 314.738281 293.617188 L 314.820312 294.714844 C 314.496094 294.582031 314.179688 294.605469 313.851562 294.472656 C 313.875 294.785156 313.730469 294.957031 313.742188 295.113281 C 313.742188 295.113281 313.753906 295.269531 313.597656 295.28125 C 312.664062 295.507812 311.71875 295.578125 311.03125 294.839844 C 310.679688 294.390625 310.039062 294.28125 309.835938 293.664062 C 309.640625 293.203125 308.855469 293.261719 308.652344 292.644531 C 308.652344 292.644531 308.324219 292.511719 308.007812 292.535156 C 308.132812 292.050781 308.085938 291.421875 308.0625 291.109375 C 307.554688 290.671875 306.890625 290.25 306.382812 289.8125 L 306.324219 289.027344 C 306.167969 289.039062 305.839844 288.902344 305.683594 288.914062 L 305.601562 287.816406 C 305.082031 287.222656 304.246094 286.652344 304.335938 285.695312 C 304.175781 285.707031 304.007812 285.5625 303.691406 285.585938 C 303.667969 285.269531 303.488281 284.96875 303.441406 284.339844 C 303.160156 284.835938 303.027344 285.160156 302.882812 285.328125 C 302.726562 285.339844 302.714844 285.183594 302.554688 285.195312 C 302.53125 284.882812 302.679688 284.710938 302.644531 284.242188 C 301.652344 283.683594 301.390625 282.277344 299.960938 282.226562 C 299.972656 282.382812 299.835938 282.710938 299.691406 282.878906 C 299.523438 282.734375 299.367188 282.746094 299.195312 282.601562 C 298.589844 282.960938 297.8125 283.175781 297.050781 283.550781 C 297.074219 283.863281 297.097656 284.179688 296.964844 284.503906 C 296.625 284.214844 296.296875 284.082031 295.960938 283.789062 L 296.078125 285.363281 C 295.59375 285.238281 295.421875 285.09375 295.109375 285.117188 C 294.839844 285.769531 294.574219 286.421875 294.160156 287.242188 L 293.480469 286.660156 C 293.179688 286.84375 293.019531 286.855469 292.71875 287.035156 C 292.257812 287.226562 291.480469 287.441406 291.359375 287.925781 C 291.078125 288.421875 290.621094 288.613281 290.339844 289.109375 C 289.914062 289.773438 289.136719 289.988281 288.339844 289.890625 C 287.628906 288.835938 286.34375 288.613281 285.207031 288.226562 L 285.101562 286.8125 C 284.800781 286.992188 284.8125 287.148438 284.664062 287.316406 C 284.484375 287.015625 284.316406 286.867188 284.132812 286.566406 C 284.132812 286.566406 284.121094 286.410156 284.28125 286.398438 C 284.582031 286.21875 284.730469 286.046875 285.03125 285.867188 C 285.636719 285.507812 286.582031 285.4375 286.34375 284.347656 C 286.332031 284.191406 286.636719 284.007812 286.9375 283.828125 C 287.546875 283.46875 288.152344 283.105469 288.578125 282.441406 C 288.867188 282.105469 289.183594 282.082031 289.476562 281.742188 C 290.070312 281.222656 291.039062 281.46875 291.429688 280.332031 C 291.695312 279.679688 292.617188 279.296875 293.359375 278.609375 L 294.300781 278.539062 L 294.234375 277.59375 C 293.738281 277.316406 293.140625 277.835938 292.9375 277.21875 C 292.734375 276.601562 292.332031 277.578125 291.8125 276.984375 C 291.292969 276.390625 290.371094 276.777344 289.695312 276.195312 C 289.1875 275.757812 288.097656 275.996094 287.566406 275.246094 C 286.464844 275.328125 285.617188 274.601562 284.515625 274.683594 C 283.570312 274.753906 282.761719 274.496094 282.085938 273.914062 C 281.746094 273.625 281.09375 273.355469 280.609375 273.234375 C 279.664062 273.304688 278.820312 272.578125 277.863281 272.488281 C 277.703125 272.5 277.523438 272.199219 277.355469 272.054688 C 276.714844 271.941406 276.117188 272.460938 275.601562 271.867188 C 275.453125 272.035156 275.308594 272.207031 275.152344 272.21875 C 273.988281 271.511719 272.988281 270.796875 271.828125 270.09375 C 271.523438 270.273438 270.847656 269.691406 270.09375 270.222656 C 269.261719 269.652344 268.425781 269.082031 267.433594 268.523438 C 267.277344 268.535156 266.972656 268.714844 266.660156 268.738281 C 266.175781 268.617188 265.703125 268.652344 265.375 268.519531 C 264.046875 267.667969 262.898438 267.121094 261.894531 266.40625 C 261.589844 266.585938 261.289062 266.765625 261.128906 266.777344 C 260.296875 266.207031 259.039062 266.300781 258.335938 265.40625 C 258.15625 265.101562 257.527344 265.148438 257.042969 265.027344 C 256.886719 265.039062 256.738281 265.207031 256.59375 265.378906 C 255.746094 264.648438 254.914062 264.078125 254.078125 263.507812 L 253.933594 263.679688 C 253.609375 263.542969 253.425781 263.242188 253.089844 262.953125 C 252.941406 263.121094 252.785156 263.132812 252.480469 263.3125 C 251.816406 262.886719 250.984375 262.316406 250.148438 261.746094 L 248.417969 261.875 C 248.40625 261.71875 248.394531 261.5625 248.210938 261.257812 L 247.109375 261.339844 C 246.601562 260.90625 246.097656 260.46875 245.746094 260.019531 L 244.484375 260.113281 L 243.808594 259.53125 L 242.550781 259.625 C 241.714844 259.054688 241.039062 258.472656 240.207031 257.902344 C 240.058594 258.070312 239.914062 258.242188 239.757812 258.253906 C 238.945312 257.996094 238.292969 257.730469 237.480469 257.472656 C 237.480469 257.472656 237.335938 257.640625 237.179688 257.652344 L 237.121094 256.867188 C 236.308594 256.613281 235.667969 256.5 235.015625 256.234375 C 235.027344 256.390625 234.882812 256.558594 234.90625 256.875 C 234.566406 256.582031 234.375 256.125 234.035156 255.832031 C 233.730469 256.011719 233.585938 256.183594 233.441406 256.351562 L 232.390625 255.007812 L 232.097656 255.34375 C 231.289062 255.089844 230.636719 254.820312 229.824219 254.566406 L 229.386719 255.070312 L 228.203125 254.054688 L 227.101562 254.136719 C 226.691406 252.902344 225.265625 252.847656 224.429688 252.277344 C 223.023438 252.542969 222.167969 251.65625 221.019531 251.109375 C 220.195312 250.695312 219.375 250.285156 218.710938 249.859375 C 218.5625 250.027344 218.261719 250.207031 218.101562 250.21875 C 217.753906 249.773438 217.570312 249.46875 217.390625 249.167969 L 215.816406 249.285156 C 215.804688 249.125 215.636719 248.980469 215.613281 248.667969 C 215.296875 248.691406 214.8125 248.566406 214.339844 248.601562 C 214.328125 248.445312 214.316406 248.289062 214.148438 248.144531 C 213.664062 248.019531 213.035156 248.066406 212.683594 247.621094 C 212.335938 247.171875 211.4375 247.871094 211.074219 247.265625 C 210.859375 246.492188 209.667969 247.527344 209.757812 246.574219 C 209.261719 246.292969 208.777344 246.171875 208.28125 245.894531 C 208.269531 245.734375 208.101562 245.589844 208.089844 245.433594 C 207.132812 245.347656 206.175781 245.257812 205.0625 245.183594 C 205.050781 245.027344 204.882812 244.882812 204.859375 244.566406 L 204.070312 244.625 L 202.042969 242.878906 C 201.265625 243.09375 200.914062 242.648438 200.710938 242.03125 C 199.742188 241.785156 198.933594 241.53125 197.964844 241.285156 L 197.859375 239.871094 C 197.339844 239.277344 196.394531 239.347656 196.472656 238.234375 C 196.3125 238.246094 196.15625 238.257812 196.167969 238.414062 C 196.035156 238.742188 195.898438 239.066406 195.910156 239.226562 C 195.257812 238.957031 194.761719 238.679688 194.277344 238.554688 C 192.972656 238.019531 192.5625 236.785156 191.839844 235.574219 L 190.929688 236.117188 C 190.351562 234.738281 188.902344 234.371094 187.730469 233.511719 C 187.222656 233.074219 187.003906 232.300781 186.050781 232.214844 C 185.734375 232.238281 185.382812 231.789062 184.910156 231.824219 C 184.28125 231.871094 184.078125 231.253906 184.1875 230.613281 C 183.691406 230.332031 183.0625 230.378906 183.003906 229.59375 C 182.363281 229.484375 181.585938 229.699219 181.503906 228.597656 L 180.5625 228.667969 C 180.390625 228.523438 180.210938 228.222656 180.042969 228.074219 C 179.859375 227.773438 179.523438 227.480469 179.363281 227.492188 C 178.894531 227.527344 178.566406 227.394531 178.226562 227.105469 C 178.046875 226.800781 178.023438 226.488281 178 226.171875 C 177.683594 226.195312 177.515625 226.050781 177.359375 226.0625 L 177.3125 225.433594 L 175.789062 224.125 C 175.644531 224.292969 175.339844 224.472656 175.039062 224.652344 L 174.496094 223.746094 C 175.222656 222.902344 174.378906 222.175781 174.164062 221.398438 C 173.703125 221.59375 173.398438 221.773438 172.9375 221.964844 L 172.832031 220.550781 L 171.140625 219.09375 L 170.511719 219.140625 C 170.621094 218.5 170.734375 217.859375 170.675781 217.074219 C 170.203125 217.109375 169.875 216.976562 169.558594 217 L 169.488281 216.054688 C 169.175781 216.078125 168.859375 216.101562 168.691406 215.957031 C 167.867188 215.542969 167.191406 214.960938 166.527344 214.539062 C 166.359375 214.390625 166.199219 214.402344 166.1875 214.246094 C 165.9375 213 164.800781 212.609375 163.808594 212.050781 C 163.3125 211.773438 163.109375 211.15625 162.601562 210.71875 C 162.082031 210.125 161.722656 209.519531 161.03125 208.78125 C 161.179688 208.613281 161.144531 208.140625 161.265625 207.65625 C 160.914062 207.210938 160.578125 206.917969 160.214844 206.3125 L 159.902344 206.335938 C 159.429688 206.371094 158.957031 206.40625 158.605469 205.957031 L 158.535156 205.015625 L 157.691406 204.289062 C 157.679688 204.128906 157.824219 203.960938 157.945312 203.476562 C 157.257812 202.738281 156.558594 201.84375 155.679688 200.644531 L 155.644531 200.171875 C 155.304688 199.882812 154.820312 199.757812 154.480469 199.46875 C 154.582031 198.671875 154.703125 198.1875 154.800781 197.390625 C 154.632812 197.242188 154.296875 196.953125 153.96875 196.820312 C 153.582031 195.898438 153.050781 195.148438 152.5 194.082031 C 152.5 194.082031 152.644531 193.914062 152.777344 193.585938 C 152.453125 193.453125 151.957031 193.175781 151.617188 192.882812 C 151.761719 192.714844 151.75 192.558594 151.886719 192.230469 C 151.714844 192.085938 151.402344 192.109375 151.230469 191.964844 C 151.273438 190.378906 149.929688 189.375 150.734375 187.417969 C 150.128906 187.777344 149.816406 187.800781 149.511719 187.980469 C 149.597656 187.027344 149.054688 186.117188 149.628906 185.285156 L 148.578125 183.941406 C 149.488281 183.398438 148.191406 183.019531 148.472656 182.527344 C 148.898438 181.863281 148.234375 181.4375 148.1875 180.808594 C 148.152344 180.335938 147.789062 179.730469 147.597656 179.273438 C 147.597656 179.273438 147.4375 179.285156 147.113281 179.148438 C 146.921875 178.691406 146.875 178.0625 146.667969 177.445312 L 146.960938 177.105469 L 146.417969 176.199219 C 146.5625 176.027344 146.550781 175.871094 146.699219 175.703125 C 146.515625 175.398438 146.324219 174.941406 145.984375 174.648438 L 146.277344 174.3125 C 145.734375 173.402344 145.035156 172.507812 144.941406 171.25 C 144.882812 170.464844 144.5 169.542969 143.664062 168.972656 C 144.054688 167.835938 144.152344 167.039062 143.597656 165.972656 C 143.238281 165.367188 143.492188 164.558594 143.449219 163.929688 C 143.097656 163.484375 142.746094 163.035156 142.226562 162.441406 C 142.15625 161.496094 141.929688 160.566406 142.996094 160.011719 C 142.816406 159.710938 142.476562 159.417969 142.285156 158.957031 C 142.105469 158.65625 141.753906 158.207031 141.550781 157.589844 L 141.410156 155.703125 C 141.542969 155.378906 141.847656 155.199219 142.140625 154.859375 C 141.96875 154.714844 141.957031 154.558594 141.777344 154.253906 L 142.3125 152.949219 C 141.816406 152.671875 141.3125 152.234375 140.804688 151.796875 C 140.902344 151 141.980469 150.601562 141.292969 149.863281 C 141.136719 149.875 140.964844 149.730469 140.652344 149.753906 C 140.617188 149.28125 140.398438 148.507812 140.523438 148.023438 C 140.789062 147.371094 140.742188 146.742188 140.695312 146.113281 C 140.648438 145.484375 140.457031 145.027344 140.894531 144.519531 C 140.074219 144.105469 141.140625 143.550781 140.789062 143.105469 C 139.914062 144.117188 139.914062 144.117188 139.875 145.703125 L 139.4375 146.207031 C 139.28125 146.21875 139.121094 146.230469 138.953125 146.085938 C 138.796875 146.097656 138.625 145.953125 138.613281 145.796875 C 138.457031 145.808594 138.3125 145.976562 138.3125 145.976562 C 138.371094 146.761719 137.742188 146.808594 137.292969 147.15625 C 137.617188 147.292969 137.777344 147.28125 138.269531 147.558594 C 137.96875 147.738281 137.824219 147.910156 137.675781 148.078125 C 137.53125 148.246094 137.398438 148.574219 137.25 148.742188 C 137.082031 148.597656 136.925781 148.609375 136.914062 148.449219 C 136.464844 148.800781 135.871094 149.320312 135.421875 149.667969 C 135.9375 150.261719 135.1875 150.792969 135.378906 151.253906 C 134.917969 151.445312 134.300781 151.648438 133.851562 152 L 133.898438 152.628906 C 133.316406 153.304688 133.046875 153.957031 132.464844 154.628906 C 132.285156 154.328125 132.113281 154.183594 131.933594 153.878906 C 131.328125 154.242188 130.878906 154.589844 130.261719 154.792969 C 128.976562 154.574219 129.34375 153.125 128.511719 152.554688 C 129.226562 151.550781 128.394531 150.980469 128.019531 150.21875 C 128.265625 149.253906 128.65625 148.117188 128.886719 146.992188 C 130.113281 146.425781 131.011719 145.726562 131.402344 144.59375 C 131.523438 144.109375 131.972656 143.761719 132.09375 143.277344 C 132.375 142.78125 133.136719 142.410156 133.09375 141.78125 C 133.878906 141.722656 133.976562 140.921875 134.257812 140.429688 C 134.539062 139.933594 134.976562 139.425781 135.628906 139.695312 L 135.996094 138.242188 L 137.414062 138.140625 L 137.320312 136.882812 C 139.125 135.640625 141.285156 134.847656 142.210938 132.40625 C 142.511719 132.226562 142.960938 131.875 143.410156 131.527344 C 143.582031 131.671875 143.75 131.816406 143.90625 131.804688 C 144.839844 131.578125 143.925781 129.910156 145.511719 129.949219 C 146.152344 130.058594 146.367188 130.832031 146.886719 131.425781 C 146.570312 131.449219 146.269531 131.628906 145.953125 131.652344 L 146.023438 132.597656 C 146.339844 132.574219 146.824219 132.695312 147.296875 132.660156 C 147.476562 132.964844 147.65625 133.265625 147.996094 133.558594 C 148.140625 133.386719 148.296875 133.375 148.445312 133.207031 C 148.457031 133.363281 148.625 133.511719 148.636719 133.667969 C 148.683594 134.296875 148.527344 134.308594 148.222656 134.488281 L 148.304688 135.589844 C 149.585938 135.808594 149.523438 137.078125 149.910156 138 C 150.089844 138.300781 149.992188 139.101562 150.765625 138.882812 C 150.925781 138.871094 151.117188 139.332031 151.296875 139.636719 C 151.816406 140.230469 152.179688 140.835938 152.855469 141.414062 L 152.925781 142.359375 C 154.761719 143.644531 155.703125 145.628906 157.101562 147.421875 C 157.269531 147.570312 157.597656 147.703125 157.921875 147.835938 L 157.992188 148.78125 L 160.363281 150.816406 C 160.238281 151.300781 160.105469 151.625 159.984375 152.109375 C 160.601562 151.90625 160.746094 151.734375 161.050781 151.554688 C 161.21875 151.699219 161.386719 151.847656 161.714844 151.980469 C 161.109375 152.339844 160.660156 152.691406 160.054688 153.050781 C 159.929688 153.535156 159.675781 154.34375 159.40625 154.996094 C 158.921875 154.875 158.59375 154.742188 158.4375 154.753906 C 156.320312 153.960938 155.382812 151.976562 153.703125 150.679688 L 153.65625 150.050781 L 153.484375 149.90625 C 153.269531 149.132812 152.070312 150.011719 152.15625 149.054688 C 151.539062 149.261719 151.46875 148.316406 150.839844 148.363281 C 150.679688 148.375 150.332031 147.925781 150.320312 147.769531 C 150.089844 146.839844 149.425781 146.414062 148.894531 145.664062 L 148.109375 145.722656 C 148.300781 146.179688 148.335938 146.652344 148.539062 147.269531 C 148.089844 147.621094 147.789062 147.800781 147.496094 148.136719 C 147.824219 148.273438 148.148438 148.40625 148.644531 148.683594 C 148.5 148.851562 148.511719 149.011719 148.367188 149.179688 L 148.703125 149.46875 C 148.570312 149.796875 148.265625 149.976562 147.976562 150.316406 C 148.335938 150.921875 148.84375 151.355469 149.207031 151.960938 C 149.085938 152.445312 148.960938 152.929688 148.996094 153.402344 L 149.253906 156.859375 C 149.277344 157.175781 149.132812 157.34375 148.996094 157.667969 C 149.179688 157.972656 149.527344 158.417969 149.710938 158.722656 C 149.597656 159.363281 149.644531 159.992188 149.535156 160.632812 C 149.414062 161.117188 149.460938 161.746094 149.347656 162.386719 C 149.519531 162.53125 149.855469 162.820312 150.035156 163.125 C 149.902344 163.449219 149.769531 163.777344 149.78125 163.933594 C 150.300781 164.527344 150.054688 165.496094 150.40625 165.941406 C 150.753906 166.390625 150.632812 166.875 150.824219 167.332031 C 151.003906 167.636719 151.199219 168.097656 150.90625 168.433594 C 150.761719 168.601562 151.097656 168.894531 151.121094 169.207031 L 152.171875 170.554688 C 152.039062 170.878906 151.894531 171.046875 151.757812 171.375 C 152.265625 171.8125 152.785156 172.40625 152.6875 173.203125 C 153.363281 173.785156 152.804688 174.773438 153.3125 175.210938 C 153.839844 175.960938 153.574219 176.613281 153.460938 177.253906 C 153.65625 177.714844 153.847656 178.175781 154.027344 178.476562 C 153.929688 179.273438 153.964844 179.746094 153.855469 180.386719 C 155.195312 181.394531 155.144531 182.820312 155.261719 184.390625 C 155.417969 184.378906 155.574219 184.367188 155.902344 184.503906 C 156.152344 185.75 156.414062 187.152344 156.679688 188.554688 C 156.847656 188.699219 157.332031 188.824219 157.667969 189.113281 L 157.234375 189.621094 C 158.089844 190.503906 158.488281 191.582031 158.726562 192.671875 C 159.222656 192.949219 159.546875 193.085938 160.214844 193.507812 C 160.089844 193.992188 159.96875 194.476562 159.859375 195.117188 C 160.355469 195.394531 161.007812 195.664062 161.503906 195.941406 L 161.648438 195.773438 C 161.480469 195.628906 161.46875 195.46875 161.128906 195.179688 C 161.769531 195.289062 162.097656 195.421875 162.421875 195.558594 C 162.277344 195.726562 162.132812 195.894531 162.144531 196.050781 C 162.46875 196.1875 162.652344 196.488281 162.976562 196.621094 L 162.070312 197.164062 C 162.082031 197.320312 162.09375 197.480469 162.261719 197.625 C 162.769531 198.0625 163.433594 198.484375 163.648438 199.261719 C 163.863281 200.035156 164.53125 200.460938 165.039062 200.894531 C 165.726562 201.636719 166.269531 202.542969 166.652344 203.464844 C 166.351562 203.644531 166.046875 203.824219 165.753906 204.160156 C 166.25 204.441406 166.578125 204.574219 166.902344 204.707031 C 167.339844 204.203125 167.824219 204.324219 168.46875 204.433594 C 168.332031 204.761719 168.1875 204.929688 168.054688 205.253906 C 168.378906 205.390625 168.539062 205.378906 168.851562 205.355469 L 168.910156 206.140625 L 169.585938 206.722656 C 169.464844 207.207031 169.488281 207.519531 169.378906 208.160156 C 169.839844 207.96875 170.140625 207.789062 170.445312 207.605469 L 170.953125 208.042969 L 171.035156 209.144531 C 171.191406 209.132812 171.347656 209.121094 171.519531 209.265625 C 172.484375 209.511719 173.164062 210.09375 173.695312 210.84375 C 175.070312 212.320312 176.457031 213.957031 178.003906 215.582031 C 177.859375 215.75 177.710938 215.917969 177.578125 216.246094 C 177.894531 216.222656 178.050781 216.210938 178.535156 216.332031 C 179.199219 216.757812 179.886719 217.496094 180.261719 218.257812 C 180.621094 218.863281 181.128906 219.300781 181.785156 219.566406 C 182.449219 219.992188 183.113281 220.417969 183.488281 221.179688 C 183.667969 221.484375 183.859375 221.941406 184.1875 222.078125 C 185.664062 222.757812 186.410156 224.28125 187.738281 225.132812 L 188.367188 225.085938 C 188.886719 225.679688 189.710938 226.089844 190.242188 226.84375 C 190.601562 227.449219 191.132812 228.199219 192.210938 227.800781 C 192.5625 228.25 193.082031 228.84375 193.589844 229.28125 C 194.097656 229.71875 194.761719 230.140625 195.425781 230.566406 C 195.921875 230.847656 196.429688 231.28125 196.925781 231.5625 L 196.984375 232.347656 C 197.285156 232.167969 197.601562 232.144531 197.90625 231.964844 L 197.972656 232.90625 C 198.289062 232.882812 198.617188 233.015625 199.089844 232.980469 C 198.964844 233.464844 198.675781 233.804688 198.550781 234.285156 L 199.058594 234.722656 C 199.351562 234.386719 199.484375 234.058594 199.765625 233.5625 C 200.273438 234 201.339844 233.445312 201.578125 234.535156 C 202.535156 234.621094 202.910156 235.386719 203.269531 235.992188 C 204.589844 236.683594 205.894531 237.21875 207.371094 237.898438 C 207.371094 237.898438 207.359375 237.742188 207.515625 237.730469 L 209.714844 239.621094 C 210.222656 240.058594 210.71875 240.335938 211.347656 240.289062 C 211.820312 240.253906 212.304688 240.375 212.628906 240.511719 C 213.441406 240.765625 214.238281 240.863281 214.929688 241.605469 C 215.4375 242.039062 216.246094 242.296875 216.875 242.25 C 217.519531 242.359375 217.710938 242.820312 217.902344 243.28125 C 218.542969 243.390625 219.332031 243.332031 219.984375 243.597656 C 220.46875 243.722656 220.964844 244 221.304688 244.292969 C 221.808594 244.726562 222.316406 245.164062 223.082031 244.792969 C 224.546875 245.316406 225.839844 245.691406 227.179688 246.699219 C 227.179688 246.699219 227.191406 246.855469 227.363281 247.003906 C 227.058594 247.183594 226.769531 247.519531 226.308594 247.714844 L 226.320312 247.871094 C 226.800781 247.992188 227.445312 248.101562 227.929688 248.226562 L 228.074219 248.054688 C 228.074219 248.054688 228.0625 247.898438 227.90625 247.910156 C 227.894531 247.753906 227.734375 247.765625 227.722656 247.609375 C 228.183594 247.414062 228.488281 247.234375 228.949219 247.042969 C 229.613281 247.46875 230.425781 247.722656 231.089844 248.148438 L 231.378906 247.808594 C 232.203125 248.222656 232.878906 248.804688 233.714844 249.375 L 234.972656 249.28125 C 235.152344 249.585938 235.480469 249.71875 235.660156 250.019531 L 236.921875 249.925781 L 238.441406 251.238281 L 239.859375 251.132812 C 240.367188 251.566406 240.863281 251.847656 241.695312 252.417969 L 243.273438 252.300781 C 243.285156 252.457031 243.453125 252.601562 243.476562 252.917969 C 243.789062 252.894531 244.105469 252.871094 244.589844 252.992188 C 245.242188 253.257812 245.90625 253.683594 246.730469 254.097656 C 246.742188 254.253906 247.082031 254.546875 247.261719 254.847656 C 248.292969 253.824219 249.015625 255.035156 249.816406 255.132812 C 250.152344 255.421875 250.335938 255.726562 250.515625 256.027344 C 251.570312 255.316406 251.726562 255.304688 253.429688 256.917969 L 254.847656 256.8125 C 254.859375 256.96875 255.039062 257.273438 255.050781 257.429688 C 256.3125 257.335938 257.460938 257.882812 258.183594 259.09375 C 258.488281 258.914062 258.632812 258.746094 258.777344 258.574219 C 260.207031 258.628906 260.808594 260.320312 262.527344 260.035156 C 262.867188 260.328125 263.21875 260.773438 263.566406 261.222656 C 263.871094 261.042969 264.015625 260.875 264.320312 260.691406 C 265.433594 260.769531 265.816406 261.6875 266.507812 262.425781 C 266.652344 262.257812 266.96875 262.234375 267.113281 262.066406 C 268.542969 262.117188 269.847656 262.652344 270.886719 263.839844 C 271.1875 263.660156 271.335938 263.492188 271.347656 263.648438 C 272.910156 263.375 273.644531 264.742188 275.0625 264.636719 C 276.066406 265.351562 277.324219 265.257812 278.617188 265.636719 C 278.96875 266.085938 279.332031 266.691406 279.691406 267.296875 C 280.152344 267.101562 280.601562 266.753906 281.0625 266.5625 L 282.078125 267.433594 C 283.519531 267.644531 284.957031 267.851562 286.140625 268.871094 L 287.875 268.742188 C 288.878906 269.457031 290.28125 269.195312 291.128906 269.921875 C 291.972656 270.648438 293.515625 270.0625 294.089844 271.441406 C 295.035156 271.371094 295.894531 272.253906 297.03125 272.644531 C 297.414062 273.5625 297.933594 274.15625 298.542969 273.796875 L 298.460938 272.695312 L 297.953125 272.257812 C 297.636719 272.28125 297.332031 272.464844 297.03125 272.644531 Z M 166.242188 87.304688 C 166.0625 87.003906 166.195312 86.675781 166.027344 86.53125 C 165.847656 86.226562 166.609375 85.855469 165.945312 85.429688 C 165.609375 85.140625 165.875 84.488281 165.828125 83.859375 C 165.503906 83.726562 165.332031 83.578125 165.007812 83.445312 C 165.308594 83.265625 165.46875 83.253906 165.769531 83.074219 C 165.421875 82.625 165.375 81.996094 164.746094 82.042969 C 164.675781 81.097656 164.675781 81.097656 164.15625 80.503906 C 163.972656 80.203125 163.636719 79.910156 163.453125 79.609375 C 162.890625 78.386719 162.019531 77.34375 161.1875 76.773438 C 160.351562 76.203125 159.371094 75.800781 158.671875 74.90625 C 158.128906 74 157.273438 73.113281 156.4375 72.542969 C 155.109375 71.695312 153.789062 71 152.765625 69.972656 L 151.03125 70.101562 C 150.851562 69.796875 150.511719 69.507812 150.175781 69.214844 C 149.53125 69.105469 148.914062 69.308594 148.417969 69.03125 C 147.933594 68.90625 147.328125 69.269531 146.699219 69.316406 C 146.542969 69.328125 146.214844 69.195312 146.058594 69.207031 C 145.585938 69.242188 145.101562 69.117188 144.796875 69.300781 C 144.191406 69.660156 143.5625 69.707031 142.910156 69.441406 C 142.582031 69.304688 142.109375 69.339844 141.324219 69.398438 C 141.332031 69.558594 141.199219 69.882812 141.222656 70.199219 C 140.402344 69.785156 139.636719 70.15625 138.996094 70.046875 C 138.414062 70.722656 137.660156 71.253906 136.714844 71.324219 C 136.402344 71.347656 136.253906 71.515625 135.953125 71.695312 C 134.570312 72.273438 133.042969 73.019531 131.671875 73.753906 C 130.15625 74.65625 128.652344 75.71875 127.472656 76.910156 C 127.023438 77.261719 126.578125 77.609375 126.296875 78.105469 C 126.027344 78.757812 125.433594 79.277344 124.996094 79.78125 C 125.371094 80.546875 124.59375 80.761719 124.324219 81.414062 C 124.507812 81.714844 124.542969 82.1875 124.746094 82.804688 C 124.285156 82.996094 123.824219 83.191406 123.21875 83.550781 C 122.816406 84.53125 122.582031 85.652344 122.179688 86.632812 C 122.351562 86.777344 122.519531 86.921875 122.699219 87.226562 C 122.410156 87.5625 122.117188 87.902344 121.984375 88.226562 C 122.164062 88.53125 122.199219 89 122.378906 89.304688 C 122.5625 89.605469 121.796875 89.980469 122.449219 90.246094 C 122 90.597656 122.195312 91.058594 122.21875 91.371094 C 122.082031 91.699219 121.792969 92.035156 121.488281 92.214844 C 121.667969 92.519531 121.839844 92.664062 122.007812 92.808594 C 121.449219 93.800781 121.542969 95.058594 122.085938 95.964844 C 122.46875 96.886719 122.382812 97.839844 122.125 98.648438 C 122.949219 99.0625 123.46875 99.65625 123.683594 100.429688 C 123.71875 100.902344 124.371094 101.171875 123.777344 101.6875 C 124.417969 101.800781 123.992188 102.460938 124.34375 102.910156 C 124.691406 103.359375 124.882812 103.820312 125.066406 104.121094 C 125.246094 104.425781 125.425781 104.726562 125.621094 105.1875 L 126.632812 106.058594 C 126.378906 106.871094 126.886719 107.304688 127.371094 107.429688 C 128.023438 107.695312 127.597656 108.359375 128.105469 108.796875 C 129.097656 109.355469 130.085938 109.914062 131.238281 110.460938 C 131.40625 110.605469 131.5625 110.59375 131.71875 110.582031 C 132.8125 110.34375 132.722656 111.296875 132.929688 111.914062 C 134.152344 111.351562 134.964844 111.605469 136.023438 113.105469 C 136.171875 112.9375 136.148438 112.625 136.28125 112.296875 C 136.644531 112.902344 136.835938 113.363281 137.183594 113.8125 C 137.320312 113.484375 137.609375 113.148438 137.890625 112.652344 C 137.925781 113.125 138.117188 113.582031 138.335938 114.359375 C 138.929688 113.839844 139.367188 113.332031 139.804688 112.828125 C 140.3125 113.261719 140.808594 113.542969 141.3125 113.976562 C 141.605469 113.640625 141.738281 113.316406 142.03125 112.976562 C 142.550781 113.570312 142.292969 114.378906 143.09375 114.476562 C 143.214844 113.996094 144.195312 114.398438 144.136719 113.609375 C 144.597656 113.417969 145.058594 113.226562 145.664062 112.863281 C 146.535156 113.90625 147.382812 112.578125 148.339844 112.664062 C 148.207031 112.992188 148.230469 113.304688 148.097656 113.632812 C 148.859375 113.257812 149.625 112.886719 150.242188 112.683594 L 150.171875 111.738281 L 150.957031 111.679688 C 151.140625 111.984375 151.464844 112.117188 151.816406 112.566406 C 151.925781 111.925781 151.902344 111.609375 152.039062 111.285156 L 152.511719 111.25 C 152.679688 111.394531 152.703125 111.707031 152.871094 111.855469 L 153.972656 111.773438 L 153.429688 110.863281 C 153.722656 110.527344 154.015625 110.1875 154.464844 109.839844 C 154.644531 110.140625 154.824219 110.445312 154.992188 110.589844 C 155.890625 109.890625 156.800781 109.347656 157.699219 108.648438 L 158.207031 109.085938 C 158.160156 108.457031 158.28125 107.972656 158.246094 107.503906 L 159.191406 107.433594 C 159.179688 107.273438 159.316406 106.949219 159.304688 106.792969 C 159.628906 106.925781 159.785156 106.914062 159.957031 107.058594 L 161.558594 105.199219 L 161.511719 104.570312 L 162.421875 104.03125 C 162.589844 104.175781 162.75 104.164062 163.074219 104.296875 C 163.367188 103.960938 163.511719 103.789062 163.648438 103.464844 C 163.453125 103.003906 163.285156 102.859375 163.09375 102.398438 L 164.351562 102.304688 C 164.632812 101.808594 165.09375 101.617188 165.203125 100.976562 C 165.167969 100.507812 165.617188 100.15625 165.75 99.832031 C 166.03125 99.335938 166.164062 99.007812 166.289062 98.527344 C 166.410156 98.042969 166.375 97.570312 166.496094 97.085938 C 166.484375 96.929688 166.328125 96.941406 166.160156 96.796875 C 166.71875 95.804688 167.433594 94.804688 167.339844 93.546875 C 167.257812 92.445312 167.492188 91.324219 167.882812 90.1875 C 167.558594 90.054688 167.21875 89.761719 166.878906 89.472656 C 166.664062 88.695312 166.449219 87.921875 166.242188 87.304688 Z M 157.78125 82.085938 C 157.636719 82.253906 157.648438 82.414062 157.511719 82.738281 C 157.695312 83.042969 158.019531 83.175781 158.359375 83.464844 L 158.453125 84.722656 C 158.8125 85.328125 158.996094 85.632812 159.34375 86.078125 C 159.222656 86.5625 158.941406 87.058594 158.675781 87.710938 C 158.84375 87.855469 159.183594 88.148438 159.363281 88.449219 C 159.554688 88.910156 159.929688 89.671875 159.636719 90.011719 C 159.371094 90.664062 159.886719 91.257812 159.476562 92.078125 C 159.195312 92.570312 159.566406 93.335938 159.613281 93.964844 L 158.355469 94.058594 C 158.222656 94.382812 158.085938 94.710938 157.964844 95.191406 C 158.132812 95.339844 158.304688 95.484375 158.316406 95.640625 C 158 95.664062 158 95.664062 157.855469 95.832031 C 158.023438 95.980469 158.046875 96.292969 158.214844 96.4375 C 157.753906 96.632812 157.292969 96.824219 157.003906 97.160156 C 156.710938 97.5 156.589844 97.984375 156.308594 98.476562 L 156.648438 98.769531 C 156.503906 98.9375 156.367188 99.265625 156.054688 99.289062 C 154.9375 99.210938 154.828125 99.851562 154.875 100.480469 C 153.84375 101.507812 152.96875 102.519531 152.226562 103.207031 C 151.308594 103.59375 150.542969 103.964844 149.609375 104.191406 C 149.609375 104.191406 149.441406 104.046875 149.285156 104.058594 C 148.675781 104.421875 147.878906 104.320312 147.101562 104.539062 C 146.96875 104.863281 146.6875 105.359375 146.398438 105.695312 C 145.429688 105.453125 144.730469 104.554688 143.855469 105.570312 C 143.214844 105.460938 142.535156 104.878906 141.808594 105.722656 C 141.277344 104.972656 140.488281 105.03125 139.835938 104.761719 C 139.511719 104.628906 139.050781 104.820312 138.429688 105.023438 C 137.777344 104.757812 137.054688 103.546875 136.035156 104.726562 C 133.566406 103.488281 132.289062 101.214844 130.5625 99.285156 C 130.796875 98.164062 130.085938 97.109375 129.542969 96.199219 C 129.363281 95.898438 129.179688 95.59375 129.144531 95.125 C 128.929688 94.347656 128.714844 93.574219 128.65625 92.789062 L 128.480469 90.429688 C 128.457031 90.117188 128.277344 89.8125 128.09375 89.511719 C 128.667969 88.679688 129.070312 87.699219 128.976562 86.441406 C 129.132812 86.429688 129.289062 86.417969 129.433594 86.25 C 129.59375 86.238281 129.582031 86.082031 129.738281 86.070312 C 129.570312 85.925781 129.558594 85.765625 129.398438 85.777344 C 129.859375 85.585938 130.164062 85.40625 130.613281 85.054688 C 130.722656 84.414062 130.824219 83.617188 131.078125 82.808594 C 131.238281 82.796875 131.382812 82.628906 131.6875 82.445312 C 131.503906 82.144531 131.335938 82 131.15625 81.695312 L 131.59375 81.1875 C 131.917969 81.324219 132.246094 81.457031 132.730469 81.578125 C 132.695312 81.105469 132.816406 80.625 132.78125 80.152344 L 133.691406 79.609375 C 134.175781 79.730469 134.660156 79.855469 135.300781 79.964844 L 135.171875 78.234375 C 135.511719 78.527344 135.847656 78.816406 136.175781 78.949219 C 136.296875 78.46875 136.429688 78.140625 136.710938 77.648438 L 137.621094 77.105469 L 138.128906 77.542969 C 138.105469 77.226562 138.238281 76.902344 138.214844 76.585938 C 138.820312 76.226562 139.28125 76.03125 139.890625 75.671875 L 140.058594 75.816406 C 141.621094 75.542969 143.027344 75.28125 144.902344 74.980469 C 145.714844 75.238281 146.71875 75.953125 148.125 75.691406 C 148.582031 75.5 148.96875 76.417969 149.550781 75.742188 C 149.699219 75.574219 150.351562 75.839844 150.675781 75.976562 C 150.6875 76.132812 150.859375 76.277344 150.882812 76.59375 L 151.320312 76.085938 C 151.511719 76.546875 151.703125 77.003906 152.054688 77.453125 C 152.210938 77.441406 152.199219 77.285156 152.355469 77.273438 L 153.710938 78.4375 L 153.757812 79.066406 C 154.578125 79.480469 155.367188 79.421875 155.75 80.339844 C 155.773438 80.65625 156.40625 80.609375 156.902344 80.886719 C 157.25 81.335938 157.441406 81.796875 157.78125 82.085938 Z M 157.78125 82.085938 " fill-opacity="1" fill-rule="nonzero"/></g></g></g></g></svg>