<svg width="58" height="32" viewBox="0 0 58 32" fill="none" xmlns="http://www.w3.org/2000/svg">
<mask id="mask0_5497_1802" style="mask-type:luminance" maskUnits="userSpaceOnUse" x="4" y="0" width="30" height="32">
<path d="M4.81885 0H33.0296V32H4.81885V0Z" fill="white"/>
</mask>
<g mask="url(#mask0_5497_1802)">
<mask id="mask1_5497_1802" style="mask-type:luminance" maskUnits="userSpaceOnUse" x="5" y="-2" width="28" height="36">
<path d="M5.10742 0.705188L30.5093 -1.19576L32.922 31.4363L7.52006 33.3373L5.10742 0.705188Z" fill="white"/>
</mask>
<g mask="url(#mask1_5497_1802)">
<mask id="mask2_5497_1802" style="mask-type:luminance" maskUnits="userSpaceOnUse" x="5" y="-2" width="28" height="36">
<path d="M5.10742 0.705188L30.5093 -1.19576L32.922 31.4363L7.52006 33.3373L5.10742 0.705188Z" fill="white"/>
</mask>
<g mask="url(#mask2_5497_1802)">
<mask id="mask3_5497_1802" style="mask-type:luminance" maskUnits="userSpaceOnUse" x="5" y="-2" width="28" height="36">
<path d="M5.10742 0.705188L30.5093 -1.19576L32.922 31.4363L7.52006 33.3373L5.10742 0.705188Z" fill="white"/>
</mask>
<g mask="url(#mask3_5497_1802)">
<mask id="mask4_5497_1802" style="mask-type:luminance" maskUnits="userSpaceOnUse" x="5" y="-2" width="28" height="36">
<path d="M5.10742 0.705188L30.5093 -1.19576L32.922 31.4363L7.52006 33.3373L5.10742 0.705188Z" fill="white"/>
</mask>
<g mask="url(#mask4_5497_1802)">
<path d="M29.3414 28.4127L29.332 28.2854L29.4516 28.1439C29.4258 28.1038 29.4211 28.0377 29.3953 27.9764C29.3953 27.9764 29.3508 27.9575 29.3297 27.9575C29.2992 27.8514 29.2687 27.7241 29.2383 27.5967C29.2148 27.5755 29.1703 27.5566 29.1023 27.5189C29.0483 27.3939 29.1492 27.2995 29.1632 27.1887C29.0952 27.1509 29.0272 27.1132 28.9827 27.0731C28.9757 26.9858 28.9475 26.9009 28.9405 26.7924C28.9592 26.7689 29.0014 26.7453 29.0601 26.6745C29.1234 26.6486 29.2289 26.6203 29.3578 26.5873C29.3344 26.5684 29.332 26.5472 29.3086 26.5259C29.3696 26.4575 29.4188 26.5401 29.4422 26.559C29.9041 26.9387 29.8127 26.8797 29.8783 27.1792C29.8174 27.2264 29.7048 27.191 29.6931 27.3231L29.7635 27.3821C29.8268 27.3561 29.9112 27.3278 29.9745 27.3019C30.0518 27.4693 30.0659 27.6863 30.1456 27.875C30.1949 27.9599 30.1808 28.0684 30.2089 28.1321C30.2582 28.2146 30.2863 28.2995 30.3356 28.3821C30.4434 28.375 30.4786 28.2641 30.5372 28.1722L30.645 28.1651C30.706 28.1156 30.767 28.0684 30.8303 28.0424L31.0178 27.9623C31.0765 27.8491 31.2007 27.7759 31.325 27.7217C31.3672 27.6981 31.4328 27.7146 31.4328 27.7146C31.5126 27.5991 31.665 27.6108 31.7634 27.4929C31.8033 27.4481 31.8432 27.4009 31.8877 27.3986C32.0143 27.3656 32.1151 27.25 32.2417 27.2193L32.3918 27.2075C32.4387 27.2476 32.4621 27.2689 32.5067 27.2854C32.4692 27.3538 32.4528 27.4434 32.4153 27.5094C32.4457 27.6179 32.5301 27.6108 32.638 27.6014C32.5747 27.6297 32.5325 27.6321 32.5348 27.6533C32.5184 27.7406 32.4364 27.8137 32.3543 27.8632C32.2722 27.9127 32.2347 28.0024 32.1527 28.0519C32.0682 28.1014 31.9862 28.1509 31.9252 28.2193C31.9065 28.2429 31.8619 28.2476 31.8221 28.2712C31.7376 28.3207 31.6298 28.3302 31.6181 28.4599C31.5782 28.4858 31.5102 28.4693 31.4938 28.5141C31.3766 28.6957 31.1867 28.7547 31.0202 28.8538C30.8748 28.9292 30.7295 29.0259 30.6122 29.1887C30.6568 29.2288 30.7037 29.2665 30.7295 29.309L30.7482 29.5684C30.8748 29.5377 30.8865 29.6887 30.9967 29.7241C31.0413 29.7429 31.0507 29.8491 31.0999 29.934C31.2593 30.0307 31.3367 30.2193 31.4188 30.4316C31.4633 30.4481 31.529 30.4646 31.5946 30.4835L31.6063 30.6344C31.6767 30.7146 31.7259 30.7995 31.7752 30.8608C31.7541 30.8844 31.7353 30.9057 31.7165 30.9505C31.7423 30.9929 31.7658 31.0354 31.7705 31.0991C31.7494 31.1014 31.7517 31.1226 31.7283 31.125C31.7025 31.0613 31.6556 31 31.6298 30.9363L31.5641 30.941C31.5876 30.9599 31.5899 30.9835 31.6134 31.0236C31.6181 31.0896 31.5595 31.158 31.475 31.2075C31.543 31.2476 31.6321 31.2618 31.7001 31.2995C31.7212 31.2995 31.7189 31.2759 31.74 31.2547C31.74 31.2759 31.7611 31.2736 31.7634 31.2948L31.7752 31.4457C31.7306 31.4292 31.6861 31.4316 31.6415 31.4127C31.6462 31.4552 31.6251 31.4788 31.6275 31.5C31.6275 31.5 31.6298 31.5236 31.6063 31.5236C31.4797 31.5566 31.3508 31.566 31.257 31.4646C31.2078 31.4033 31.121 31.3868 31.0929 31.3019C31.0671 31.2382 30.9592 31.2476 30.9311 31.1627C30.9311 31.1627 30.8865 31.1439 30.842 31.1462C30.8608 31.0802 30.8537 30.9953 30.849 30.9505C30.781 30.8915 30.6896 30.8325 30.6193 30.7736L30.6122 30.6651C30.5911 30.6674 30.5466 30.6486 30.5255 30.6486L30.5137 30.4976C30.4434 30.4174 30.3285 30.3373 30.3402 30.2075C30.3191 30.2099 30.2957 30.1887 30.2535 30.191C30.2488 30.1486 30.2254 30.1061 30.2183 30.0212C30.1808 30.0896 30.162 30.1344 30.1409 30.158C30.1198 30.158 30.1175 30.1368 30.0964 30.1391C30.0941 30.0943 30.1128 30.0731 30.1081 30.0071C29.9721 29.9316 29.937 29.7382 29.7424 29.7311C29.7424 29.7524 29.7259 29.7972 29.7048 29.8207C29.6814 29.7995 29.6603 29.8019 29.6368 29.783C29.5548 29.8325 29.4469 29.8608 29.3438 29.9127C29.3461 29.9552 29.3508 30 29.332 30.0448C29.2851 30.0047 29.2406 29.9858 29.1937 29.9457L29.2101 30.1604C29.1445 30.1439 29.121 30.125 29.0788 30.1274C29.0413 30.217 29.0038 30.3066 28.9475 30.4198L28.8561 30.3396C28.8139 30.3656 28.7928 30.3656 28.7506 30.3915C28.6873 30.4174 28.5818 30.4481 28.5653 30.5141C28.5255 30.5825 28.4645 30.6085 28.4247 30.6769C28.366 30.7665 28.2605 30.7972 28.1527 30.783C28.0542 30.6391 27.8784 30.6085 27.7236 30.5542L27.7095 30.3608C27.6673 30.3844 27.6697 30.408 27.6486 30.4292C27.6251 30.3891 27.6017 30.3679 27.5759 30.3278C27.5759 30.3278 27.5759 30.3066 27.597 30.3042C27.6369 30.2783 27.658 30.2547 27.7002 30.2311C27.7822 30.1816 27.9112 30.1722 27.8784 30.0212C27.876 30 27.9182 29.9764 27.9604 29.9505C28.0425 29.9009 28.1269 29.8514 28.1832 29.7594C28.223 29.7146 28.2676 29.7099 28.3074 29.6651C28.3895 29.592 28.5208 29.6274 28.5747 29.4693C28.6122 29.3797 28.7365 29.3278 28.8373 29.2335L28.9686 29.2241L28.9592 29.0943C28.8912 29.0566 28.8092 29.1274 28.781 29.0424C28.7529 28.9575 28.699 29.092 28.6263 29.0094C28.556 28.9292 28.4294 28.9811 28.3379 28.9009C28.2676 28.842 28.1199 28.875 28.0472 28.7712C27.8948 28.783 27.7799 28.6816 27.6298 28.6934C27.4985 28.7028 27.3883 28.6674 27.2969 28.5896C27.25 28.5495 27.1609 28.5118 27.0952 28.4953C26.9639 28.5047 26.8491 28.4057 26.7178 28.3939C26.6967 28.3939 26.6732 28.3538 26.6498 28.3325C26.5607 28.3184 26.4809 28.3891 26.4083 28.3066C26.3895 28.3302 26.3684 28.3538 26.3473 28.3561C26.1879 28.2594 26.0519 28.1604 25.8924 28.0637C25.8502 28.0896 25.7588 28.0094 25.6556 28.0825C25.5407 28.0024 25.4282 27.9245 25.2922 27.8491C25.2711 27.8491 25.2289 27.875 25.1867 27.8774C25.1187 27.8608 25.0554 27.8656 25.0109 27.8467C24.828 27.7311 24.6709 27.6557 24.5349 27.5566C24.4927 27.5825 24.4505 27.6061 24.4294 27.6085C24.3145 27.5307 24.1433 27.5424 24.0472 27.4198C24.0214 27.3774 23.937 27.3844 23.869 27.3679C23.8479 27.3703 23.8292 27.3915 23.8081 27.4151C23.6932 27.316 23.5783 27.2382 23.4657 27.1604L23.4446 27.1816C23.4001 27.1651 23.3743 27.1226 23.3297 27.0825C23.3086 27.1061 23.2875 27.1085 23.2453 27.1321C23.1539 27.0731 23.0414 26.9953 22.9265 26.9174L22.6897 26.934C22.6873 26.9127 22.6873 26.8915 22.6615 26.8491L22.5115 26.8608C22.4411 26.8019 22.3731 26.7406 22.3239 26.6792L22.1527 26.6934L22.0589 26.6132L21.8878 26.625C21.7729 26.5472 21.6815 26.467 21.5666 26.3891C21.5455 26.4127 21.5267 26.4363 21.5056 26.4363C21.3931 26.4009 21.304 26.3656 21.1938 26.3302C21.1938 26.3302 21.175 26.3538 21.1516 26.3538L21.1445 26.2476C21.0343 26.2123 20.9452 26.1957 20.8561 26.1604C20.8585 26.1816 20.8374 26.2052 20.8421 26.2476C20.7952 26.2075 20.7694 26.1439 20.7225 26.1038C20.6803 26.1297 20.6615 26.1533 20.6404 26.1769L20.4974 25.9906L20.4576 26.0377C20.3474 26.0024 20.2559 25.9646 20.1457 25.9316L20.0871 26L19.9253 25.8608L19.7729 25.8703C19.7166 25.7028 19.522 25.6957 19.4071 25.6156C19.2149 25.6533 19.0977 25.5307 18.9406 25.4552C18.828 25.3986 18.7155 25.342 18.6264 25.283C18.6053 25.3066 18.5631 25.3325 18.542 25.3325C18.4951 25.2712 18.4693 25.2311 18.4458 25.1887L18.2301 25.2052C18.2278 25.184 18.2043 25.1627 18.202 25.1203C18.1575 25.1226 18.0918 25.1061 18.0285 25.1108C18.0262 25.0896 18.0238 25.0684 18.0004 25.0472C17.9347 25.0307 17.848 25.0377 17.8011 24.9764C17.7542 24.9151 17.6299 25.0118 17.5807 24.9269C17.5525 24.8207 17.3884 24.9646 17.4001 24.8325C17.3321 24.7948 17.2665 24.7783 17.1985 24.7382C17.1961 24.717 17.175 24.6981 17.1727 24.6769C17.0414 24.6651 16.9101 24.6509 16.7577 24.6415C16.7577 24.6203 16.7342 24.5991 16.7296 24.5566L16.6217 24.566L16.345 24.3255C16.2395 24.3538 16.1903 24.2924 16.1622 24.2075C16.0309 24.1745 15.9207 24.1391 15.787 24.1061L15.7729 23.9127C15.7026 23.8302 15.5736 23.8396 15.583 23.6863C15.5619 23.6887 15.5408 23.691 15.5408 23.7123C15.5221 23.7571 15.5057 23.8019 15.5057 23.8231C15.4166 23.7854 15.3486 23.7476 15.2829 23.7311C15.1047 23.658 15.0484 23.4882 14.95 23.3207L14.8257 23.3962C14.746 23.2075 14.5467 23.1557 14.3873 23.0377C14.3169 22.9788 14.2888 22.8726 14.1575 22.8585C14.1129 22.8632 14.066 22.8019 14.0004 22.8066C13.916 22.8137 13.8878 22.7288 13.9019 22.6391C13.8339 22.6014 13.7495 22.6085 13.7401 22.5C13.6534 22.4835 13.5455 22.5141 13.5362 22.3632L13.4072 22.3726C13.3837 22.3538 13.358 22.3113 13.3345 22.2901C13.3111 22.25 13.2642 22.2099 13.2431 22.2123C13.1774 22.217 13.1329 22.1981 13.086 22.158C13.0625 22.1156 13.0602 22.0731 13.0555 22.0307C13.0133 22.033 12.9898 22.0118 12.9687 22.0141L12.9617 21.9292L12.753 21.7476C12.7343 21.7712 12.6921 21.7972 12.6499 21.8207L12.5772 21.6957C12.6757 21.5802 12.5608 21.4811 12.5303 21.3726C12.467 21.4009 12.4271 21.4245 12.3638 21.4505L12.3498 21.2571L12.1176 21.0566L12.0309 21.0637C12.0473 20.9764 12.0614 20.8868 12.0543 20.7807C11.9887 20.7854 11.9441 20.7665 11.9019 20.7689L11.8926 20.6391C11.848 20.6439 11.8058 20.6462 11.7824 20.625C11.6698 20.5684 11.5784 20.4882 11.4869 20.4316C11.4635 20.4104 11.4424 20.4127 11.44 20.3915C11.4049 20.2193 11.2501 20.1674 11.1141 20.0896C11.0461 20.0519 11.018 19.967 10.95 19.9057C10.8773 19.8255 10.8281 19.7406 10.7343 19.6391C10.7554 19.6179 10.7507 19.5519 10.7671 19.4858C10.7179 19.4245 10.6733 19.3844 10.6241 19.3019L10.5796 19.3042C10.5162 19.309 10.4506 19.3137 10.4037 19.2524L10.3943 19.1226L10.2771 19.0236C10.2747 19 10.2958 18.9788 10.3123 18.9104C10.2185 18.809 10.1223 18.6863 10.0028 18.5212L9.99808 18.4575C9.95118 18.4174 9.88553 18.4009 9.83864 18.3608C9.85271 18.25 9.86912 18.184 9.88319 18.0755C9.85974 18.0542 9.81285 18.0141 9.7683 17.9953C9.71672 17.8703 9.64404 17.7665 9.56666 17.6203C9.56666 17.6203 9.58776 17.5967 9.60652 17.5519C9.56197 17.533 9.49398 17.4953 9.44709 17.4552C9.46584 17.4316 9.46584 17.4104 9.4846 17.3656C9.46115 17.3467 9.4166 17.3491 9.39316 17.3302C9.40019 17.1108 9.21497 16.9741 9.32516 16.7052C9.2431 16.7547 9.2009 16.7571 9.15869 16.783C9.17042 16.6509 9.09539 16.5259 9.17511 16.4104L9.03208 16.2264C9.15635 16.1533 8.97816 16.1014 9.01567 16.033C9.07429 15.941 8.98285 15.8821 8.97816 15.7972C8.97347 15.7311 8.92423 15.6486 8.89609 15.5849C8.89609 15.5849 8.87499 15.5873 8.83044 15.5684C8.80465 15.5047 8.79762 15.4198 8.76948 15.3349L8.80934 15.2877L8.73666 15.1627C8.75541 15.1391 8.75307 15.1179 8.77417 15.0943C8.74838 15.0542 8.72259 14.9906 8.6757 14.9505L8.71556 14.9033C8.64287 14.7783 8.54674 14.6557 8.53267 14.4835C8.52564 14.375 8.47406 14.2476 8.35917 14.1698C8.4131 14.0141 8.42482 13.9033 8.34979 13.7571C8.30055 13.6745 8.33572 13.5637 8.32869 13.4764C8.2818 13.4151 8.23256 13.3538 8.16222 13.2712C8.15284 13.1439 8.12236 13.0141 8.26773 12.9387C8.24428 12.8962 8.19739 12.8561 8.1716 12.7948C8.14581 12.7524 8.09891 12.691 8.07078 12.6061L8.04968 12.3467C8.06843 12.3019 8.11064 12.2759 8.1505 12.2311C8.12705 12.2099 8.1247 12.1887 8.10126 12.1462L8.17394 11.967C8.10595 11.9292 8.03795 11.8703 7.96761 11.809C7.98168 11.7005 8.12939 11.6462 8.03561 11.5448C8.01216 11.5448 7.99106 11.5259 7.94651 11.5283C7.94182 11.4646 7.91369 11.3585 7.9301 11.2924C7.96527 11.2028 7.96058 11.1156 7.95355 11.0283C7.94651 10.9434 7.92072 10.8797 7.97934 10.809C7.86679 10.7524 8.01451 10.6769 7.96527 10.6156C7.84569 10.7547 7.84569 10.7547 7.841 10.9717L7.78004 11.0424C7.75894 11.0424 7.73784 11.0448 7.71439 11.0259C7.69329 11.0259 7.66984 11.0071 7.6675 10.9858C7.6464 10.9858 7.62764 11.0094 7.62764 11.0094C7.63467 11.1179 7.54792 11.125 7.48696 11.1722C7.53151 11.191 7.55261 11.1887 7.62061 11.2264C7.58075 11.2524 7.55964 11.2759 7.54089 11.2995C7.51979 11.3231 7.50103 11.3679 7.48227 11.3891C7.45882 11.3703 7.43772 11.3726 7.43538 11.3491C7.37442 11.3986 7.29235 11.4693 7.23139 11.5165C7.30173 11.5991 7.19857 11.6722 7.2267 11.7358C7.1634 11.7618 7.07899 11.7901 7.01569 11.8373L7.02272 11.9245C6.943 12.0165 6.90549 12.1061 6.82577 12.1981C6.80232 12.158 6.77888 12.1368 6.75309 12.0967C6.67102 12.1462 6.61006 12.1934 6.52565 12.2217C6.34981 12.191 6.39904 11.9929 6.2865 11.9151C6.38498 11.7759 6.27009 11.6981 6.21851 11.592C6.25133 11.4599 6.30526 11.3042 6.33808 11.1486C6.50455 11.0731 6.62882 10.9764 6.6804 10.8208C6.69916 10.7524 6.76012 10.7052 6.77653 10.6391C6.81405 10.5707 6.91956 10.5189 6.91252 10.434C7.02038 10.4245 7.03444 10.316 7.07196 10.2476C7.11182 10.1792 7.17043 10.1108 7.25953 10.1462L7.31111 9.94811L7.50337 9.93396L7.49165 9.75943C7.73784 9.58962 8.03326 9.48113 8.15987 9.14622C8.20208 9.12028 8.26304 9.07311 8.324 9.02358C8.34745 9.04481 8.37089 9.06367 8.39199 9.06367C8.52095 9.03066 8.39434 8.80188 8.61239 8.8066C8.69914 8.82311 8.72962 8.92924 8.79996 9.00943C8.75776 9.01415 8.71556 9.03773 8.67335 9.04245L8.68273 9.17216C8.72493 9.16745 8.79058 9.18396 8.85623 9.17924C8.88203 9.22169 8.90547 9.26415 8.95236 9.30424C8.97112 9.28066 8.99457 9.2783 9.01333 9.25471C9.01567 9.27594 9.03912 9.29717 9.03912 9.31839C9.04615 9.40566 9.02505 9.40566 8.98285 9.4316L8.99457 9.58254C9.17042 9.6132 9.16104 9.78773 9.21497 9.91273C9.23841 9.95518 9.22434 10.0637 9.3322 10.0354C9.3533 10.033 9.37909 10.0967 9.40488 10.1391C9.47522 10.2193 9.52446 10.3019 9.6159 10.3821L9.62528 10.5118C9.8785 10.6887 10.0051 10.9623 10.1974 11.2075C10.2208 11.2288 10.2654 11.2476 10.3099 11.2641L10.3193 11.3939L10.6429 11.6745C10.6264 11.7406 10.6077 11.7854 10.5913 11.8514C10.6757 11.8231 10.6968 11.8019 10.739 11.7759C10.7601 11.7972 10.7835 11.816 10.8281 11.8349C10.746 11.8844 10.6851 11.9316 10.6007 11.9811C10.5842 12.0495 10.5491 12.1604 10.5139 12.25C10.4459 12.2335 10.4014 12.2146 10.3803 12.2146C10.0919 12.1061 9.96291 11.8349 9.73313 11.6557L9.7261 11.5684L9.70265 11.5495C9.67452 11.4434 9.50805 11.5637 9.52211 11.434C9.43771 11.4599 9.42598 11.3302 9.34158 11.3373C9.32047 11.3396 9.27124 11.2783 9.26889 11.2571C9.23841 11.1274 9.14697 11.0708 9.07429 10.967L8.96643 10.9741C8.99457 11.0377 8.99926 11.1038 9.02739 11.1863C8.96409 11.2358 8.92423 11.2594 8.88437 11.3066C8.92892 11.3255 8.97347 11.3443 9.04146 11.3821C9.02036 11.4057 9.0227 11.4269 9.0016 11.4505L9.0485 11.4906C9.02974 11.5354 8.98988 11.559 8.95002 11.6061C8.99926 11.6887 9.06725 11.75 9.11649 11.8325C9.10008 11.8986 9.08367 11.9646 9.08835 12.0307L9.12352 12.5047C9.12821 12.5495 9.10711 12.5708 9.08835 12.6156C9.11415 12.658 9.16104 12.7193 9.18683 12.7618C9.17042 12.8491 9.17745 12.9363 9.16338 13.0236C9.14463 13.0896 9.15166 13.1769 9.13759 13.2641C9.16104 13.2854 9.20559 13.3255 9.23138 13.3656C9.21262 13.4104 9.19386 13.4552 9.19621 13.4764C9.26655 13.559 9.23372 13.691 9.28062 13.7524C9.32985 13.816 9.31344 13.8821 9.33923 13.9458C9.36268 13.9858 9.39081 14.0495 9.35096 14.0967C9.32985 14.1179 9.37675 14.158 9.37909 14.2028L9.52211 14.3868C9.5057 14.4316 9.4846 14.4552 9.46584 14.5C9.53618 14.559 9.60652 14.6415 9.59245 14.75C9.68624 14.8302 9.60887 14.967 9.67921 15.0259C9.75189 15.1297 9.71438 15.2193 9.70031 15.309C9.7261 15.3703 9.75189 15.434 9.77768 15.4764C9.76361 15.5849 9.7683 15.6509 9.75189 15.7382C9.93712 15.8774 9.93008 16.0731 9.94415 16.2877C9.9676 16.2877 9.9887 16.2854 10.0332 16.3042C10.0684 16.4741 10.1036 16.6674 10.1388 16.8608C10.1622 16.8797 10.2279 16.8986 10.2747 16.9363L10.2161 17.0071C10.3334 17.1297 10.3873 17.2759 10.4201 17.4269C10.4881 17.4646 10.5327 17.4835 10.6218 17.5424C10.6053 17.6085 10.5889 17.6745 10.5749 17.7618C10.6429 17.7995 10.732 17.8373 10.7999 17.875L10.8187 17.8514C10.7953 17.8325 10.7953 17.8113 10.7484 17.7712C10.8351 17.7854 10.8797 17.8042 10.9242 17.8231C10.9055 17.8467 10.8844 17.8703 10.8867 17.8915C10.9312 17.9104 10.957 17.9505 11.0016 17.9693L10.8773 18.0448C10.8773 18.066 10.8797 18.0873 10.9031 18.1061C10.9735 18.1674 11.0625 18.2264 11.093 18.3325C11.1235 18.4387 11.2126 18.4953 11.2829 18.5566C11.3767 18.658 11.4518 18.783 11.5033 18.908C11.4611 18.934 11.4213 18.9599 11.3814 19.0047C11.4494 19.0424 11.494 19.0613 11.5385 19.0802C11.5971 19.0118 11.6651 19.0283 11.7519 19.0424C11.7331 19.0873 11.7144 19.1108 11.6956 19.1557C11.7402 19.1745 11.7613 19.1722 11.8035 19.1698L11.8128 19.2759L11.9043 19.3561C11.8879 19.4245 11.8926 19.467 11.8761 19.5542C11.9394 19.5283 11.9816 19.5024 12.0215 19.4788L12.0918 19.5377L12.1036 19.6887C12.1247 19.6887 12.1458 19.6863 12.1692 19.7075C12.3029 19.7406 12.3943 19.8207 12.467 19.9222C12.6546 20.1274 12.8445 20.3514 13.0555 20.5731C13.0367 20.5967 13.0156 20.6203 12.9992 20.6651C13.0414 20.6627 13.0625 20.6604 13.1282 20.6769C13.2196 20.7358 13.3134 20.8373 13.365 20.941C13.4142 21.0259 13.4846 21.0849 13.5737 21.1226C13.6651 21.1792 13.7565 21.2382 13.8058 21.3443C13.8316 21.3844 13.8574 21.4481 13.9019 21.467C14.1036 21.5613 14.2067 21.7689 14.3873 21.8868L14.474 21.8797C14.5467 21.9623 14.6569 22.0189 14.7296 22.1226C14.7812 22.2052 14.8538 22.309 14.9992 22.2524C15.0484 22.316 15.1188 22.3962 15.1891 22.4575C15.2571 22.5165 15.3486 22.5755 15.44 22.6321C15.508 22.6722 15.5783 22.7311 15.644 22.7689L15.6534 22.8774C15.6956 22.8538 15.7378 22.8491 15.78 22.8255L15.7894 22.9552C15.8316 22.9505 15.8761 22.9693 15.9418 22.9646C15.9253 23.0307 15.8855 23.0778 15.8667 23.1439L15.9371 23.2052C15.9769 23.158 15.9957 23.1132 16.0332 23.0448C16.1035 23.1038 16.2489 23.0283 16.2817 23.1792C16.413 23.191 16.4646 23.2948 16.5139 23.3774C16.6944 23.4741 16.8726 23.5472 17.0742 23.6415C17.0742 23.6415 17.0719 23.6179 17.093 23.6179L17.3954 23.8774C17.4634 23.9363 17.5314 23.9764 17.6182 23.9693C17.6838 23.9646 17.7495 23.9811 17.794 24C17.9042 24.0354 18.0144 24.0472 18.1082 24.1486C18.1786 24.2099 18.2888 24.2453 18.3755 24.2382C18.4623 24.2524 18.488 24.316 18.5162 24.3797C18.6029 24.3939 18.7108 24.3868 18.7999 24.4245C18.8655 24.441 18.9335 24.4788 18.9804 24.5189C19.0508 24.5778 19.1188 24.6391 19.2243 24.5873C19.4236 24.6604 19.6018 24.7123 19.7846 24.8491C19.7846 24.8491 19.787 24.8703 19.8104 24.8915C19.7682 24.9151 19.7284 24.9623 19.6651 24.9882L19.6674 25.0094C19.7331 25.0283 19.8198 25.0424 19.8878 25.059L19.9066 25.0354C19.9066 25.0354 19.9042 25.0141 19.8831 25.0165C19.8831 24.9953 19.8597 24.9953 19.8597 24.9741C19.923 24.9481 19.9628 24.9222 20.0261 24.8962C20.1176 24.9552 20.2278 24.9906 20.3192 25.0495L20.3591 25.0024C20.4716 25.059 20.5631 25.1391 20.6779 25.217L20.8515 25.2052C20.8749 25.2453 20.9194 25.2641 20.9452 25.3066L21.1164 25.2924L21.3251 25.4741L21.5197 25.4575C21.5877 25.5189 21.6557 25.5566 21.7706 25.6344L21.9863 25.6179C21.9886 25.6415 22.0097 25.6604 22.0144 25.7028C22.0566 25.7005 22.1011 25.6981 22.1668 25.7146C22.2559 25.75 22.3473 25.809 22.4599 25.8656C22.4599 25.8868 22.5068 25.9269 22.5326 25.9693C22.6732 25.8278 22.7717 25.9953 22.8819 26.0071C22.9265 26.0472 22.9523 26.0896 22.978 26.1321C23.1211 26.033 23.1422 26.033 23.3766 26.2524L23.5689 26.2382C23.5712 26.2594 23.597 26.3019 23.597 26.3231C23.7705 26.3113 23.9276 26.3868 24.0261 26.5519C24.0683 26.5283 24.0871 26.5047 24.1082 26.4811C24.3028 26.4882 24.3848 26.7217 24.6216 26.6816C24.6662 26.7217 24.7154 26.783 24.7623 26.8443C24.8045 26.8207 24.8233 26.7972 24.8655 26.7712C25.0179 26.783 25.0718 26.908 25.1656 27.0094C25.1844 26.9882 25.2289 26.9835 25.2477 26.9599C25.4423 26.967 25.6228 27.0401 25.7635 27.2052C25.8057 27.1792 25.8244 27.1557 25.8268 27.1769C26.0402 27.1391 26.141 27.3278 26.3356 27.3137C26.4716 27.4127 26.6451 27.3986 26.8209 27.4505C26.8702 27.5118 26.9194 27.5967 26.9686 27.6792C27.0319 27.6533 27.0929 27.6038 27.1562 27.5778L27.2945 27.6981C27.4915 27.7264 27.6884 27.7547 27.8502 27.8962L28.0894 27.8774C28.2254 27.9764 28.4176 27.9387 28.5325 28.0401C28.6497 28.1391 28.8608 28.059 28.9381 28.2476C29.0671 28.2382 29.1843 28.3608 29.3414 28.4127C29.393 28.5401 29.4657 28.6226 29.5477 28.5731L29.536 28.4198L29.468 28.3608C29.4235 28.3632 29.3836 28.3891 29.3414 28.4127ZM11.4494 2.94811C11.426 2.90566 11.4424 2.86085 11.4189 2.83962C11.3955 2.79952 11.501 2.74764 11.4096 2.68868C11.3627 2.64858 11.4002 2.55896 11.3931 2.47405C11.3486 2.45518 11.3251 2.43396 11.2806 2.41745C11.3228 2.39151 11.3439 2.38915 11.3838 2.36556C11.3369 2.30424 11.3298 2.21698 11.2454 2.22405C11.2361 2.09434 11.2361 2.09434 11.1634 2.01179C11.1399 1.97169 11.093 1.9316 11.0672 1.88915C10.9899 1.72169 10.8726 1.57783 10.7577 1.5C10.6429 1.42217 10.5092 1.36556 10.4131 1.24292C10.3404 1.11792 10.2232 0.997638 10.1083 0.917449C9.92539 0.801883 9.74486 0.707544 9.60652 0.566034L9.36971 0.582544C9.34392 0.542449 9.29703 0.502355 9.25014 0.462261C9.16338 0.445751 9.07898 0.474053 9.01098 0.436317C8.94533 0.419808 8.86092 0.469336 8.77652 0.476411C8.75307 0.476411 8.70852 0.457543 8.68742 0.459902C8.62411 0.464619 8.55612 0.44811 8.51626 0.474053C8.43185 0.523582 8.34745 0.528298 8.256 0.492921C8.21146 0.474053 8.14815 0.47877 8.0403 0.485846C8.04264 0.509431 8.02388 0.554242 8.02623 0.596694C7.91369 0.540091 7.81052 0.591978 7.72143 0.575468C7.64171 0.669808 7.53854 0.740562 7.40959 0.752355C7.36738 0.754713 7.34628 0.778298 7.30642 0.801883C7.11651 0.882072 6.90783 0.983487 6.72026 1.0849C6.51159 1.2099 6.30526 1.35613 6.14582 1.51886C6.08486 1.56839 6.02156 1.61556 5.98404 1.68396C5.94653 1.77358 5.86681 1.84434 5.80585 1.91509C5.85743 2.01886 5.75192 2.04952 5.71441 2.13915C5.7402 2.17924 5.74489 2.24528 5.77302 2.33018C5.70972 2.35613 5.64641 2.38207 5.562 2.4316C5.50808 2.56603 5.47525 2.72169 5.42133 2.85613C5.44477 2.875 5.46822 2.89622 5.49167 2.93632C5.45181 2.98349 5.41195 3.03066 5.39319 3.07547C5.41898 3.11556 5.42367 3.1816 5.44712 3.22169C5.47291 3.26415 5.3674 3.31603 5.4565 3.35141C5.39554 3.40094 5.42367 3.46226 5.42602 3.50707C5.40726 3.55188 5.3674 3.59669 5.3252 3.62264C5.35099 3.66509 5.37443 3.68396 5.39788 3.70518C5.32051 3.83962 5.33223 4.01415 5.40726 4.13679C5.46118 4.26415 5.44712 4.39622 5.41195 4.50707C5.52449 4.56367 5.59717 4.64386 5.62531 4.75235C5.63 4.81603 5.72144 4.85377 5.63938 4.92452C5.72613 4.93868 5.66751 5.03066 5.71675 5.09198C5.76364 5.1533 5.78944 5.21698 5.81523 5.25943C5.84102 5.29952 5.86446 5.34198 5.89026 5.40566L6.03093 5.52594C5.99576 5.63679 6.06376 5.69575 6.12941 5.71226C6.22085 5.75 6.16223 5.84198 6.23023 5.90094C6.36622 5.97877 6.50221 6.05424 6.6593 6.12971C6.68275 6.14858 6.70385 6.14858 6.72495 6.14622C6.87501 6.1132 6.86328 6.24528 6.89142 6.33018C7.05789 6.25235 7.17043 6.28773 7.31346 6.49292C7.33456 6.46934 7.33221 6.42688 7.34863 6.38207C7.40021 6.46462 7.426 6.5283 7.47289 6.58962C7.49165 6.54481 7.53151 6.49764 7.56902 6.4316C7.57371 6.49528 7.60185 6.55896 7.62998 6.66509C7.71205 6.59434 7.77066 6.52358 7.83162 6.45518C7.90196 6.51415 7.96996 6.55188 8.03795 6.6132C8.07781 6.56603 8.09657 6.52122 8.13643 6.47405C8.20677 6.5566 8.1716 6.66745 8.2818 6.6816C8.29821 6.61556 8.43185 6.66981 8.42482 6.56132C8.48812 6.53537 8.55143 6.50943 8.63349 6.4599C8.75307 6.60377 8.86796 6.41981 8.99926 6.4316C8.9805 6.47641 8.98519 6.52122 8.96643 6.56603C9.0696 6.51415 9.17511 6.46226 9.25951 6.43396L9.25014 6.30424L9.35799 6.29717C9.38378 6.33726 9.42833 6.35613 9.47522 6.41745C9.48929 6.33018 9.48694 6.28773 9.5057 6.24292L9.56901 6.2382C9.59245 6.25707 9.59714 6.29952 9.62059 6.32075L9.77065 6.30896L9.69562 6.18396C9.73548 6.13915 9.77534 6.09198 9.8363 6.04481C9.86209 6.0849 9.88788 6.12735 9.90898 6.14622C10.0332 6.05188 10.1575 5.97641 10.2794 5.87971L10.3498 5.94103C10.3427 5.85377 10.3592 5.78773 10.3545 5.72169L10.4834 5.71226C10.4834 5.69103 10.5022 5.64622 10.4998 5.625C10.5444 5.64386 10.5655 5.64151 10.5889 5.66273L10.8093 5.40566L10.8023 5.32075L10.9266 5.24528C10.95 5.26651 10.9711 5.26415 11.0157 5.28301C11.0555 5.23585 11.0766 5.21226 11.093 5.16745C11.0672 5.10377 11.0438 5.0849 11.018 5.02122L11.1915 5.00943C11.229 4.94103 11.2923 4.91273 11.3064 4.82547C11.3017 4.76179 11.3627 4.71226 11.3814 4.66745C11.4213 4.59905 11.4377 4.55424 11.4564 4.4882C11.4729 4.42217 11.4682 4.35849 11.4846 4.29245C11.4822 4.26886 11.4611 4.27122 11.4377 4.25235C11.5151 4.11556 11.6135 3.97641 11.5995 3.80424C11.5877 3.6533 11.6206 3.5 11.6745 3.34198C11.63 3.32547 11.5831 3.28537 11.5362 3.24528C11.508 3.13915 11.4776 3.03302 11.4494 2.94811ZM10.2912 2.23113C10.2724 2.25236 10.2724 2.27594 10.256 2.32075C10.2794 2.36085 10.324 2.37971 10.3709 2.41981L10.3826 2.59198C10.4342 2.67452 10.4576 2.71698 10.5069 2.7783C10.4881 2.84434 10.4506 2.91273 10.4131 3.00235C10.4365 3.02358 10.4834 3.06368 10.5092 3.10377C10.535 3.16745 10.5866 3.27122 10.5467 3.31839C10.5092 3.40801 10.5796 3.49056 10.5233 3.60377C10.4858 3.66981 10.535 3.77594 10.542 3.8632L10.3709 3.875C10.3521 3.91981 10.3334 3.96462 10.3169 4.03066C10.3404 4.05188 10.3638 4.07075 10.3638 4.09198C10.3216 4.09669 10.3216 4.09669 10.3005 4.11792C10.324 4.13915 10.3287 4.1816 10.3521 4.20283C10.2888 4.22877 10.2255 4.25471 10.1856 4.30188C10.1458 4.34905 10.1294 4.41509 10.0895 4.48349L10.1364 4.52358C10.1177 4.54481 10.0989 4.58962 10.0543 4.59434C9.90195 4.58254 9.88788 4.67217 9.89491 4.75707C9.75189 4.89858 9.63231 5.03773 9.53149 5.13207C9.40488 5.18632 9.30172 5.23585 9.17276 5.26886C9.17276 5.26886 9.14932 5.24764 9.12821 5.25C9.04615 5.29952 8.93595 5.28537 8.83044 5.31603C8.81169 5.36084 8.77417 5.42924 8.73431 5.47405C8.60067 5.44103 8.50454 5.31839 8.38496 5.45754C8.29821 5.44103 8.20677 5.3632 8.10595 5.47877C8.03326 5.375 7.92541 5.38207 7.83631 5.34669C7.79176 5.32783 7.72846 5.35377 7.64405 5.38207C7.55496 5.34669 7.45648 5.17924 7.3158 5.34198C6.97817 5.17217 6.80467 4.85849 6.56786 4.59434C6.59834 4.43867 6.50221 4.29481 6.42718 4.16981C6.40373 4.12735 6.37794 4.08726 6.37325 4.02122C6.34512 3.91509 6.31464 3.80896 6.3076 3.70047L6.28181 3.37735C6.27947 3.3349 6.25368 3.29245 6.23023 3.25C6.3076 3.13679 6.36387 3.00235 6.34981 2.83018C6.37091 2.82783 6.39435 2.82547 6.41311 2.80188C6.43421 2.80188 6.43421 2.7783 6.45532 2.7783C6.43187 2.75707 6.42952 2.73585 6.40842 2.7382C6.47173 2.71226 6.51393 2.68632 6.57489 2.63915C6.58896 2.54952 6.60303 2.44103 6.6382 2.33018C6.6593 2.32783 6.6804 2.30424 6.72026 2.28066C6.69681 2.2382 6.67337 2.21934 6.64992 2.17688L6.70854 2.10613C6.75309 2.125 6.79763 2.14386 6.86328 2.16037C6.8586 2.09669 6.87501 2.0283 6.87032 1.96462L6.99693 1.88915C7.06258 1.90802 7.12823 1.92452 7.21498 1.93868L7.19857 1.70047C7.24546 1.74056 7.29001 1.78066 7.33456 1.79952C7.35332 1.73349 7.36973 1.68868 7.40959 1.62028L7.53385 1.54481L7.60185 1.60613C7.5995 1.56368 7.61826 1.51886 7.61592 1.47405C7.69798 1.42452 7.76128 1.39858 7.84335 1.34905L7.86679 1.36792C8.08016 1.33018 8.27242 1.29481 8.53033 1.25471C8.64053 1.29009 8.77886 1.38679 8.97112 1.35141C9.03443 1.32547 9.08601 1.45047 9.16573 1.35849C9.18683 1.3349 9.27593 1.37264 9.32047 1.39151C9.32047 1.41273 9.34392 1.4316 9.34861 1.47405L9.40723 1.40566C9.43302 1.46934 9.46115 1.53301 9.50805 1.59434C9.52915 1.59198 9.52915 1.57075 9.55025 1.56839L9.73548 1.72877L9.74017 1.81603C9.85271 1.87264 9.96056 1.8632 10.0145 1.99056C10.0168 2.03302 10.1036 2.02594 10.1716 2.06603C10.2185 2.12736 10.2466 2.19103 10.2912 2.23113Z" fill="#212631"/>
</g>
</g>
</g>
</g>
</g>
<path d="M0 6.61055H3.92963V15.7049H7.66231V18.969H0V6.61055Z" fill="#174082"/>
<path d="M12.6792 9.08225H14.6393L15.6241 10.0728C16.78 9.21904 18.0906 8.78979 19.5537 8.78979C20.4728 8.78979 21.195 8.99262 21.7202 9.39357C22.2454 9.7898 22.508 10.3464 22.508 11.0634V18.969H18.5783V12.0445H17.3779C17.1012 12.0445 16.9043 12.0893 16.787 12.1766C16.6674 12.2662 16.6088 12.4077 16.6088 12.6011V18.969H12.6792V9.08225Z" fill="#174082"/>
<path d="M29.5805 16.3747C30.6684 16.3747 31.8337 16.2049 33.0787 15.8653L33.557 18.5917C32.2065 19.0374 30.7481 19.2615 29.1866 19.2615C27.4046 19.2615 26.0916 18.837 25.2476 17.9879C24.4035 17.1389 23.9814 15.8181 23.9814 14.0256C23.9814 12.2214 24.3988 10.8983 25.2382 10.0539C26.0752 9.21196 27.3906 8.78979 29.1866 8.78979C30.3917 8.78979 31.3249 8.89357 31.9814 9.10112C32.6379 9.30395 33.1068 9.64593 33.3882 10.1294C33.6695 10.6082 33.8102 11.2804 33.8102 12.1483C33.8102 12.9549 33.625 13.5964 33.2569 14.0728C32.8935 14.5445 32.3096 14.8889 31.5031 15.1011C30.6965 15.3087 29.5992 15.4124 28.2112 15.4124V16.2992C28.4855 16.3511 28.9427 16.3747 29.5805 16.3747ZM29.5617 11.6483C29.0482 11.6483 28.6942 11.7025 28.5019 11.8087C28.3073 11.9172 28.2112 12.1153 28.2112 12.403V13.4313H28.9146C29.4257 13.4313 29.7798 13.3723 29.9744 13.2521C30.1737 13.1341 30.2745 12.9172 30.2745 12.6011V11.6483H29.5617Z" fill="#174082"/>
<path d="M45.3058 18.969H43.3457L42.3609 17.9785C41.2027 18.8346 39.8944 19.2615 38.4313 19.2615C37.4044 19.2615 36.6541 19.0351 36.1804 18.5822C35.7115 18.1294 35.4771 17.403 35.4771 16.403V9.08223H39.4161V16.5917H40.6071C40.8815 16.5917 41.0784 16.5516 41.198 16.469C41.3152 16.3818 41.3762 16.2402 41.3762 16.0445V9.08223H45.3058V18.969Z" fill="#174082"/>
<path d="M53.176 8.78979C54.639 8.78979 55.7082 9.20961 56.3835 10.0445C57.0587 10.8818 57.3964 12.2096 57.3964 14.0256C57.3964 15.844 57.0587 17.1719 56.3835 18.0068C55.7082 18.844 54.639 19.2615 53.176 19.2615C52.4257 19.2615 51.7692 19.1506 51.2065 18.9313V21.9313L47.2769 22.2332V9.08225H49.237L49.9685 10.0728C50.6485 9.21904 51.7176 8.78979 53.176 8.78979ZM53.176 11.7521H51.9755C51.6871 11.7521 51.4878 11.7945 51.3753 11.8747C51.2628 11.9502 51.2065 12.0964 51.2065 12.3087V16.2992H52.4069C52.693 16.2992 52.8946 16.2615 53.0072 16.186C53.1197 16.1058 53.176 15.9572 53.176 15.7426V11.7521Z" fill="#174082"/>
</svg>
