<svg xmlns="http://www.w3.org/2000/svg" xmlns:xlink="http://www.w3.org/1999/xlink" width="777" zoomAndPan="magnify" viewBox="0 0 582.75 322.499991" height="430" preserveAspectRatio="xMidYMid meet" version="1.0"><defs><g/><clipPath id="febc4565f8"><path d="M 121 69 L 322 69 L 322 296 L 121 296 Z M 121 69 " clip-rule="nonzero"/></clipPath><clipPath id="a4edd2c3d9"><path d="M 119.753906 71.050781 L 305.703125 57.214844 L 323.371094 294.6875 L 137.421875 308.523438 Z M 119.753906 71.050781 " clip-rule="nonzero"/></clipPath><clipPath id="847a4e4f11"><path d="M 119.753906 71.050781 L 305.703125 57.214844 L 323.371094 294.6875 L 137.421875 308.523438 Z M 119.753906 71.050781 " clip-rule="nonzero"/></clipPath><clipPath id="4a44935301"><path d="M 119.753906 71.050781 L 305.550781 57.226562 L 323.230469 294.875 L 137.4375 308.699219 Z M 119.753906 71.050781 " clip-rule="nonzero"/></clipPath></defs><g fill="#174082" fill-opacity="1"><g transform="translate(75.158455, 203.953336)"><g><path d="M 7.203125 -89.9375 L 35.984375 -89.9375 L 35.984375 -23.75 L 63.3125 -23.75 L 63.3125 0 L 7.203125 0 Z M 7.203125 -89.9375 "/></g></g></g><g fill="#174082" fill-opacity="1"><g transform="translate(139.194448, 203.953336)"><g/></g></g><g fill="#174082" fill-opacity="1"><g transform="translate(167.974671, 203.953336)"><g><path d="M 7.203125 -71.953125 L 21.59375 -71.953125 L 28.78125 -64.765625 C 37.21875 -70.992188 46.8125 -74.109375 57.5625 -74.109375 C 64.28125 -74.109375 69.554688 -72.644531 73.390625 -69.71875 C 77.234375 -66.789062 79.15625 -62.738281 79.15625 -57.5625 L 79.15625 0 L 50.375 0 L 50.375 -50.375 L 41.59375 -50.375 C 39.570312 -50.375 38.128906 -50.0625 37.265625 -49.4375 C 36.410156 -48.8125 35.984375 -47.78125 35.984375 -46.34375 L 35.984375 0 L 7.203125 0 Z M 7.203125 -71.953125 "/></g></g></g><g fill="#174082" fill-opacity="1"><g transform="translate(253.595831, 203.953336)"><g><path d="M 45.328125 -18.859375 C 53.296875 -18.859375 61.835938 -20.101562 70.953125 -22.59375 L 74.40625 -2.734375 C 64.519531 0.523438 53.867188 2.15625 42.453125 2.15625 C 29.398438 2.15625 19.78125 -0.9375 13.59375 -7.125 C 7.40625 -13.3125 4.3125 -22.929688 4.3125 -35.984375 C 4.3125 -49.117188 7.378906 -58.753906 13.515625 -64.890625 C 19.660156 -71.035156 29.304688 -74.109375 42.453125 -74.109375 C 51.273438 -74.109375 58.082031 -73.363281 62.875 -71.875 C 67.675781 -70.394531 71.109375 -67.898438 73.171875 -64.390625 C 75.234375 -60.890625 76.265625 -55.972656 76.265625 -49.640625 C 76.265625 -43.796875 74.921875 -39.144531 72.234375 -35.6875 C 69.554688 -32.238281 65.265625 -29.742188 59.359375 -28.203125 C 53.460938 -26.671875 45.425781 -25.90625 35.25 -25.90625 L 35.25 -19.421875 C 37.269531 -19.046875 40.628906 -18.859375 45.328125 -18.859375 Z M 45.1875 -53.25 C 41.445312 -53.25 38.851562 -52.863281 37.40625 -52.09375 C 35.96875 -51.320312 35.25 -49.882812 35.25 -47.78125 L 35.25 -40.296875 L 40.4375 -40.296875 C 44.175781 -40.296875 46.765625 -40.726562 48.203125 -41.59375 C 49.648438 -42.457031 50.375 -44.039062 50.375 -46.34375 L 50.375 -53.25 Z M 45.1875 -53.25 "/></g></g></g><g fill="#174082" fill-opacity="1"><g transform="translate(335.619463, 203.953336)"><g><path d="M 78.421875 0 L 64.03125 0 L 56.84375 -7.203125 C 48.394531 -0.960938 38.800781 2.15625 28.0625 2.15625 C 20.582031 2.15625 15.113281 0.503906 11.65625 -2.796875 C 8.195312 -6.109375 6.46875 -11.410156 6.46875 -18.703125 L 6.46875 -71.953125 L 35.25 -71.953125 L 35.25 -17.265625 L 44.03125 -17.265625 C 46.050781 -17.265625 47.488281 -17.578125 48.34375 -18.203125 C 49.207031 -18.828125 49.640625 -19.859375 49.640625 -21.296875 L 49.640625 -71.953125 L 78.421875 -71.953125 Z M 78.421875 0 "/></g></g></g><g fill="#174082" fill-opacity="1"><g transform="translate(421.240623, 203.953336)"><g><path d="M 50.375 -74.109375 C 61.113281 -74.109375 68.953125 -71.0625 73.890625 -64.96875 C 78.835938 -58.875 81.3125 -49.210938 81.3125 -35.984375 C 81.3125 -22.742188 78.835938 -13.078125 73.890625 -6.984375 C 68.953125 -0.890625 61.113281 2.15625 50.375 2.15625 C 44.90625 2.15625 40.109375 1.34375 35.984375 -0.28125 L 35.984375 21.59375 L 7.203125 23.75 L 7.203125 -71.953125 L 21.59375 -71.953125 L 26.90625 -64.765625 C 31.894531 -70.992188 39.71875 -74.109375 50.375 -74.109375 Z M 50.375 -52.53125 L 41.59375 -52.53125 C 39.476562 -52.53125 38.015625 -52.238281 37.203125 -51.65625 C 36.390625 -51.082031 35.984375 -50.03125 35.984375 -48.5 L 35.984375 -19.421875 L 44.75 -19.421875 C 46.863281 -19.421875 48.328125 -19.707031 49.140625 -20.28125 C 49.960938 -20.863281 50.375 -21.921875 50.375 -23.453125 Z M 50.375 -52.53125 "/></g></g></g><g clip-path="url(#febc4565f8)"><g clip-path="url(#a4edd2c3d9)"><g clip-path="url(#847a4e4f11)"><g clip-path="url(#4a44935301)"><path fill="#212631" d="M 297.035156 272.855469 L 296.964844 271.910156 L 297.839844 270.894531 C 297.660156 270.59375 297.625 270.121094 297.429688 269.660156 C 297.429688 269.660156 297.105469 269.527344 296.945312 269.539062 C 296.730469 268.761719 296.503906 267.832031 296.273438 266.898438 C 296.105469 266.753906 295.777344 266.621094 295.28125 266.339844 C 294.898438 265.417969 295.636719 264.730469 295.738281 263.933594 C 295.242188 263.652344 294.746094 263.375 294.40625 263.082031 C 294.359375 262.453125 294.15625 261.835938 294.097656 261.050781 C 294.242188 260.878906 294.546875 260.699219 294.984375 260.191406 C 295.445312 260 296.222656 259.785156 297.15625 259.554688 C 296.984375 259.410156 296.972656 259.253906 296.804688 259.109375 C 297.242188 258.601562 297.605469 259.207031 297.773438 259.351562 C 301.148438 262.105469 300.480469 261.683594 300.960938 263.859375 C 300.511719 264.210938 299.699219 263.953125 299.613281 264.910156 L 300.121094 265.347656 C 300.582031 265.15625 301.199219 264.949219 301.660156 264.757812 C 302.226562 265.980469 302.34375 267.554688 302.921875 268.9375 C 303.285156 269.542969 303.183594 270.339844 303.378906 270.800781 C 303.738281 271.40625 303.945312 272.023438 304.304688 272.628906 C 305.09375 272.570312 305.351562 271.761719 305.777344 271.097656 L 306.566406 271.039062 C 307.015625 270.6875 307.464844 270.339844 307.925781 270.144531 L 309.308594 269.566406 C 309.722656 268.746094 310.632812 268.203125 311.554688 267.820312 C 311.855469 267.636719 312.339844 267.761719 312.339844 267.761719 C 312.914062 266.925781 314.027344 267 314.757812 266.15625 C 315.050781 265.820312 315.339844 265.480469 315.65625 265.457031 C 316.589844 265.230469 317.320312 264.382812 318.253906 264.15625 L 319.355469 264.074219 C 319.695312 264.367188 319.863281 264.511719 320.191406 264.644531 C 319.910156 265.140625 319.800781 265.78125 319.519531 266.277344 C 319.734375 267.050781 320.367188 267.003906 321.152344 266.945312 C 320.691406 267.140625 320.378906 267.164062 320.390625 267.320312 C 320.277344 267.960938 319.683594 268.480469 319.078125 268.839844 C 318.46875 269.203125 318.203125 269.855469 317.59375 270.21875 C 316.988281 270.578125 316.378906 270.941406 315.941406 271.449219 C 315.796875 271.617188 315.480469 271.640625 315.179688 271.820312 C 314.570312 272.183594 313.785156 272.242188 313.695312 273.195312 C 313.394531 273.378906 312.910156 273.253906 312.773438 273.582031 C 311.921875 274.910156 310.527344 275.332031 309.3125 276.054688 C 308.246094 276.609375 307.191406 277.320312 306.328125 278.492188 C 306.664062 278.78125 307.003906 279.074219 307.183594 279.375 L 307.324219 281.265625 C 308.257812 281.035156 308.339844 282.136719 309.152344 282.394531 C 309.480469 282.527344 309.539062 283.3125 309.898438 283.921875 C 311.0625 284.625 311.640625 286.003906 312.230469 287.542969 C 312.554688 287.675781 313.039062 287.800781 313.523438 287.921875 L 313.605469 289.023438 C 314.125 289.617188 314.488281 290.222656 314.839844 290.671875 C 314.691406 290.839844 314.546875 291.011719 314.414062 291.335938 C 314.59375 291.640625 314.773438 291.941406 314.808594 292.414062 C 314.652344 292.425781 314.664062 292.582031 314.507812 292.59375 C 314.3125 292.132812 313.964844 291.6875 313.769531 291.226562 L 313.296875 291.261719 C 313.46875 291.40625 313.480469 291.5625 313.660156 291.867188 C 313.695312 292.339844 313.257812 292.847656 312.648438 293.207031 C 313.144531 293.488281 313.789062 293.597656 314.285156 293.875 C 314.441406 293.863281 314.429688 293.707031 314.578125 293.539062 C 314.589844 293.695312 314.746094 293.683594 314.757812 293.839844 L 314.839844 294.941406 C 314.511719 294.808594 314.195312 294.832031 313.871094 294.699219 C 313.894531 295.011719 313.746094 295.183594 313.757812 295.339844 C 313.757812 295.339844 313.769531 295.496094 313.613281 295.507812 C 312.679688 295.738281 311.734375 295.808594 311.046875 295.066406 C 310.695312 294.617188 310.054688 294.507812 309.847656 293.890625 C 309.65625 293.429688 308.867188 293.488281 308.664062 292.871094 C 308.664062 292.871094 308.335938 292.738281 308.023438 292.761719 C 308.144531 292.277344 308.097656 291.648438 308.074219 291.332031 C 307.566406 290.894531 306.902344 290.472656 306.394531 290.035156 L 306.335938 289.246094 C 306.175781 289.257812 305.851562 289.125 305.691406 289.136719 L 305.609375 288.035156 C 305.089844 287.441406 304.257812 286.871094 304.34375 285.914062 C 304.1875 285.925781 304.015625 285.78125 303.703125 285.804688 C 303.679688 285.492188 303.496094 285.1875 303.449219 284.558594 C 303.171875 285.054688 303.035156 285.378906 302.890625 285.550781 C 302.734375 285.5625 302.722656 285.402344 302.5625 285.414062 C 302.539062 285.101562 302.6875 284.929688 302.652344 284.460938 C 301.660156 283.898438 301.394531 282.496094 299.964844 282.445312 C 299.976562 282.601562 299.84375 282.929688 299.699219 283.097656 C 299.527344 282.953125 299.371094 282.964844 299.203125 282.816406 C 298.59375 283.179688 297.820312 283.394531 297.054688 283.769531 C 297.078125 284.082031 297.101562 284.398438 296.96875 284.722656 C 296.628906 284.433594 296.300781 284.300781 295.964844 284.007812 L 296.082031 285.582031 C 295.597656 285.457031 295.425781 285.3125 295.113281 285.335938 C 294.84375 285.988281 294.574219 286.640625 294.160156 287.464844 L 293.484375 286.882812 C 293.179688 287.0625 293.023438 287.074219 292.71875 287.253906 C 292.257812 287.449219 291.480469 287.664062 291.359375 288.148438 C 291.078125 288.640625 290.617188 288.835938 290.339844 289.332031 C 289.914062 289.996094 289.136719 290.210938 288.335938 290.113281 C 287.625 289.058594 286.339844 288.835938 285.203125 288.445312 L 285.097656 287.03125 C 284.792969 287.210938 284.804688 287.367188 284.660156 287.539062 C 284.480469 287.234375 284.308594 287.089844 284.128906 286.785156 C 284.128906 286.785156 284.117188 286.628906 284.273438 286.617188 C 284.578125 286.4375 284.722656 286.269531 285.027344 286.085938 C 285.632812 285.726562 286.578125 285.65625 286.339844 284.566406 C 286.328125 284.40625 286.632812 284.226562 286.933594 284.046875 C 287.542969 283.683594 288.148438 283.324219 288.574219 282.660156 C 288.867188 282.320312 289.183594 282.296875 289.472656 281.960938 C 290.070312 281.441406 291.039062 281.683594 291.429688 280.546875 C 291.695312 279.894531 292.617188 279.511719 293.359375 278.824219 L 294.304688 278.753906 L 294.234375 277.808594 C 293.738281 277.527344 293.144531 278.046875 292.9375 277.429688 C 292.734375 276.8125 292.332031 277.792969 291.8125 277.199219 C 291.292969 276.601562 290.371094 276.988281 289.695312 276.40625 C 289.1875 275.96875 288.09375 276.207031 287.5625 275.457031 C 286.460938 275.539062 285.613281 274.8125 284.511719 274.894531 C 283.566406 274.964844 282.753906 274.707031 282.078125 274.125 C 281.738281 273.832031 281.085938 273.566406 280.601562 273.445312 C 279.65625 273.515625 278.808594 272.785156 277.851562 272.699219 C 277.695312 272.710938 277.511719 272.40625 277.34375 272.261719 C 276.703125 272.152344 276.105469 272.671875 275.585938 272.078125 C 275.441406 272.246094 275.296875 272.414062 275.136719 272.425781 C 273.976562 271.722656 272.972656 271.003906 271.8125 270.300781 C 271.507812 270.480469 270.832031 269.898438 270.078125 270.429688 C 269.242188 269.859375 268.410156 269.289062 267.417969 268.730469 C 267.257812 268.742188 266.957031 268.921875 266.640625 268.945312 C 266.15625 268.824219 265.683594 268.859375 265.355469 268.722656 C 264.027344 267.875 262.875 267.328125 261.871094 266.609375 C 261.570312 266.792969 261.265625 266.972656 261.109375 266.984375 C 260.273438 266.414062 259.011719 266.507812 258.3125 265.609375 C 258.128906 265.308594 257.5 265.355469 257.015625 265.230469 C 256.859375 265.242188 256.710938 265.414062 256.566406 265.582031 C 255.71875 264.855469 254.886719 264.28125 254.050781 263.710938 L 253.90625 263.882812 C 253.578125 263.746094 253.398438 263.445312 253.058594 263.152344 C 252.914062 263.324219 252.753906 263.335938 252.453125 263.515625 C 251.785156 263.089844 250.953125 262.519531 250.117188 261.949219 L 248.382812 262.078125 C 248.371094 261.917969 248.359375 261.761719 248.179688 261.460938 L 247.078125 261.542969 C 246.570312 261.105469 246.0625 260.667969 245.710938 260.21875 L 244.449219 260.3125 L 243.773438 259.730469 L 242.511719 259.824219 C 241.679688 259.253906 241 258.671875 240.167969 258.101562 C 240.019531 258.269531 239.875 258.4375 239.71875 258.449219 C 238.90625 258.195312 238.25 257.925781 237.441406 257.671875 C 237.441406 257.671875 237.292969 257.839844 237.136719 257.851562 L 237.078125 257.066406 C 236.265625 256.808594 235.625 256.699219 234.972656 256.429688 C 234.984375 256.589844 234.835938 256.757812 234.859375 257.070312 C 234.523438 256.78125 234.328125 256.320312 233.992188 256.027344 C 233.6875 256.210938 233.542969 256.378906 233.394531 256.546875 L 232.34375 255.203125 L 232.054688 255.539062 C 231.242188 255.285156 230.589844 255.015625 229.777344 254.761719 L 229.339844 255.269531 L 228.15625 254.25 L 227.050781 254.332031 C 226.644531 253.09375 225.214844 253.042969 224.378906 252.472656 C 222.972656 252.734375 222.113281 251.851562 220.964844 251.304688 C 220.140625 250.890625 219.320312 250.476562 218.652344 250.050781 C 218.507812 250.21875 218.203125 250.402344 218.046875 250.414062 C 217.695312 249.964844 217.515625 249.660156 217.335938 249.359375 L 215.757812 249.476562 C 215.746094 249.316406 215.578125 249.171875 215.554688 248.859375 C 215.238281 248.882812 214.753906 248.757812 214.28125 248.792969 C 214.269531 248.636719 214.257812 248.480469 214.089844 248.335938 C 213.605469 248.210938 212.972656 248.257812 212.625 247.808594 C 212.273438 247.363281 211.375 248.0625 211.011719 247.457031 C 210.796875 246.679688 209.605469 247.71875 209.695312 246.761719 C 209.199219 246.484375 208.714844 246.359375 208.21875 246.082031 C 208.207031 245.925781 208.035156 245.777344 208.023438 245.621094 C 207.066406 245.535156 206.109375 245.449219 204.996094 245.371094 C 204.984375 245.214844 204.816406 245.070312 204.792969 244.753906 L 204.003906 244.8125 L 201.972656 243.066406 C 201.195312 243.28125 200.847656 242.832031 200.640625 242.214844 C 199.671875 241.972656 198.863281 241.714844 197.894531 241.472656 L 197.789062 240.054688 C 197.269531 239.460938 196.324219 239.53125 196.398438 238.417969 C 196.242188 238.429688 196.082031 238.441406 196.09375 238.597656 C 195.960938 238.925781 195.828125 239.25 195.839844 239.410156 C 195.183594 239.140625 194.6875 238.863281 194.203125 238.738281 C 192.898438 238.203125 192.488281 236.96875 191.765625 235.757812 L 190.855469 236.300781 C 190.277344 234.917969 188.824219 234.550781 187.648438 233.691406 C 187.140625 233.253906 186.925781 232.476562 185.96875 232.390625 C 185.652344 232.414062 185.300781 231.964844 184.828125 232 C 184.199219 232.046875 183.996094 231.429688 184.105469 230.789062 C 183.609375 230.511719 182.980469 230.558594 182.921875 229.769531 C 182.277344 229.660156 181.503906 229.875 181.421875 228.773438 L 180.476562 228.84375 C 180.304688 228.699219 180.125 228.398438 179.957031 228.25 C 179.773438 227.949219 179.4375 227.65625 179.277344 227.667969 C 178.804688 227.703125 178.480469 227.570312 178.140625 227.277344 C 177.960938 226.976562 177.9375 226.660156 177.914062 226.347656 C 177.597656 226.371094 177.429688 226.222656 177.269531 226.234375 L 177.222656 225.605469 L 175.699219 224.296875 C 175.554688 224.464844 175.25 224.644531 174.949219 224.828125 L 174.40625 223.917969 C 175.132812 223.074219 174.289062 222.34375 174.070312 221.570312 C 173.609375 221.761719 173.308594 221.941406 172.847656 222.136719 L 172.742188 220.71875 L 171.046875 219.261719 L 170.417969 219.308594 C 170.527344 218.667969 170.640625 218.027344 170.582031 217.242188 C 170.109375 217.277344 169.78125 217.144531 169.464844 217.167969 L 169.394531 216.222656 C 169.082031 216.246094 168.765625 216.269531 168.597656 216.125 C 167.773438 215.710938 167.097656 215.128906 166.429688 214.703125 C 166.261719 214.558594 166.105469 214.570312 166.09375 214.410156 C 165.839844 213.164062 164.703125 212.773438 163.710938 212.214844 C 163.214844 211.9375 163.011719 211.320312 162.503906 210.882812 C 161.984375 210.289062 161.621094 209.683594 160.933594 208.941406 C 161.078125 208.773438 161.042969 208.300781 161.164062 207.816406 C 160.816406 207.367188 160.476562 207.078125 160.113281 206.472656 L 159.800781 206.496094 C 159.328125 206.53125 158.855469 206.566406 158.503906 206.117188 L 158.433594 205.171875 L 157.585938 204.445312 C 157.574219 204.289062 157.722656 204.117188 157.84375 203.632812 C 157.15625 202.894531 156.453125 201.996094 155.574219 200.796875 L 155.539062 200.324219 C 155.199219 200.035156 154.714844 199.914062 154.375 199.621094 C 154.476562 198.824219 154.597656 198.339844 154.699219 197.539062 C 154.527344 197.394531 154.191406 197.105469 153.863281 196.96875 C 153.476562 196.050781 152.945312 195.296875 152.390625 194.230469 C 152.390625 194.230469 152.539062 194.0625 152.671875 193.738281 C 152.34375 193.601562 151.847656 193.324219 151.511719 193.03125 C 151.65625 192.863281 151.644531 192.707031 151.777344 192.378906 C 151.609375 192.234375 151.292969 192.257812 151.125 192.113281 C 151.164062 190.527344 149.824219 189.519531 150.628906 187.558594 C 150.019531 187.921875 149.707031 187.945312 149.402344 188.125 C 149.488281 187.171875 148.945312 186.261719 149.519531 185.429688 L 148.46875 184.082031 C 149.378906 183.539062 148.082031 183.160156 148.363281 182.667969 C 148.789062 182.003906 148.121094 181.578125 148.074219 180.949219 C 148.039062 180.476562 147.679688 179.871094 147.484375 179.410156 C 147.484375 179.410156 147.328125 179.421875 147 179.289062 C 146.808594 178.828125 146.761719 178.199219 146.558594 177.582031 L 146.851562 177.242188 L 146.308594 176.332031 C 146.453125 176.164062 146.441406 176.007812 146.585938 175.839844 C 146.40625 175.535156 146.214844 175.074219 145.875 174.785156 L 146.167969 174.445312 C 145.625 173.535156 144.921875 172.640625 144.828125 171.382812 C 144.769531 170.59375 144.386719 169.671875 143.550781 169.101562 C 143.941406 167.964844 144.039062 167.167969 143.484375 166.101562 C 143.125 165.496094 143.378906 164.6875 143.332031 164.058594 C 142.984375 163.609375 142.632812 163.160156 142.113281 162.566406 C 142.042969 161.621094 141.816406 160.6875 142.882812 160.136719 C 142.703125 159.832031 142.363281 159.542969 142.171875 159.082031 C 141.992188 158.777344 141.640625 158.328125 141.4375 157.710938 L 141.296875 155.824219 C 141.429688 155.496094 141.734375 155.316406 142.023438 154.980469 C 141.855469 154.832031 141.84375 154.675781 141.664062 154.371094 L 142.199219 153.066406 C 141.703125 152.789062 141.195312 152.351562 140.6875 151.914062 C 140.785156 151.117188 141.867188 150.71875 141.175781 149.980469 C 141.019531 149.992188 140.851562 149.84375 140.535156 149.867188 C 140.5 149.398438 140.285156 148.621094 140.40625 148.136719 C 140.675781 147.484375 140.628906 146.855469 140.582031 146.226562 C 140.535156 145.597656 140.339844 145.136719 140.777344 144.628906 C 139.957031 144.214844 141.023438 143.664062 140.675781 143.214844 C 139.796875 144.226562 139.796875 144.226562 139.757812 145.8125 L 139.320312 146.320312 C 139.164062 146.332031 139.003906 146.34375 138.835938 146.199219 C 138.679688 146.210938 138.507812 146.0625 138.496094 145.90625 C 138.339844 145.917969 138.195312 146.085938 138.195312 146.085938 C 138.253906 146.875 137.621094 146.921875 137.171875 147.269531 C 137.5 147.40625 137.65625 147.394531 138.152344 147.671875 C 137.851562 147.855469 137.703125 148.023438 137.558594 148.191406 C 137.414062 148.359375 137.277344 148.6875 137.132812 148.855469 C 136.964844 148.710938 136.804688 148.722656 136.792969 148.566406 C 136.34375 148.914062 135.75 149.433594 135.300781 149.785156 C 135.820312 150.378906 135.066406 150.910156 135.261719 151.367188 C 134.796875 151.5625 134.179688 151.765625 133.730469 152.113281 L 133.777344 152.746094 C 133.195312 153.421875 132.925781 154.074219 132.34375 154.75 C 132.160156 154.445312 131.992188 154.300781 131.8125 154 C 131.203125 154.359375 130.753906 154.710938 130.136719 154.914062 C 128.851562 154.691406 129.21875 153.242188 128.386719 152.671875 C 129.101562 151.667969 128.269531 151.097656 127.894531 150.335938 C 128.140625 149.367188 128.53125 148.230469 128.761719 147.105469 C 129.988281 146.539062 130.886719 145.839844 131.277344 144.703125 C 131.402344 144.21875 131.851562 143.871094 131.972656 143.386719 C 132.253906 142.890625 133.015625 142.519531 132.96875 141.890625 C 133.757812 141.832031 133.855469 141.03125 134.136719 140.535156 C 134.417969 140.039062 134.855469 139.535156 135.507812 139.800781 L 135.875 138.351562 L 137.292969 138.246094 L 137.199219 136.984375 C 139.007812 135.746094 141.167969 134.949219 142.09375 132.507812 C 142.398438 132.328125 142.847656 131.976562 143.296875 131.628906 C 143.46875 131.773438 143.636719 131.917969 143.792969 131.90625 C 144.726562 131.679688 143.8125 130.007812 145.398438 130.046875 C 146.039062 130.160156 146.257812 130.933594 146.777344 131.527344 C 146.460938 131.550781 146.15625 131.730469 145.84375 131.753906 L 145.914062 132.699219 C 146.226562 132.675781 146.710938 132.796875 147.183594 132.761719 C 147.367188 133.066406 147.546875 133.367188 147.886719 133.660156 C 148.03125 133.492188 148.1875 133.480469 148.335938 133.308594 C 148.347656 133.46875 148.515625 133.613281 148.527344 133.769531 C 148.574219 134.398438 148.417969 134.410156 148.113281 134.59375 L 148.195312 135.695312 C 149.480469 135.914062 149.414062 137.183594 149.800781 138.105469 C 149.980469 138.410156 149.882812 139.207031 150.660156 138.992188 C 150.816406 138.980469 151.007812 139.4375 151.191406 139.742188 C 151.710938 140.335938 152.070312 140.941406 152.75 141.523438 L 152.820312 142.46875 C 154.65625 143.753906 155.597656 145.742188 156.996094 147.535156 C 157.167969 147.683594 157.492188 147.816406 157.820312 147.949219 L 157.890625 148.894531 L 160.261719 150.933594 C 160.136719 151.417969 160.003906 151.742188 159.882812 152.226562 C 160.5 152.023438 160.644531 151.851562 160.949219 151.671875 C 161.117188 151.816406 161.289062 151.964844 161.613281 152.097656 C 161.007812 152.457031 160.558594 152.808594 159.953125 153.171875 C 159.828125 153.652344 159.574219 154.464844 159.304688 155.117188 C 158.820312 154.996094 158.492188 154.859375 158.335938 154.871094 C 156.21875 154.082031 155.277344 152.09375 153.597656 150.796875 L 153.550781 150.167969 L 153.378906 150.019531 C 153.164062 149.246094 151.960938 150.125 152.050781 149.171875 C 151.429688 149.375 151.359375 148.429688 150.730469 148.476562 C 150.574219 148.488281 150.222656 148.039062 150.210938 147.882812 C 149.984375 146.949219 149.316406 146.527344 148.785156 145.773438 L 148 145.832031 C 148.191406 146.292969 148.226562 146.765625 148.429688 147.382812 C 147.980469 147.734375 147.679688 147.914062 147.386719 148.25 C 147.714844 148.386719 148.039062 148.519531 148.535156 148.800781 C 148.390625 148.96875 148.402344 149.125 148.257812 149.292969 L 148.59375 149.585938 C 148.460938 149.910156 148.15625 150.09375 147.867188 150.429688 C 148.226562 151.035156 148.734375 151.472656 149.097656 152.078125 C 148.976562 152.5625 148.851562 153.046875 148.886719 153.519531 L 149.144531 156.980469 C 149.167969 157.292969 149.023438 157.464844 148.886719 157.789062 C 149.070312 158.09375 149.417969 158.542969 149.601562 158.84375 C 149.488281 159.484375 149.535156 160.113281 149.425781 160.757812 C 149.304688 161.238281 149.351562 161.867188 149.238281 162.511719 C 149.410156 162.65625 149.746094 162.945312 149.929688 163.25 C 149.792969 163.574219 149.660156 163.902344 149.671875 164.058594 C 150.191406 164.652344 149.945312 165.621094 150.296875 166.070312 C 150.648438 166.519531 150.523438 167.003906 150.71875 167.460938 C 150.898438 167.765625 151.089844 168.226562 150.796875 168.5625 C 150.652344 168.734375 150.992188 169.023438 151.015625 169.339844 L 152.066406 170.683594 C 151.929688 171.011719 151.785156 171.179688 151.652344 171.507812 C 152.160156 171.941406 152.679688 172.535156 152.578125 173.335938 C 153.257812 173.917969 152.695312 174.910156 153.203125 175.34375 C 153.734375 176.097656 153.46875 176.75 153.355469 177.390625 C 153.550781 177.851562 153.742188 178.3125 153.921875 178.613281 C 153.824219 179.414062 153.859375 179.882812 153.75 180.527344 C 155.089844 181.535156 155.039062 182.960938 155.15625 184.535156 C 155.3125 184.523438 155.472656 184.511719 155.796875 184.644531 C 156.050781 185.890625 156.3125 187.296875 156.574219 188.699219 C 156.742188 188.84375 157.226562 188.96875 157.566406 189.257812 L 157.128906 189.765625 C 157.988281 190.652344 158.382812 191.730469 158.625 192.820312 C 159.121094 193.097656 159.445312 193.230469 160.113281 193.65625 C 159.988281 194.140625 159.867188 194.625 159.757812 195.265625 C 160.253906 195.546875 160.90625 195.8125 161.402344 196.09375 L 161.546875 195.921875 C 161.378906 195.777344 161.367188 195.621094 161.027344 195.328125 C 161.671875 195.441406 161.996094 195.574219 162.324219 195.707031 C 162.179688 195.875 162.03125 196.046875 162.042969 196.203125 C 162.371094 196.335938 162.550781 196.640625 162.878906 196.773438 L 161.96875 197.316406 C 161.980469 197.472656 161.992188 197.628906 162.160156 197.777344 C 162.667969 198.214844 163.335938 198.636719 163.550781 199.414062 C 163.765625 200.1875 164.433594 200.613281 164.941406 201.050781 C 165.628906 201.789062 166.171875 202.699219 166.558594 203.621094 C 166.253906 203.800781 165.949219 203.980469 165.660156 204.320312 C 166.15625 204.597656 166.480469 204.730469 166.808594 204.867188 C 167.246094 204.359375 167.730469 204.480469 168.371094 204.589844 C 168.238281 204.917969 168.09375 205.085938 167.957031 205.414062 C 168.285156 205.546875 168.441406 205.535156 168.757812 205.511719 L 168.816406 206.296875 L 169.492188 206.882812 C 169.371094 207.363281 169.394531 207.679688 169.285156 208.320312 C 169.746094 208.128906 170.046875 207.949219 170.351562 207.765625 L 170.859375 208.203125 L 170.941406 209.304688 C 171.097656 209.292969 171.257812 209.28125 171.425781 209.425781 C 172.394531 209.671875 173.070312 210.253906 173.601562 211.003906 C 174.980469 212.484375 176.371094 214.121094 177.917969 215.746094 C 177.769531 215.914062 177.625 216.085938 177.492188 216.410156 C 177.804688 216.386719 177.964844 216.375 178.449219 216.496094 C 179.113281 216.921875 179.800781 217.664062 180.175781 218.425781 C 180.539062 219.03125 181.046875 219.46875 181.699219 219.738281 C 182.363281 220.160156 183.03125 220.585938 183.402344 221.351562 C 183.585938 221.652344 183.777344 222.113281 184.105469 222.246094 C 185.582031 222.929688 186.328125 224.453125 187.660156 225.304688 L 188.289062 225.257812 C 188.808594 225.851562 189.632812 226.265625 190.164062 227.015625 C 190.523438 227.621094 191.054688 228.375 192.136719 227.976562 C 192.484375 228.425781 193.003906 229.019531 193.511719 229.457031 C 194.019531 229.894531 194.6875 230.320312 195.351562 230.742188 C 195.847656 231.023438 196.355469 231.460938 196.851562 231.738281 L 196.910156 232.527344 C 197.214844 232.34375 197.527344 232.320312 197.832031 232.140625 L 197.902344 233.085938 C 198.21875 233.0625 198.542969 233.195312 199.015625 233.160156 C 198.894531 233.644531 198.601562 233.984375 198.480469 234.464844 L 198.988281 234.902344 C 199.28125 234.566406 199.414062 234.238281 199.695312 233.742188 C 200.203125 234.179688 201.269531 233.625 201.507812 234.714844 C 202.464844 234.800781 202.839844 235.566406 203.203125 236.171875 C 204.523438 236.863281 205.828125 237.398438 207.304688 238.082031 C 207.304688 238.082031 207.292969 237.921875 207.453125 237.910156 L 209.652344 239.804688 C 210.160156 240.242188 210.65625 240.519531 211.285156 240.472656 C 211.757812 240.4375 212.242188 240.5625 212.570312 240.695312 C 213.382812 240.953125 214.179688 241.050781 214.871094 241.789062 C 215.378906 242.226562 216.1875 242.484375 216.820312 242.4375 C 217.460938 242.546875 217.652344 243.007812 217.847656 243.464844 C 218.488281 243.578125 219.277344 243.519531 219.929688 243.785156 C 220.414062 243.910156 220.910156 244.1875 221.25 244.480469 C 221.757812 244.917969 222.265625 245.351562 223.027344 244.980469 C 224.492188 245.503906 225.789062 245.882812 227.132812 246.890625 C 227.132812 246.890625 227.144531 247.046875 227.3125 247.191406 C 227.007812 247.371094 226.71875 247.710938 226.257812 247.902344 L 226.269531 248.0625 C 226.753906 248.183594 227.394531 248.292969 227.878906 248.414062 L 228.023438 248.246094 C 228.023438 248.246094 228.011719 248.089844 227.855469 248.101562 C 227.84375 247.945312 227.6875 247.957031 227.675781 247.796875 C 228.136719 247.605469 228.441406 247.425781 228.902344 247.230469 C 229.566406 247.65625 230.378906 247.914062 231.042969 248.339844 L 231.335938 248 C 232.15625 248.414062 232.835938 248.996094 233.667969 249.566406 L 234.929688 249.472656 C 235.109375 249.777344 235.4375 249.910156 235.617188 250.210938 L 236.878906 250.117188 L 238.402344 251.429688 L 239.820312 251.324219 C 240.328125 251.761719 240.824219 252.039062 241.660156 252.609375 L 243.234375 252.492188 C 243.246094 252.652344 243.414062 252.796875 243.4375 253.109375 C 243.753906 253.085938 244.070312 253.0625 244.554688 253.1875 C 245.207031 253.453125 245.871094 253.878906 246.695312 254.292969 C 246.707031 254.449219 247.046875 254.742188 247.226562 255.042969 C 248.261719 254.019531 248.984375 255.230469 249.785156 255.328125 C 250.121094 255.621094 250.304688 255.921875 250.484375 256.226562 C 251.539062 255.515625 251.699219 255.503906 253.402344 257.117188 L 254.820312 257.011719 C 254.832031 257.167969 255.011719 257.472656 255.023438 257.628906 C 256.285156 257.535156 257.433594 258.082031 258.160156 259.292969 C 258.460938 259.113281 258.609375 258.945312 258.753906 258.773438 C 260.183594 258.828125 260.785156 260.523438 262.507812 260.234375 C 262.84375 260.527344 263.195312 260.976562 263.546875 261.425781 C 263.847656 261.242188 263.996094 261.074219 264.296875 260.894531 C 265.414062 260.96875 265.796875 261.890625 266.488281 262.628906 C 266.632812 262.460938 266.949219 262.4375 267.09375 262.265625 C 268.523438 262.320312 269.832031 262.855469 270.871094 264.042969 C 271.175781 263.863281 271.320312 263.691406 271.332031 263.851562 C 272.894531 263.574219 273.632812 264.945312 275.050781 264.839844 C 276.054688 265.554688 277.3125 265.460938 278.609375 265.839844 C 278.960938 266.289062 279.320312 266.894531 279.683594 267.5 C 280.144531 267.308594 280.59375 266.957031 281.054688 266.765625 L 282.070312 267.640625 C 283.511719 267.847656 284.953125 268.058594 286.136719 269.078125 L 287.871094 268.949219 C 288.875 269.664062 290.28125 269.402344 291.128906 270.128906 C 291.976562 270.859375 293.515625 270.269531 294.09375 271.648438 C 295.039062 271.578125 295.898438 272.464844 297.035156 272.855469 C 297.421875 273.773438 297.941406 274.367188 298.546875 274.007812 L 298.464844 272.90625 L 297.957031 272.46875 C 297.640625 272.492188 297.339844 272.671875 297.035156 272.855469 Z M 166.148438 87.371094 C 165.96875 87.070312 166.101562 86.742188 165.933594 86.597656 C 165.75 86.292969 166.515625 85.921875 165.851562 85.496094 C 165.511719 85.203125 165.78125 84.550781 165.734375 83.921875 C 165.40625 83.789062 165.238281 83.644531 164.910156 83.507812 C 165.214844 83.328125 165.371094 83.316406 165.675781 83.136719 C 165.324219 82.6875 165.277344 82.058594 164.648438 82.105469 C 164.578125 81.160156 164.578125 81.160156 164.058594 80.566406 C 163.875 80.265625 163.539062 79.972656 163.355469 79.671875 C 162.789062 78.445312 161.921875 77.402344 161.085938 76.832031 C 160.25 76.261719 159.269531 75.859375 158.570312 74.964844 C 158.027344 74.054688 157.167969 73.167969 156.335938 72.597656 C 155.003906 71.75 153.683594 71.054688 152.65625 70.023438 L 150.925781 70.152344 C 150.742188 69.851562 150.40625 69.558594 150.066406 69.269531 C 149.425781 69.15625 148.804688 69.363281 148.308594 69.082031 C 147.824219 68.960938 147.21875 69.320312 146.585938 69.367188 C 146.429688 69.378906 146.101562 69.246094 145.945312 69.257812 C 145.472656 69.292969 144.988281 69.171875 144.683594 69.351562 C 144.078125 69.714844 143.449219 69.761719 142.792969 69.492188 C 142.46875 69.359375 141.996094 69.394531 141.207031 69.453125 C 141.21875 69.609375 141.085938 69.9375 141.109375 70.25 C 140.285156 69.839844 139.519531 70.210938 138.878906 70.101562 C 138.296875 70.777344 137.542969 71.308594 136.597656 71.378906 C 136.28125 71.402344 136.136719 71.570312 135.832031 71.75 C 134.449219 72.328125 132.921875 73.074219 131.550781 73.808594 C 130.03125 74.714844 128.527344 75.773438 127.347656 76.96875 C 126.898438 77.320312 126.449219 77.667969 126.167969 78.164062 C 125.902344 78.816406 125.304688 79.335938 124.867188 79.84375 C 125.242188 80.605469 124.464844 80.824219 124.199219 81.476562 C 124.378906 81.777344 124.414062 82.25 124.617188 82.867188 C 124.15625 83.0625 123.695312 83.253906 123.089844 83.613281 C 122.6875 84.59375 122.453125 85.71875 122.050781 86.699219 C 122.21875 86.84375 122.390625 86.988281 122.570312 87.292969 C 122.277344 87.628906 121.988281 87.96875 121.851562 88.292969 C 122.035156 88.597656 122.070312 89.070312 122.25 89.371094 C 122.429688 89.675781 121.667969 90.050781 122.320312 90.316406 C 121.871094 90.667969 122.0625 91.125 122.085938 91.441406 C 121.953125 91.769531 121.660156 92.105469 121.359375 92.285156 C 121.539062 92.589844 121.707031 92.734375 121.878906 92.882812 C 121.316406 93.871094 121.410156 95.128906 121.953125 96.039062 C 122.339844 96.960938 122.25 97.914062 121.996094 98.726562 C 122.816406 99.140625 123.335938 99.734375 123.554688 100.507812 C 123.589844 100.980469 124.242188 101.246094 123.648438 101.765625 C 124.289062 101.878906 123.863281 102.542969 124.214844 102.988281 C 124.5625 103.4375 124.757812 103.898438 124.9375 104.203125 C 125.117188 104.503906 125.300781 104.808594 125.492188 105.269531 L 126.507812 106.140625 C 126.25 106.953125 126.757812 107.386719 127.242188 107.511719 C 127.898438 107.777344 127.472656 108.441406 127.980469 108.878906 C 128.972656 109.4375 129.964844 109.996094 131.113281 110.546875 C 131.28125 110.691406 131.441406 110.679688 131.597656 110.667969 C 132.6875 110.429688 132.601562 111.382812 132.804688 112 C 134.03125 111.433594 134.84375 111.691406 135.90625 113.195312 C 136.050781 113.023438 136.027344 112.710938 136.160156 112.382812 C 136.523438 112.988281 136.714844 113.449219 137.066406 113.898438 C 137.199219 113.574219 137.492188 113.234375 137.773438 112.738281 C 137.808594 113.210938 138 113.671875 138.214844 114.445312 C 138.8125 113.925781 139.25 113.421875 139.6875 112.914062 C 140.195312 113.351562 140.691406 113.628906 141.199219 114.066406 C 141.492188 113.726562 141.625 113.402344 141.917969 113.0625 C 142.4375 113.65625 142.179688 114.46875 142.980469 114.566406 C 143.101562 114.082031 144.082031 114.484375 144.023438 113.699219 C 144.484375 113.503906 144.945312 113.3125 145.550781 112.953125 C 146.421875 113.992188 147.273438 112.664062 148.230469 112.75 C 148.097656 113.078125 148.121094 113.394531 147.984375 113.71875 C 148.75 113.347656 149.515625 112.972656 150.132812 112.769531 L 150.0625 111.824219 L 150.851562 111.765625 C 151.03125 112.070312 151.359375 112.203125 151.710938 112.652344 C 151.820312 112.011719 151.796875 111.695312 151.929688 111.371094 L 152.402344 111.335938 C 152.574219 111.480469 152.597656 111.792969 152.765625 111.941406 L 153.867188 111.859375 L 153.324219 110.949219 C 153.617188 110.609375 153.910156 110.273438 154.359375 109.921875 C 154.539062 110.226562 154.71875 110.527344 154.890625 110.675781 C 155.789062 109.976562 156.699219 109.433594 157.597656 108.734375 L 158.105469 109.167969 C 158.058594 108.539062 158.179688 108.058594 158.144531 107.585938 L 159.089844 107.515625 C 159.078125 107.355469 159.214844 107.03125 159.203125 106.875 C 159.527344 107.007812 159.6875 106.996094 159.855469 107.140625 L 161.460938 105.28125 L 161.414062 104.652344 L 162.324219 104.109375 C 162.492188 104.253906 162.648438 104.242188 162.976562 104.378906 C 163.269531 104.039062 163.414062 103.871094 163.546875 103.542969 C 163.355469 103.082031 163.1875 102.9375 162.992188 102.476562 L 164.253906 102.382812 C 164.535156 101.890625 164.996094 101.695312 165.105469 101.054688 C 165.070312 100.582031 165.519531 100.234375 165.65625 99.90625 C 165.933594 99.410156 166.070312 99.085938 166.191406 98.601562 C 166.3125 98.117188 166.277344 97.644531 166.402344 97.160156 C 166.390625 97.003906 166.230469 97.015625 166.0625 96.871094 C 166.621094 95.878906 167.339844 94.878906 167.246094 93.617188 C 167.164062 92.515625 167.398438 91.394531 167.789062 90.257812 C 167.460938 90.121094 167.121094 89.832031 166.785156 89.539062 C 166.566406 88.765625 166.351562 87.988281 166.148438 87.371094 Z M 157.679688 82.148438 C 157.53125 82.316406 157.542969 82.476562 157.410156 82.800781 C 157.589844 83.105469 157.917969 83.238281 158.257812 83.53125 L 158.351562 84.789062 C 158.710938 85.394531 158.894531 85.699219 159.242188 86.144531 C 159.121094 86.628906 158.839844 87.125 158.574219 87.777344 C 158.742188 87.921875 159.082031 88.214844 159.261719 88.515625 C 159.453125 88.976562 159.828125 89.742188 159.535156 90.078125 C 159.269531 90.730469 159.789062 91.324219 159.375 92.148438 C 159.09375 92.644531 159.46875 93.40625 159.515625 94.035156 L 158.253906 94.128906 C 158.117188 94.457031 157.984375 94.78125 157.863281 95.265625 C 158.03125 95.410156 158.199219 95.558594 158.210938 95.714844 C 157.898438 95.738281 157.898438 95.738281 157.75 95.90625 C 157.921875 96.050781 157.945312 96.367188 158.113281 96.511719 C 157.652344 96.707031 157.191406 96.898438 156.898438 97.234375 C 156.609375 97.574219 156.484375 98.058594 156.207031 98.554688 L 156.542969 98.84375 C 156.398438 99.011719 156.265625 99.339844 155.949219 99.363281 C 154.835938 99.289062 154.722656 99.929688 154.769531 100.558594 C 153.738281 101.585938 152.863281 102.597656 152.121094 103.285156 C 151.199219 103.671875 150.433594 104.046875 149.5 104.273438 C 149.5 104.273438 149.332031 104.128906 149.175781 104.140625 C 148.566406 104.5 147.769531 104.402344 146.992188 104.617188 C 146.859375 104.945312 146.578125 105.441406 146.285156 105.777344 C 145.316406 105.535156 144.617188 104.636719 143.742188 105.652344 C 143.097656 105.539062 142.421875 104.957031 141.691406 105.804688 C 141.160156 105.050781 140.375 105.109375 139.71875 104.84375 C 139.394531 104.707031 138.933594 104.902344 138.3125 105.105469 C 137.660156 104.835938 136.9375 103.625 135.914062 104.808594 C 133.445312 103.570312 132.167969 101.289062 130.441406 99.363281 C 130.671875 98.238281 129.960938 97.183594 129.417969 96.273438 C 129.238281 95.972656 129.054688 95.667969 129.019531 95.195312 C 128.804688 94.421875 128.589844 93.648438 128.53125 92.859375 L 128.355469 90.5 C 128.332031 90.1875 128.148438 89.882812 127.96875 89.578125 C 128.542969 88.746094 128.945312 87.765625 128.851562 86.507812 C 129.007812 86.496094 129.164062 86.484375 129.3125 86.316406 C 129.46875 86.304688 129.457031 86.148438 129.613281 86.136719 C 129.445312 85.988281 129.433594 85.832031 129.277344 85.84375 C 129.738281 85.652344 130.039062 85.472656 130.488281 85.121094 C 130.601562 84.480469 130.699219 83.683594 130.957031 82.871094 C 131.113281 82.859375 131.257812 82.691406 131.5625 82.511719 C 131.382812 82.207031 131.210938 82.0625 131.03125 81.757812 L 131.46875 81.25 C 131.796875 81.386719 132.121094 81.519531 132.605469 81.640625 C 132.570312 81.167969 132.695312 80.6875 132.660156 80.214844 L 133.570312 79.671875 C 134.054688 79.792969 134.539062 79.914062 135.179688 80.027344 L 135.050781 78.296875 C 135.390625 78.585938 135.730469 78.878906 136.054688 79.011719 C 136.179688 78.527344 136.3125 78.203125 136.59375 77.707031 L 137.503906 77.164062 L 138.011719 77.601562 C 137.988281 77.285156 138.121094 76.960938 138.097656 76.644531 C 138.703125 76.285156 139.164062 76.089844 139.773438 75.730469 L 139.941406 75.875 C 141.507812 75.601562 142.914062 75.335938 144.792969 75.039062 C 145.601562 75.296875 146.605469 76.011719 148.011719 75.75 C 148.472656 75.558594 148.859375 76.476562 149.441406 75.800781 C 149.589844 75.632812 150.242188 75.898438 150.570312 76.035156 C 150.582031 76.191406 150.75 76.335938 150.773438 76.652344 L 151.210938 76.144531 C 151.402344 76.605469 151.597656 77.066406 151.945312 77.511719 C 152.105469 77.5 152.09375 77.34375 152.25 77.332031 L 153.605469 78.496094 L 153.652344 79.125 C 154.472656 79.539062 155.261719 79.480469 155.648438 80.402344 C 155.671875 80.714844 156.300781 80.667969 156.796875 80.949219 C 157.148438 81.398438 157.339844 81.859375 157.679688 82.148438 Z M 157.679688 82.148438 " fill-opacity="1" fill-rule="nonzero"/></g></g></g></g></svg>