<?xml version="1.0" encoding="UTF-8" standalone="no"?>
<!-- Created with Inkscape (http://www.inkscape.org/) -->

<svg
   xmlns:dc="http://purl.org/dc/elements/1.1/"
   xmlns:cc="http://creativecommons.org/ns#"
   xmlns:rdf="http://www.w3.org/1999/02/22-rdf-syntax-ns#"
   xmlns:svg="http://www.w3.org/2000/svg"
   xmlns="http://www.w3.org/2000/svg"
   xmlns:xlink="http://www.w3.org/1999/xlink"
   xmlns:sodipodi="http://sodipodi.sourceforge.net/DTD/sodipodi-0.dtd"
   xmlns:inkscape="http://www.inkscape.org/namespaces/inkscape"
   width="138.28889mm"
   height="138.28889mm"
   viewBox="0 0 490.00002 490.00002"
   id="svg5068"
   version="1.1"
   inkscape:version="0.91 r13725"
   sodipodi:docname="Professional Regulation Commission (PRC).svg">
  <title
     id="title7730">Professional Regulation Commission (PRC) , Philippines</title>
  <defs
     id="defs5070">
    <defs
       id="defs5432">
      <polygon
         id="SVGID_1_"
         points="354.2,381 124.9,380.3 124.9,101.3 354.2,102 " />
    </defs>
    <clipPath
       id="SVGID_2_">
      <use
         xlink:href="#SVGID_1_"
         overflow="visible"
         id="use5436"
         style="overflow:visible"
         x="0"
         y="0"
         width="100%"
         height="100%" />
    </clipPath>
    <defs
       id="defs5440">
      <polygon
         points="126.5,98.8 354.2,101.8 354.2,381 126.5,378 "
         id="SVGID_3_" />
    </defs>
    <clipPath
       id="SVGID_4_">
      <use
         height="100%"
         width="100%"
         y="0"
         x="0"
         style="overflow:visible"
         id="use5444"
         overflow="visible"
         xlink:href="#SVGID_3_" />
    </clipPath>
    <clipPath
       id="SVGID_4_-1">
      <use
         height="100%"
         width="100%"
         y="0"
         x="0"
         style="overflow:visible"
         id="use5444-4"
         overflow="visible"
         xlink:href="#SVGID_3_" />
    </clipPath>
    <clipPath
       id="SVGID_4_-3">
      <use
         height="100%"
         width="100%"
         y="0"
         x="0"
         style="overflow:visible"
         id="use5444-8"
         overflow="visible"
         xlink:href="#SVGID_3_" />
    </clipPath>
    <defs
       id="defs5432-0">
      <polygon
         points="354.2,381 124.9,380.3 124.9,101.3 354.2,102 "
         id="SVGID_1_-4" />
    </defs>
    <clipPath
       id="SVGID_2_-6">
      <use
         height="100%"
         width="100%"
         y="0"
         x="0"
         style="overflow:visible"
         id="use5436-2"
         overflow="visible"
         xlink:href="#SVGID_1_-4" />
    </clipPath>
    <defs
       id="defs5440-4">
      <polygon
         id="SVGID_3_-4"
         points="126.5,98.8 354.2,101.8 354.2,381 126.5,378 " />
    </defs>
    <clipPath
       id="SVGID_4_-19">
      <use
         xlink:href="#SVGID_3_-4"
         overflow="visible"
         id="use5444-6"
         style="overflow:visible"
         x="0"
         y="0"
         width="100%"
         height="100%" />
    </clipPath>
    <defs
       id="defs5432-6">
      <polygon
         points="124.9,101.3 354.2,102 354.2,381 124.9,380.3 "
         id="SVGID_1_-0" />
    </defs>
    <clipPath
       id="SVGID_2_-2">
      <use
         height="100%"
         width="100%"
         y="0"
         x="0"
         style="overflow:visible"
         id="use5436-7"
         overflow="visible"
         xlink:href="#SVGID_1_-0" />
    </clipPath>
    <defs
       id="defs5440-2">
      <polygon
         id="SVGID_3_-2"
         points="354.2,381 126.5,378 126.5,98.8 354.2,101.8 " />
    </defs>
    <clipPath
       id="SVGID_4_-15">
      <use
         xlink:href="#SVGID_3_-2"
         overflow="visible"
         id="use5444-9"
         style="overflow:visible"
         x="0"
         y="0"
         width="100%"
         height="100%" />
    </clipPath>
    <clipPath
       id="SVGID_4_-1-8">
      <use
         xlink:href="#SVGID_3_-2"
         overflow="visible"
         id="use5444-4-7"
         style="overflow:visible"
         x="0"
         y="0"
         width="100%"
         height="100%" />
    </clipPath>
    <clipPath
       id="SVGID_4_-3-7">
      <use
         xlink:href="#SVGID_3_-2"
         overflow="visible"
         id="use5444-8-2"
         style="overflow:visible"
         x="0"
         y="0"
         width="100%"
         height="100%" />
    </clipPath>
    <clipPath
       id="SVGID_4_-1-9">
      <use
         height="100%"
         width="100%"
         y="0"
         x="0"
         style="overflow:visible"
         id="use5444-4-4"
         overflow="visible"
         xlink:href="#SVGID_3_" />
    </clipPath>
    <clipPath
       id="SVGID_4_-1-99">
      <use
         height="100%"
         width="100%"
         y="0"
         x="0"
         style="overflow:visible"
         id="use5444-4-9"
         overflow="visible"
         xlink:href="#SVGID_3_" />
    </clipPath>
    <clipPath
       id="SVGID_4_-1-99-5">
      <use
         height="100%"
         width="100%"
         y="0"
         x="0"
         style="overflow:visible"
         id="use5444-4-9-1"
         overflow="visible"
         xlink:href="#SVGID_3_" />
    </clipPath>
  </defs>
  <sodipodi:namedview
     id="base"
     pagecolor="#ffffff"
     bordercolor="#666666"
     borderopacity="1.0"
     inkscape:pageopacity="0.0"
     inkscape:pageshadow="2"
     inkscape:zoom="0.7"
     inkscape:cx="462.99954"
     inkscape:cy="260.57855"
     inkscape:document-units="px"
     inkscape:current-layer="layer1"
     showgrid="false"
     inkscape:snap-object-midpoints="true"
     inkscape:snap-center="true"
     showguides="false"
     fit-margin-top="0"
     fit-margin-left="0"
     fit-margin-right="0"
     fit-margin-bottom="0"
     inkscape:window-width="1366"
     inkscape:window-height="705"
     inkscape:window-x="-4"
     inkscape:window-y="-4"
     inkscape:window-maximized="1" />
  <metadata
     id="metadata5073">
    <rdf:RDF>
      <cc:Work
         rdf:about="">
        <dc:format>image/svg+xml</dc:format>
        <dc:type
           rdf:resource="http://purl.org/dc/dcmitype/StillImage" />
        <dc:title>Professional Regulation Commission (PRC) , Philippines</dc:title>
      </cc:Work>
    </rdf:RDF>
  </metadata>
  <g
     inkscape:label="Layer 1"
     inkscape:groupmode="layer"
     id="layer1"
     transform="translate(-19.979401,-469.9375)">
    <g
       id="g7646"
       transform="matrix(0.85964912,0,0,0.85964912,2.8041264,134.72807)">
      <circle
         r="285"
         cy="674.9375"
         cx="304.9794"
         id="path7277-6"
         style="color:#000000;clip-rule:nonzero;display:inline;overflow:visible;visibility:visible;opacity:1;isolation:auto;mix-blend-mode:normal;color-interpolation:sRGB;color-interpolation-filters:linearRGB;solid-color:#000000;solid-opacity:1;fill:#d4af37;fill-opacity:1;fill-rule:evenodd;stroke:none;stroke-width:4;stroke-linecap:butt;stroke-linejoin:round;stroke-miterlimit:4;stroke-dasharray:none;stroke-dashoffset:0;stroke-opacity:1;color-rendering:auto;image-rendering:auto;shape-rendering:auto;text-rendering:auto;enable-background:accumulate" />
      <circle
         r="275"
         cy="674.9375"
         cx="304.9794"
         id="path7277-91"
         style="color:#000000;clip-rule:nonzero;display:inline;overflow:visible;visibility:visible;opacity:1;isolation:auto;mix-blend-mode:normal;color-interpolation:sRGB;color-interpolation-filters:linearRGB;solid-color:#000000;solid-opacity:1;fill:#ffffff;fill-opacity:1;fill-rule:evenodd;stroke:none;stroke-width:4;stroke-linecap:butt;stroke-linejoin:round;stroke-miterlimit:4;stroke-dasharray:none;stroke-dashoffset:0;stroke-opacity:1;color-rendering:auto;image-rendering:auto;shape-rendering:auto;text-rendering:auto;enable-background:accumulate" />
      <circle
         r="220"
         cy="674.26428"
         cx="303.39505"
         id="path7277-9"
         style="color:#000000;clip-rule:nonzero;display:inline;overflow:visible;visibility:visible;opacity:1;isolation:auto;mix-blend-mode:normal;color-interpolation:sRGB;color-interpolation-filters:linearRGB;solid-color:#000000;solid-opacity:1;fill:#d4af37;fill-opacity:1;fill-rule:evenodd;stroke:none;stroke-width:4;stroke-linecap:butt;stroke-linejoin:round;stroke-miterlimit:4;stroke-dasharray:none;stroke-dashoffset:0;stroke-opacity:1;color-rendering:auto;image-rendering:auto;shape-rendering:auto;text-rendering:auto;enable-background:accumulate" />
      <circle
         r="207.99998"
         cy="674.26416"
         cx="303.39694"
         id="path7277"
         style="color:#000000;clip-rule:nonzero;display:inline;overflow:visible;visibility:visible;opacity:1;isolation:auto;mix-blend-mode:normal;color-interpolation:sRGB;color-interpolation-filters:linearRGB;solid-color:#000000;solid-opacity:1;fill:#0038a8;fill-opacity:1;fill-rule:evenodd;stroke:#000000;stroke-width:4;stroke-linecap:butt;stroke-linejoin:round;stroke-miterlimit:4;stroke-dasharray:none;stroke-dashoffset:0;stroke-opacity:1;color-rendering:auto;image-rendering:auto;shape-rendering:auto;text-rendering:auto;enable-background:accumulate" />
      <path
         sodipodi:nodetypes="cccccccccc"
         inkscape:connector-curvature="0"
         id="path5105"
         transform="translate(0,308.26772)"
         d="m 326.27594,347.64202 c -13.72371,-0.0924 -30.38124,0.7316 -43.30721,0.97716 l -20.70703,23.48633 6.6914,17.42578 8.33399,10.48047 25.254,5.30214 26.746,-5.30214 8.33398,-10.48047 6.69336,-17.42578 z"
         style="fill:#cfb53b;fill-opacity:1;fill-rule:evenodd;stroke:#ce1126;stroke-width:2;stroke-linecap:butt;stroke-linejoin:miter;stroke-miterlimit:4;stroke-dasharray:none;stroke-opacity:1" />
      <path
         id="path5087"
         transform="translate(0,308.26772)"
         d="m 335.88672,389.77148 c -0.88096,0.0218 -1.7874,0.32768 -2.45703,0.85547 -1.40209,1.1051 -1.04332,3.63479 -2.41016,4.78321 -10.75174,7.18246 -25.80677,-3.52634 -28.21094,10.85742 -2.49801,-14.11871 -17.47428,-3.52688 -28.18164,-10.67969 -1.36684,-1.14842 -1.00806,-3.67615 -2.41015,-4.78125 -0.89284,-0.70373 -2.20567,-1.01431 -3.31836,-0.78125 -2.39698,0.79813 -3.70444,3.04614 -3.05274,5.34375 0.33386,1.11108 1.30343,1.95511 2.1836,2.71094 1.07646,0.92439 3.67968,2.13867 3.67968,2.13867 l 14.22657,6.16992 c 0,0 9.07624,3.02635 12.8164,5.8711 1.66428,1.26584 4.04102,4.79687 4.04102,4.79687 0.0162,-0.14578 0.024,-0.27247 0.0391,-0.41602 0.009,0.0827 0.0122,0.15487 0.0215,0.23829 0,0 2.37673,-3.53299 4.04101,-4.79883 3.74016,-2.84475 12.81641,-5.8711 12.81641,-5.8711 l 14.22656,-6.16796 c 0,0 2.60518,-1.21429 3.68164,-2.13868 0.88017,-0.75583 1.84973,-1.59985 2.18359,-2.71093 0.6517,-2.29761 -0.65575,-4.54758 -3.05273,-5.34571 -0.27817,-0.0583 -0.56963,-0.0815 -0.86328,-0.0742 z"
         style="fill:#cfb53b;fill-opacity:1;fill-rule:evenodd;stroke:#ce1126;stroke-width:2;stroke-linecap:butt;stroke-linejoin:bevel;stroke-miterlimit:4;stroke-dasharray:none;stroke-opacity:1"
         inkscape:connector-curvature="0" />
      <path
         sodipodi:nodetypes="ccccsccccccccccccccccc"
         inkscape:connector-curvature="0"
         id="path5123"
         transform="translate(0,308.26772)"
         d="m 309.79102,353.70117 c -4.33658,0.29527 -8.962,0.0841 -13.05865,0.0957 -2.74766,-1e-5 -5.17773,9.09179 -5.17773,9.09179 l -4.41797,0.125 c 0,0 -1.51539,-5.38323 -3.66211,-5.30273 l -10.10156,0.3789 c -2.82305,0.10586 -3.53516,7.70313 -3.53516,7.70313 l -4.16797,-0.25391 -3.91406,-5.42968 c 0,0 -3.50631,-2.23136 -7.82813,0.88476 -0.52957,4.9171 5.30274,17.29883 5.30274,17.29883 29.71983,-0.96748 59.23398,-1.088 88.93359,-1.48438 0,0 5.37705,-12.58602 4.66797,-17.48047 -4.43291,-2.95595 -7.85742,-0.59765 -7.85742,-0.59765 l -3.71289,4.67745 -4.33287,0.0472 c 0,0 -0.81085,-6.31584 -3.63588,-6.31836 l -10.10938,-0.01 c -2.14823,-0.002 -3.46484,5.43555 -3.46484,5.43555 l -4.42187,0.0352 c 0,0 -2.76004,-8.997 -5.50586,-8.89649 z"
         style="fill:#cfb53b;fill-opacity:1;fill-rule:evenodd;stroke:#ce1126;stroke-width:2;stroke-linecap:butt;stroke-linejoin:round;stroke-miterlimit:4;stroke-dasharray:none;stroke-opacity:1" />
      <path
         sodipodi:nodetypes="cacccccscaccaacccccaaaaaaccc"
         inkscape:connector-curvature="0"
         id="path7019"
         d="m 296.29464,655.44255 c 0,0 -1.17728,-2.14431 -2.1875,-2.72321 -4.5941,-2.63262 -11.26089,0.004 -15.71428,-2.32142 -4.42235,-2.50314 -9.35729,-6.39995 -10.08929,-11.42858 -1.26122,-9.77111 12.33515,-10.98174 11.37818,-18.87627 1.57162,2.03065 1.73841,3.50611 1.29857,6.02996 2.31852,0.51014 2.55728,-4.05705 3.84115,-6.08226 3.92188,-7.53061 10.83715,-7.07638 18.03571,-8.75 1.83341,-0.42626 4.64286,-3.21428 4.64286,-3.21428 0,0 1.42105,-1.02701 1.78571,-1.78572 0.46699,-0.97162 0.35715,-3.21428 0.35715,-3.21428 l 0.53571,1.69643 c 0,0 0.50346,1.79855 0.22322,2.63392 -0.37536,1.11892 -1.7347,1.63681 -2.36608,2.63393 -0.53522,0.84526 -1.16071,2.76786 -1.16071,2.76786 11.36241,-0.87355 21.6797,2.29776 18.48214,18.08036 0,0 2.25454,-0.65964 2.85715,-1.5625 1.71725,-3.41852 -0.41909,-7.24809 -0.22322,-10.35715 0.13504,-1.61803 2.14286,-4.99999 2.14286,-4.99999 0,0 -0.86137,3.09102 -0.66964,4.64285 0.19721,1.59617 0.93149,3.13059 1.83035,4.46428 1.52323,2.2601 4.3613,3.43013 5.84822,5.71429 1.74171,2.67555 3.69095,5.79916 3.34821,8.97321 -0.30976,2.86862 -2.56061,5.32711 -4.6875,7.27679 -2.25715,2.0691 -5.20946,3.35004 -8.125,4.28572 -3.56086,1.14278 -7.55578,0.37331 -11.11607,1.51785 -2.66817,0.78368 -3.83016,2.05527 -5.3125,4.19643 z"
         style="fill:#ce1126;fill-opacity:1;fill-rule:evenodd;stroke:#000000;stroke-width:0.1;stroke-linecap:butt;stroke-linejoin:miter;stroke-miterlimit:4;stroke-dasharray:none;stroke-opacity:1" />
      <path
         sodipodi:nodetypes="caaasacasc"
         inkscape:connector-curvature="0"
         id="path7021"
         d="m 278.67584,628.54008 c 0,0 -3.76383,3.43177 -4.54569,5.74524 -0.76824,2.27317 -0.92924,5.04247 0.12627,7.19733 1.093,2.23141 3.52191,3.69938 5.80837,4.67196 2.75272,1.17091 5.68092,1.10846 8.90197,1.13642 2.03584,0.0177 2.81889,1.50525 4.35629,1.51523 0.86513,0.006 2.46224,-0.82075 2.46224,-0.82075 0,0 -2.0971,-0.003 -2.96734,-0.50154 -0.73944,-0.42398 -0.23875,-1.90958 -1.64148,-1.9607 -0.89845,-0.0327 -19.72189,-0.38768 -12.50063,-16.98319 z"
         style="fill:#fcd116;fill-opacity:1;fill-rule:evenodd;stroke:none;stroke-width:0.1;stroke-linecap:butt;stroke-linejoin:miter;stroke-miterlimit:4;stroke-dasharray:none;stroke-opacity:1" />
      <path
         sodipodi:nodetypes="caaaccaaaac"
         inkscape:connector-curvature="0"
         id="path7023"
         d="m 286.31511,626.70917 c 0,0 -0.74153,2.28504 -0.50507,3.40927 0.59368,2.82261 2.75752,5.11175 4.60882,7.3236 1.02309,1.22234 2.79617,1.80771 3.53553,3.21986 0.59087,1.12855 0.50508,3.78808 0.50508,3.78808 l 3.21986,-1.57837 c 0,0 -0.79146,-0.19865 -1.01015,-0.50507 -0.55501,-0.77766 0.0113,-1.96892 -0.37881,-2.84106 -1.42595,-3.18806 -5.35249,-4.78512 -6.81853,-7.95495 -0.39359,-0.85101 0.0377,-1.97227 -0.44194,-2.77792 -0.58354,-0.98014 -2.71479,-2.08344 -2.71479,-2.08344 z"
         style="fill:#fcd116;fill-opacity:1;fill-rule:evenodd;stroke:none;stroke-width:0.1;stroke-linecap:butt;stroke-linejoin:miter;stroke-miterlimit:4;stroke-dasharray:none;stroke-opacity:1" />
      <path
         sodipodi:nodetypes="caaaacacsc"
         inkscape:connector-curvature="0"
         id="path7025"
         d="m 295.91156,613.45092 c 0,0 0.54889,0.89883 0.37881,1.32583 -0.4434,1.11321 -2.21426,1.01689 -3.09359,1.8309 -1.64093,1.51905 -2.98072,3.43299 -3.85121,5.4927 -0.52541,1.2432 -1.04384,2.65852 -0.75761,3.97748 0.22414,1.03282 1.8309,2.58851 1.8309,2.58851 0,0 1.62371,-2.55313 2.08344,-3.97747 0.50279,-1.55778 -0.0242,-3.39067 0.69448,-4.86136 0.96506,-2.27452 4.3185,-2.89241 5.11389,-5.3033 0.27448,-0.83197 -2.39911,-1.07329 -2.39911,-1.07329 z"
         style="fill:#fcd116;fill-opacity:1;fill-rule:evenodd;stroke:none;stroke-width:0.1;stroke-linecap:butt;stroke-linejoin:miter;stroke-miterlimit:4;stroke-dasharray:none;stroke-opacity:1" />
      <path
         sodipodi:nodetypes="caaccaaac"
         inkscape:connector-curvature="0"
         id="path7027"
         d="m 296.54291,618.05974 c 0,0 1.29602,0.50547 1.32582,1.07329 0.0484,0.92135 -1.49851,1.15664 -1.95717,1.95717 -0.24868,0.43404 -0.37881,1.45209 -0.37881,1.45209 l 0.12627,1.19956 c 0,0 -1.41875,-1.49015 -1.32582,-2.39911 0.0789,-0.77207 0.90351,-1.29015 1.51523,-1.76777 0.29673,-0.23168 0.86281,-0.15865 1.01015,-0.50508 0.13807,-0.32463 -0.31567,-1.01015 -0.31567,-1.01015 z"
         style="fill:#fcd116;fill-opacity:1;fill-rule:evenodd;stroke:none;stroke-width:0.1;stroke-linecap:butt;stroke-linejoin:miter;stroke-miterlimit:4;stroke-dasharray:none;stroke-opacity:1" />
      <path
         sodipodi:nodetypes="csccaasc"
         inkscape:connector-curvature="0"
         id="path7029"
         d="m 297.48993,625.32022 c 0,0 5.58559,2.99636 6.31345,6.81852 0.61345,3.2214 -1.28543,6.51815 -1.01016,9.78586 0.16729,1.9878 1.04351,3.55935 2.08345,5.17703 0,0 -3.64987,-0.71438 -4.48256,-2.14658 -1.9406,-3.33777 1.06811,-7.70064 0.82075,-11.55362 -0.0849,-1.32321 0.0492,-2.28066 -0.78693,-3.89919 -1.02282,-1.97999 -2.938,-4.18202 -2.938,-4.18202 z"
         style="fill:#fcd116;fill-opacity:1;fill-rule:evenodd;stroke:none;stroke-width:0.1;stroke-linecap:butt;stroke-linejoin:miter;stroke-miterlimit:4;stroke-dasharray:none;stroke-opacity:1" />
      <path
         sodipodi:nodetypes="caaaacaaaac"
         inkscape:connector-curvature="0"
         id="path7031"
         d="m 299.88904,623.86812 c 0,0 2.53237,-2.63425 4.16688,-2.58852 3.18654,0.0892 6.36846,2.65903 7.82868,5.49271 1.31107,2.54424 0.94478,5.90744 -0.0631,8.58629 -0.64626,1.7177 -3.32012,2.3529 -3.59866,4.16689 -0.15308,0.99693 1.19955,2.77791 1.19955,2.77791 0,0 -3.09872,-0.62964 -3.4724,-1.89403 -0.72595,-2.45631 3.1338,-4.24907 3.66181,-6.7554 0.42657,-2.02481 0.46159,-4.3576 -0.50508,-6.18718 -0.85983,-1.62737 -2.566,-2.83633 -4.29314,-3.47241 -1.54088,-0.56747 -4.92454,-0.12626 -4.92454,-0.12626 z"
         style="fill:#fcd116;fill-opacity:1;fill-rule:evenodd;stroke:none;stroke-width:0.1;stroke-linecap:butt;stroke-linejoin:miter;stroke-miterlimit:4;stroke-dasharray:none;stroke-opacity:1" />
      <path
         sodipodi:nodetypes="caaaaaacaaaaac"
         inkscape:connector-curvature="0"
         id="path7033"
         d="m 307.71772,619.4487 c 0,0 1.58498,-1.69434 2.65165,-1.95717 1.34381,-0.33112 2.85859,0.0271 4.10374,0.63135 1.9424,0.94258 3.82287,2.46257 4.7351,4.41941 1.35344,2.90327 1.45357,6.53686 0.50507,9.59645 -0.60449,1.94991 -2.27399,3.42529 -3.72494,4.86136 -0.74787,0.7402 -2.30194,0.8658 -2.52538,1.89404 -0.16798,0.77303 1.13642,2.08344 1.13642,2.08344 0,0 -2.45446,-1.08319 -2.58851,-2.20971 -0.24571,-2.06493 2.65986,-3.22855 3.6618,-5.05076 0.79647,-1.44853 1.72522,-2.95914 1.8309,-4.60882 0.12497,-1.95091 -0.44106,-4.00895 -1.45209,-5.68211 -0.74751,-1.23706 -1.93147,-2.2491 -3.21986,-2.90419 -1.5526,-0.78942 -5.1139,-1.07329 -5.1139,-1.07329 z"
         style="fill:#fcd116;fill-opacity:1;fill-rule:evenodd;stroke:none;stroke-width:0.1;stroke-linecap:butt;stroke-linejoin:miter;stroke-miterlimit:4;stroke-dasharray:none;stroke-opacity:1" />
      <path
         sodipodi:nodetypes="ccccasaaac"
         inkscape:connector-curvature="0"
         id="path7035"
         d="m 331.70884,630.0553 c 0,0 1.70378,4.1685 1.13643,6.18719 -0.77748,7.22206 -16.87237,9.68014 -17.42514,11.55362 -0.055,0.51984 1.19956,1.01015 1.19956,1.01015 0,0 -2.063,0.0986 -2.96732,-0.31568 -0.41962,-0.19222 -1.14886,-0.50679 -1.01016,-0.94701 1.27647,-4.05134 12.66136,-5.03444 16.54125,-10.2278 0.57444,-0.76891 0.20905,-1.99035 0.75762,-2.77792 0.41388,-0.5942 1.43641,-0.61881 1.76776,-1.26269 0.49112,-0.95433 0,-3.21986 0,-3.21986 z"
         style="fill:#fcd116;fill-opacity:1;fill-rule:evenodd;stroke:none;stroke-width:0.1;stroke-linecap:butt;stroke-linejoin:miter;stroke-miterlimit:4;stroke-dasharray:none;stroke-opacity:1" />
      <ellipse
         transform="matrix(0.99956074,-0.02963653,0.02726564,0.99962822,0,0)"
         ry="197.08473"
         rx="97.326836"
         cy="683.68146"
         cx="286.46423"
         id="path7211"
         style="color:#000000;clip-rule:nonzero;display:inline;overflow:visible;visibility:visible;opacity:1;isolation:auto;mix-blend-mode:normal;color-interpolation:sRGB;color-interpolation-filters:linearRGB;solid-color:#000000;solid-opacity:1;fill:none;fill-opacity:1;fill-rule:evenodd;stroke:#ffffff;stroke-width:8.00001144;stroke-linecap:butt;stroke-linejoin:round;stroke-miterlimit:4;stroke-dasharray:none;stroke-dashoffset:0;stroke-opacity:1;color-rendering:auto;image-rendering:auto;shape-rendering:auto;text-rendering:auto;enable-background:accumulate" />
      <path
         sodipodi:nodetypes="sssas"
         inkscape:connector-curvature="0"
         id="path7258"
         d="m 435.71428,529.50506 c 32.15943,30.47181 -29.81253,145.75712 -89.99999,202.14286 -49.54024,46.41104 -146.99284,119.42681 -180.00001,82.85714 -35.20773,-39.00774 36.14603,-148.56706 87.14287,-200.71429 46.92583,-47.98438 145.49438,-119.6878 182.85713,-84.28571 z"
         style="fill:none;fill-rule:evenodd;stroke:#ffffff;stroke-width:8;stroke-linecap:butt;stroke-linejoin:miter;stroke-miterlimit:4;stroke-dasharray:none;stroke-opacity:1" />
      <ellipse
         cx="280.19257"
         cy="677.79657"
         rx="195.95184"
         ry="73.66703"
         transform="matrix(0.99931158,-0.03709937,0.03420175,0.99941495,0,0)"
         id="path7260"
         style="color:#000000;clip-rule:nonzero;display:inline;overflow:visible;visibility:visible;opacity:1;isolation:auto;mix-blend-mode:normal;color-interpolation:sRGB;color-interpolation-filters:linearRGB;solid-color:#000000;solid-opacity:1;fill:none;fill-opacity:1;fill-rule:evenodd;stroke:#ffffff;stroke-width:8.00001717;stroke-linecap:butt;stroke-linejoin:round;stroke-miterlimit:4;stroke-dasharray:none;stroke-dashoffset:0;stroke-opacity:1;color-rendering:auto;image-rendering:auto;shape-rendering:auto;text-rendering:auto;enable-background:accumulate" />
      <path
         sodipodi:nodetypes="sssas"
         inkscape:connector-curvature="0"
         id="path7258-1"
         d="m 165.1761,539.49041 c -28.81871,32.61052 39.30761,145.91392 103.09934,195.85476 52.50691,41.10625 152.79397,105.30739 181.91221,66.65664 C 481.24719,760.77425 404.63929,658.40642 351.03329,610.52738 301.56775,566.34646 198.65761,501.60356 165.1761,539.49041 Z"
         style="fill:none;fill-rule:evenodd;stroke:#ffffff;stroke-width:8;stroke-linecap:butt;stroke-linejoin:miter;stroke-miterlimit:4;stroke-dasharray:none;stroke-opacity:1" />
      <path
         sodipodi:open="true"
         d="m 77.874777,716.85611 a 229.50699,229.50699 0 0 1 103.538203,-236.99819 229.50699,229.50699 0 0 1 258.43924,9.87209 229.50699,229.50699 0 0 1 85.15675,244.20612"
         sodipodi:end="0.26302236"
         sodipodi:start="2.9549309"
         sodipodi:ry="229.50699"
         sodipodi:rx="229.50699"
         sodipodi:cy="674.26428"
         sodipodi:cx="303.39505"
         sodipodi:type="arc"
         id="path7277-68"
         style="color:#000000;clip-rule:nonzero;display:inline;overflow:visible;visibility:visible;opacity:1;isolation:auto;mix-blend-mode:normal;color-interpolation:sRGB;color-interpolation-filters:linearRGB;solid-color:#000000;solid-opacity:1;fill:none;fill-opacity:1;fill-rule:evenodd;stroke:none;stroke-width:0.98602533;stroke-linecap:butt;stroke-linejoin:round;stroke-miterlimit:4;stroke-dasharray:none;stroke-dashoffset:0;stroke-opacity:1;color-rendering:auto;image-rendering:auto;shape-rendering:auto;text-rendering:auto;enable-background:accumulate" />
      <path
         d="m 56.579831,-772.64864 a 266.92661,266.92661 0 0 1 257.558459,-169.05829 266.92661,266.92661 0 0 1 245.35723,186.3247 L 304.9794,-674.9375 Z"
         sodipodi:end="5.977052"
         sodipodi:start="3.5163642"
         sodipodi:ry="266.92661"
         sodipodi:rx="266.92661"
         sodipodi:cy="-674.9375"
         sodipodi:cx="304.9794"
         sodipodi:type="arc"
         transform="scale(1,-1)"
         id="path7277-68-7"
         style="color:#000000;clip-rule:nonzero;display:inline;overflow:visible;visibility:visible;opacity:1;isolation:auto;mix-blend-mode:normal;color-interpolation:sRGB;color-interpolation-filters:linearRGB;solid-color:#000000;solid-opacity:1;fill:none;fill-opacity:1;fill-rule:evenodd;stroke:none;stroke-width:1.14679039;stroke-linecap:butt;stroke-linejoin:round;stroke-miterlimit:4;stroke-dasharray:none;stroke-dashoffset:0;stroke-opacity:1;color-rendering:auto;image-rendering:auto;shape-rendering:auto;text-rendering:auto;enable-background:accumulate" />
      <g
         id="text7501"
         style="font-style:normal;font-variant:normal;font-weight:bold;font-stretch:normal;font-size:25px;line-height:125%;font-family:'Swis721 BT';-inkscape-font-specification:'Swis721 BT, Bold';text-align:start;letter-spacing:0px;word-spacing:0px;writing-mode:lr-tb;text-anchor:start;fill:#000000;fill-opacity:1;stroke:none;stroke-width:1px;stroke-linecap:butt;stroke-linejoin:miter;stroke-opacity:1">
        <path
           id="path7582"
           style="font-style:normal;font-variant:normal;font-weight:bold;font-stretch:condensed;font-size:46.25px;font-family:'Swis721 Cn BT';-inkscape-font-specification:'Swis721 Cn BT Bold Condensed'"
           d="m 56.93431,710.34778 -0.356654,-2.68639 q -0.398263,-2.9998 -1.722859,-4.05412 -1.346983,-1.05136 -4.190078,-0.6739 -2.865482,0.38043 -3.813818,1.64539 -0.973696,1.24555 -0.560572,4.35729 l 0.368542,2.77593 10.275439,-1.3642 z m 20.21005,3.62723 -34.475327,4.57706 -1.480113,-11.14852 q -0.677641,-5.10414 1.308578,-7.64595 1.986219,-2.54181 7.179905,-3.23134 5.104139,-0.67765 7.929452,1.38484 2.799954,2.04307 3.450847,6.94573 l 0.621171,4.6788 14.618435,-1.94079 0.847052,6.38017 z"
           inkscape:connector-curvature="0" />
        <path
           id="path7584"
           style="font-style:normal;font-variant:normal;font-weight:bold;font-stretch:condensed;font-size:46.25px;font-family:'Swis721 Cn BT';-inkscape-font-specification:'Swis721 Cn BT Bold Condensed'"
           d="m 53.923468,683.06572 -0.07014,-3.72553 q -0.05314,-2.82238 -1.202497,-3.88491 -1.149781,-1.08512 -4.062473,-1.03028 -2.596586,0.0489 -3.612689,1.26514 -1.016102,1.21624 -0.956585,4.3773 l 0.05994,3.18364 9.844447,-0.18536 z m 20.190496,5.87645 -34.77167,0.6547 -0.218513,-11.60561 q -0.09905,-5.26091 2.002589,-7.60436 2.078639,-2.3656 6.910546,-2.45657 3.386851,-0.0638 5.374606,1.14109 1.965177,1.20528 2.34935,3.61486 1.132541,-4.62907 7.699206,-4.956 0.293527,-0.006 0.45158,-0.009 l 4.602716,-0.26736 q 1.962673,-0.1273 3.151708,-0.55625 1.166456,-0.42853 2.008304,-1.30269 l 0.144542,7.67686 q -0.87548,0.28753 -2.047038,0.44511 -1.194136,0.15801 -3.36087,0.24398 l -3.63352,0.15876 -0.925739,0.0174 q -3.025587,0.057 -4.130305,1.36523 -1.104718,1.30825 -1.030322,5.25958 l 0.04166,2.21274 15.263408,-0.28738 0.11776,6.25438 z"
           inkscape:connector-curvature="0" />
        <path
           id="path7586"
           style="font-style:normal;font-variant:normal;font-weight:bold;font-stretch:condensed;font-size:46.25px;font-family:'Swis721 Cn BT';-inkscape-font-specification:'Swis721 Cn BT Bold Condensed'"
           d="m 57.227105,654.5852 q 8.539568,0.84774 10.86251,0.0798 2.3027,-0.79264 2.570408,-3.48934 0.263247,-2.65176 -1.798189,-3.83225 -2.081677,-1.20519 -10.711135,-2.06186 -8.629457,-0.85666 -10.929926,-0.0865 -2.30047,0.77016 -2.565947,3.4444 -0.265478,2.67423 1.838672,3.88165 2.10415,1.20742 10.733607,2.06409 z m -0.653654,6.58445 q -5.505774,-0.54657 -8.735455,-1.38915 -3.252153,-0.84481 -4.805807,-2.11105 -2.210147,-1.73991 -3.013938,-3.93024 -0.80379,-2.19034 -0.464693,-5.60617 0.339097,-3.41582 1.557836,-5.40538 1.218738,-1.98956 3.730057,-3.28344 1.817228,-0.93161 5.147299,-1.1003 3.332303,-0.19115 8.815604,0.35319 5.460829,0.54211 8.712982,1.38692 3.229681,0.84258 4.830511,2.09081 2.207916,1.76238 3.011707,3.95272 0.80379,2.19033 0.464693,5.60616 -0.339098,3.41583 -1.557836,5.40538 -1.218739,1.98956 -3.727826,3.26098 -1.772283,0.93606 -5.104586,1.12722 -3.354775,0.18893 -8.860548,-0.35765 z"
           inkscape:connector-curvature="0" />
        <path
           id="path7588"
           style="font-style:normal;font-variant:normal;font-weight:bold;font-stretch:condensed;font-size:46.25px;font-family:'Swis721 Cn BT';-inkscape-font-specification:'Swis721 Cn BT Bold Condensed'"
           d="m 77.077698,635.17786 -34.03153,-7.16607 3.745901,-17.78921 5.568796,1.17263 -2.410406,11.44697 8.043816,1.6938 2.27546,-10.80611 5.436206,1.14471 -2.27546,10.80611 14.982712,3.15493 -1.335495,6.34224 z"
           inkscape:connector-curvature="0" />
        <path
           id="path7590"
           style="font-style:normal;font-variant:normal;font-weight:bold;font-stretch:condensed;font-size:46.25px;font-family:'Swis721 Cn BT';-inkscape-font-specification:'Swis721 Cn BT Bold Condensed'"
           d="m 82.011095,613.13376 -33.155156,-10.4992 5.392773,-17.0297 5.511506,1.74533 -3.449738,10.89383 7.664439,2.42709 3.21112,-10.14031 5.253154,1.66351 -3.21112,10.14031 9.128433,2.89069 3.53155,-11.15219 5.597623,1.7726 -5.474584,17.28804 z"
           inkscape:connector-curvature="0" />
        <path
           id="path7592"
           style="font-style:normal;font-variant:normal;font-weight:bold;font-stretch:condensed;font-size:46.25px;font-family:'Swis721 Cn BT';-inkscape-font-specification:'Swis721 Cn BT Bold Condensed'"
           d="m 77.718592,587.03622 2.594089,-5.93955 2.048834,0.89483 q 2.938732,1.28349 4.33124,1.02916 1.380851,-0.28406 2.167213,-2.08455 0.822516,-1.88327 0.295348,-3.27173 -0.518129,-1.40915 -2.380705,-2.22263 -1.427976,-0.62366 -2.74032,-0.38361 -1.33304,0.23101 -3.941523,1.80248 l -3.480991,2.10219 q -4.44912,2.73901 -6.698925,3.03784 -2.240766,0.27813 -4.931154,-0.89689 -4.014888,-1.75349 -5.251927,-5.1277 -1.237039,-3.37421 0.588766,-7.55466 1.934269,-4.4288 5.386023,-5.73054 3.451755,-1.30174 7.984024,0.67772 0.455297,0.19885 0.694602,0.32801 0.248343,0.10846 0.425562,0.21051 l -2.458509,5.62912 -0.848507,-0.37059 q -2.586912,-1.12983 -4.075043,-0.76941 -1.48813,0.36042 -2.337762,2.30578 -0.623666,1.42798 -0.136704,2.62637 0.475305,1.16867 1.965366,1.81945 2.007444,0.87675 6.049328,-1.71976 l 0.06851,-0.044 3.642502,-2.30272 q 3.845403,-2.48518 6.45725,-2.82303 2.591153,-0.3469 5.778229,1.04505 4.346012,1.89812 5.620639,5.41196 1.274627,3.51384 -0.74099,8.12889 -2.096964,4.80131 -5.610804,6.07593 -3.504802,1.25394 -8.595845,-0.96957 -0.538077,-0.235 -1.74364,-0.8601 l -0.124172,-0.0542 z"
           inkscape:connector-curvature="0" />
        <path
           id="path7594"
           style="font-style:normal;font-variant:normal;font-weight:bold;font-stretch:condensed;font-size:46.25px;font-family:'Swis721 Cn BT';-inkscape-font-specification:'Swis721 Cn BT Bold Condensed'"
           d="m 88.723361,562.66206 3.232745,-5.61756 1.937763,1.11513 q 2.779416,1.59948 4.191468,1.50013 1.403743,-0.13018 2.383703,-1.83306 1.02502,-1.78118 0.65405,-3.21926 -0.35971,-1.45766 -2.121311,-2.47142 -1.350562,-0.77721 -2.681366,-0.68322 -1.350377,0.0827 -4.11613,1.35721 l -3.691426,1.70583 q -4.723828,2.2321 -6.992861,2.28122 -2.257768,0.0295 -4.802305,-1.43476 -3.797231,-2.1852 -4.65495,-5.67517 -0.857718,-3.48997 1.417594,-7.44379 2.410479,-4.1887 5.984649,-5.10218 3.574169,-0.91348 7.860735,1.55332 0.430614,0.2478 0.65423,0.40254 0.23488,0.13517 0.399777,0.25612 l -3.063787,5.32395 -0.802507,-0.46182 q -2.44667,-1.40799 -3.965452,-1.21373 -1.518782,0.19425 -2.577591,2.03415 -0.77721,1.35056 -0.425259,2.59531 0.343641,1.21392 1.752923,2.02492 1.898615,1.0926 6.201986,-1.04274 l 0.07294,-0.0362 3.874049,-1.88735 q 4.095818,-2.04634 6.728989,-2.09435 2.613598,-0.0593 5.627893,1.67537 4.11041,2.36543 4.9901,5.99832 0.87969,3.63289 -1.63216,7.99774 -2.61323,4.54102 -6.246122,5.42072 -3.621626,0.86011 -8.436672,-1.91081 -0.508907,-0.29286 -1.638253,-1.04699 l -0.11744,-0.0676 z"
           inkscape:connector-curvature="0" />
        <path
           id="path7596"
           style="font-style:normal;font-variant:normal;font-weight:bold;font-stretch:condensed;font-size:46.25px;font-family:'Swis721 Cn BT';-inkscape-font-specification:'Swis721 Cn BT Bold Condensed'"
           d="m 112.73686,546.4511 -28.616724,-19.76312 3.683127,-5.33312 28.616717,19.76312 -3.68312,5.33312 z"
           inkscape:connector-curvature="0" />
        <path
           id="path7598"
           style="font-style:normal;font-variant:normal;font-weight:bold;font-stretch:condensed;font-size:46.25px;font-family:'Swis721 Cn BT';-inkscape-font-specification:'Swis721 Cn BT Bold Condensed'"
           d="m 110.09124,520.58061 q 6.61469,5.46705 8.97102,6.12545 2.35331,0.62661 4.07975,-1.46225 1.69767,-2.05403 0.64523,-4.18369 -1.05547,-2.16145 -7.73979,-7.68605 -6.68432,-5.5246 -9.02325,-6.16862 -2.33892,-0.64401 -4.05097,1.42744 -1.71205,2.07144 -0.63918,4.24728 1.07287,2.17583 7.75719,7.70044 z m -4.21539,5.10027 q -4.26474,-3.52481 -6.475271,-6.02567 -2.227942,-2.51525 -2.811104,-4.43284 -0.863817,-2.6769 -0.309146,-4.94318 0.55467,-2.26627 2.741492,-4.91215 2.186819,-2.64588 4.308129,-3.61732 2.12131,-0.97145 4.92737,-0.6445 2.0279,0.24047 4.88585,1.95801 2.87234,1.70014 7.11967,5.21056 4.22992,3.49604 6.45786,6.01129 2.21054,2.50086 2.8429,4.42981 0.84943,2.69432 0.29476,4.96059 -0.55467,2.26628 -2.74149,4.91216 -2.18682,2.64587 -4.30813,3.61732 -2.12131,0.97144 -4.91298,0.62709 -1.99309,-0.21169 -4.86543,-1.91183 -2.88974,-1.71452 -7.15448,-5.23934 z"
           inkscape:connector-curvature="0" />
        <path
           id="path7600"
           style="font-style:normal;font-variant:normal;font-weight:bold;font-stretch:condensed;font-size:46.25px;font-family:'Swis721 Cn BT';-inkscape-font-specification:'Swis721 Cn BT Bold Condensed'"
           d="m 137.3199,515.47065 -23.97339,-25.19472 4.82626,-4.59231 23.32625,11.37753 -16.89669,-17.49541 4.43362,-4.21869 23.97339,25.19472 -4.79354,4.56117 -23.40647,-11.36354 16.92783,17.52813 -4.41726,4.20312 z"
           inkscape:connector-curvature="0" />
        <path
           id="path7602"
           style="font-style:normal;font-variant:normal;font-weight:bold;font-stretch:condensed;font-size:46.25px;font-family:'Swis721 Cn BT';-inkscape-font-specification:'Swis721 Cn BT Bold Condensed'"
           d="m 154.5656,481.5594 4.40225,-3.31406 -10.9933,-9.98454 6.59105,13.2986 z m 0.96051,16.74586 -14.65607,-32.49776 6.94618,-5.22917 27.23137,23.03094 -5.57499,4.19692 -6.62752,-5.95002 -5.95387,4.48214 3.92122,7.98736 -5.28632,3.97959 z"
           inkscape:connector-curvature="0" />
        <path
           id="path7604"
           style="font-style:normal;font-variant:normal;font-weight:bold;font-stretch:condensed;font-size:46.25px;font-family:'Swis721 Cn BT';-inkscape-font-specification:'Swis721 Cn BT Bold Condensed'"
           d="m 178.00183,481.86055 -17.9219,-29.80442 5.55446,-3.33999 14.87285,24.73379 10.02512,-6.02827 3.04905,5.07062 -15.57958,9.36827 z"
           inkscape:connector-curvature="0" />
        <path
           id="path7606"
           style="font-style:normal;font-variant:normal;font-weight:bold;font-stretch:condensed;font-size:46.25px;font-family:'Swis721 Cn BT';-inkscape-font-specification:'Swis721 Cn BT Bold Condensed'"
           d="m 206.15659,444.35455 3.45529,-1.39481 q 2.61765,-1.05667 3.20016,-2.5095 0.60344,-1.46127 -0.48704,-4.16268 -0.97214,-2.40823 -2.47088,-2.9235 -1.49874,-0.51526 -4.4305,0.66821 l -2.95271,1.19193 3.68568,9.13035 z m 1.71436,20.95828 -13.01822,-32.24939 10.76376,-4.34505 q 4.87929,-1.96963 7.81836,-0.84247 2.95156,1.09777 4.76059,5.57918 1.26801,3.14118 0.85169,5.42799 -0.42478,2.26588 -2.53868,3.48451 4.72848,-0.59367 7.37689,5.42413 0.10989,0.27224 0.16906,0.41883 l 1.89202,4.20437 q 0.81921,1.78806 1.64418,2.74579 0.81652,0.93678 1.93351,1.41131 l -7.11999,2.87415 q -0.58098,-0.71526 -1.1462,-1.75348 -0.57368,-1.05916 -1.42709,-3.05261 l -1.44476,-3.33771 -0.34658,-0.85859 q -1.13276,-2.80612 -2.74907,-3.37133 -1.61632,-0.56522 -5.28102,0.91412 l -2.05224,0.82844 5.71449,14.15623 -5.8007,2.34158 z"
           inkscape:connector-curvature="0" />
        <path
           id="path7608"
           style="font-style:normal;font-variant:normal;font-weight:bold;font-stretch:condensed;font-size:46.25px;font-family:'Swis721 Cn BT';-inkscape-font-specification:'Swis721 Cn BT Bold Condensed'"
           d="m 232.82546,455.69703 -9.44923,-33.46954 17.19117,-4.85346 1.57079,5.56376 -10.99714,3.10475 2.18437,7.73711 10.23646,-2.88999 1.49715,5.30297 -10.23646,2.88999 2.60161,9.21498 11.25793,-3.17837 1.59532,5.6507 -17.45197,4.9271 z"
           inkscape:connector-curvature="0" />
        <path
           id="path7610"
           style="font-style:normal;font-variant:normal;font-weight:bold;font-stretch:condensed;font-size:46.25px;font-family:'Swis721 Cn BT';-inkscape-font-specification:'Swis721 Cn BT Bold Condensed'"
           d="m 271.90454,446.82936 -1.10058,-3.70842 q -0.56686,2.63621 -2.10329,3.992 -1.51415,1.35207 -4.49888,1.85088 -5.39033,0.90083 -8.27668,-2.8068 -2.86407,-3.71136 -4.68064,-14.58112 -0.84872,-5.07849 -0.8464,-8.21566 0.0209,-3.16317 0.8554,-5.01985 0.99398,-2.27256 3.03532,-3.62115 2.04135,-1.34858 5.31564,-1.89579 5.52398,-0.92317 8.56558,1.24737 3.06387,2.16682 3.98332,7.66852 l 0.14518,0.86869 -5.96946,0.99762 -0.0596,-0.35638 q -0.5137,-3.07383 -1.93253,-4.43945 -1.40027,-1.39161 -3.67223,-1.01192 -2.78426,0.46531 -3.45151,2.77486 -0.66726,2.30955 0.87013,11.50875 1.21352,7.26135 2.60305,9.54772 1.38954,2.28636 3.95106,1.85827 2.53924,-0.42436 3.31805,-2.34042 0.80108,-1.91978 0.1087,-6.06276 l -0.19729,-1.18053 -4.43255,0.74078 -0.91573,-5.47943 10.5802,-1.76818 3.12688,18.71025 -4.32118,0.72215 z"
           inkscape:connector-curvature="0" />
        <path
           id="path7612"
           style="font-style:normal;font-variant:normal;font-weight:bold;font-stretch:condensed;font-size:46.25px;font-family:'Swis721 Cn BT';-inkscape-font-specification:'Swis721 Cn BT Bold Condensed'"
           d="m 280.35254,410.75883 6.47446,-0.29813 1.07823,23.41635 q 0.1849,4.01553 1.22142,5.41464 1.05804,1.37552 3.5621,1.26022 2.4815,-0.11426 3.36251,-1.60167 0.90356,-1.48845 0.71554,-5.57165 l -1.07407,-23.32612 6.38423,-0.29396 1.10419,23.98032 q 0.16101,3.49667 -0.17026,5.13962 -0.30976,1.61935 -1.17859,2.88013 -1.31452,1.89169 -3.57296,2.92257 -2.25948,1.00832 -5.41775,1.15374 -5.95561,0.27424 -8.53297,-2.18428 -2.55584,-2.48211 -2.85188,-8.91145 l -1.1042,-23.98033 z"
           inkscape:connector-curvature="0" />
        <path
           id="path7614"
           style="font-style:normal;font-variant:normal;font-weight:bold;font-stretch:condensed;font-size:46.25px;font-family:'Swis721 Cn BT';-inkscape-font-specification:'Swis721 Cn BT Bold Condensed'"
           d="m 309.58562,444.68978 2.19656,-34.7084 6.46838,0.40936 -1.82286,28.80346 11.67464,0.73885 -0.3737,5.90493 -18.14302,-1.1482 z"
           inkscape:connector-curvature="0" />
        <path
           id="path7616"
           style="font-style:normal;font-variant:normal;font-weight:bold;font-stretch:condensed;font-size:46.25px;font-family:'Swis721 Cn BT';-inkscape-font-specification:'Swis721 Cn BT Bold Condensed'"
           d="m 341.06131,433.71826 5.43578,0.90285 -0.34984,-14.84659 -5.08594,13.94374 z m -11.46518,12.24321 13.4287,-33.02386 8.57695,1.42457 2.09894,35.6029 -6.88384,-1.14336 -0.26114,-8.90273 -7.35168,-1.22106 -3.08053,8.3477 -6.5274,-1.08416 z"
           inkscape:connector-curvature="0" />
        <path
           id="path7618"
           style="font-style:normal;font-variant:normal;font-weight:bold;font-stretch:condensed;font-size:46.25px;font-family:'Swis721 Cn BT';-inkscape-font-specification:'Swis721 Cn BT Bold Condensed'"
           d="m 359.31253,451.63139 7.54407,-28.04479 -7.19657,-1.93588 1.49005,-5.53917 20.65195,5.55539 -1.49004,5.53918 -7.19656,-1.93589 -7.54407,28.04479 -6.25883,-1.68363 z"
           inkscape:connector-curvature="0" />
        <path
           id="path7620"
           style="font-style:normal;font-variant:normal;font-weight:bold;font-stretch:condensed;font-size:46.25px;font-family:'Swis721 Cn BT';-inkscape-font-specification:'Swis721 Cn BT Bold Condensed'"
           d="m 375.97973,456.50171 11.45687,-32.83653 6.11954,2.13514 -11.45687,32.83653 -6.11954,-2.13514 z"
           inkscape:connector-curvature="0" />
        <path
           id="path7622"
           style="font-style:normal;font-variant:normal;font-weight:bold;font-stretch:condensed;font-size:46.25px;font-family:'Swis721 Cn BT';-inkscape-font-specification:'Swis721 Cn BT Bold Condensed'"
           d="m 400.22123,447.08468 q -3.51577,7.8283 -3.52528,10.27487 0.0203,2.43522 2.49243,3.54546 2.43089,1.09174 4.20492,-0.4881 1.80388,-1.59119 5.35666,-9.50189 3.55277,-7.9107 3.55303,-10.33667 2.6e-4,-2.42597 -2.45123,-3.52696 -2.45149,-1.10099 -4.26462,0.5108 -1.81314,1.61179 -5.36591,9.52249 z m -6.03603,-2.71084 q 2.26674,-5.04719 4.09135,-7.84211 1.83387,-2.81552 3.52796,-3.88663 2.35171,-1.54319 4.68392,-1.60979 2.33222,-0.0666 5.46354,1.33971 3.13132,1.4063 4.63085,3.19377 1.49953,1.78748 1.92893,4.5797 0.30628,2.01901 -0.5913,5.23026 -0.87697,3.22052 -3.13446,8.24711 -2.24824,5.00599 -4.08211,7.82151 -1.82461,2.79492 -3.5166,3.91648 -2.37232,1.53395 -4.70453,1.60055 -2.33221,0.0666 -5.46353,-1.33971 -3.13132,-1.40631 -4.63086,-3.19378 -1.49953,-1.78748 -1.90832,-4.57044 -0.32479,-1.97781 0.55219,-5.19832 0.88622,-3.24111 3.15297,-8.28831 z"
           inkscape:connector-curvature="0" />
        <path
           id="path7624"
           style="font-style:normal;font-variant:normal;font-weight:bold;font-stretch:condensed;font-size:46.25px;font-family:'Swis721 Cn BT';-inkscape-font-specification:'Swis721 Cn BT Bold Condensed'"
           d="m 412.37277,471.98224 17.92675,-29.80149 5.70873,3.43402 -4.77709,25.50963 12.38228,-20.93482 5.24429,3.15465 -17.92676,29.80149 -5.67002,-3.41074 4.74231,-25.58326 -12.40555,20.97353 -5.22494,-3.14301 z"
           inkscape:connector-curvature="0" />
        <path
           id="path7626"
           style="font-style:normal;font-variant:normal;font-weight:bold;font-stretch:condensed;font-size:46.25px;font-family:'Swis721 Cn BT';-inkscape-font-specification:'Swis721 Cn BT Bold Condensed'"
           d="m 463.62581,492.98319 4.79177,4.09111 q -0.14663,0.17175 -0.42273,0.52991 -0.26143,0.34098 -0.42273,0.52991 -3.91515,4.58567 -7.76216,5.16142 -3.81517,0.57324 -7.79972,-2.82869 -1.88923,-1.61298 -2.8208,-3.26947 -0.94623,-1.63931 -1.04539,-3.50562 -0.16655,-2.51774 1.33674,-5.39144 1.5033,-2.87371 6.60619,-8.85054 3.48991,-4.08761 5.86912,-6.21347 2.39388,-2.14305 4.09265,-2.74157 2.61917,-0.91139 4.88844,-0.36957 2.28393,0.52465 4.73993,2.62153 4.0189,3.43126 4.05049,7.08092 0.0487,3.66432 -3.89321,8.31618 l -4.7746,-4.07645 0.54255,-0.63547 q 1.83293,-2.14685 2.02324,-3.79572 0.22214,-1.65137 -1.20337,-2.86844 -1.769,-1.51034 -3.66804,-0.6077 -1.88187,0.91731 -7.52731,7.52962 -6.10002,7.14472 -6.80144,9.21834 -0.68424,2.08828 1.08476,3.59862 1.64879,1.40769 3.32787,0.76267 1.69375,-0.6622 4.47982,-3.92541 l 0.30793,-0.36067 z"
           inkscape:connector-curvature="0" />
        <path
           id="path7628"
           style="font-style:normal;font-variant:normal;font-weight:bold;font-stretch:condensed;font-size:46.25px;font-family:'Swis721 Cn BT';-inkscape-font-specification:'Swis721 Cn BT Bold Condensed'"
           d="m 480.95236,502.63067 q -6.28197,5.84635 -7.24164,8.09686 -0.92775,2.25166 0.91846,4.23544 1.81545,1.95072 4.06403,1.1846 2.2805,-0.76498 8.62859,-6.67287 6.34809,-5.90789 7.29123,-8.14302 0.94314,-2.23512 -0.88769,-4.20237 -1.83083,-1.96725 -4.12786,-1.18689 -2.29703,0.78036 -8.64512,6.68825 z m -4.50785,-4.84373 q 4.05022,-3.76935 6.81767,-5.63536 2.78399,-1.88139 4.76119,-2.20985 2.76661,-0.50782 4.94134,0.33727 2.17474,0.8451 4.51328,3.35789 2.33854,2.51278 3.02544,4.74254 0.6869,2.22976 -0.003,4.96934 -0.50252,1.97931 -2.57764,4.58923 -2.05974,2.62646 -6.09342,6.38043 -4.01716,3.73859 -6.80114,5.61998 -2.76746,1.866 -4.76234,2.24176 -2.78199,0.4913 -4.95672,-0.3538 -2.17474,-0.8451 -4.51328,-3.35788 -2.33854,-2.51279 -3.02544,-4.74255 -0.6869,-2.22976 0.0181,-4.9528 0.46946,-1.94855 2.5292,-4.575 2.07627,-2.64184 6.12648,-6.4112 z"
           inkscape:connector-curvature="0" />
        <path
           id="path7630"
           style="font-style:normal;font-variant:normal;font-weight:bold;font-stretch:condensed;font-size:46.25px;font-family:'Swis721 Cn BT';-inkscape-font-specification:'Swis721 Cn BT Bold Condensed'"
           d="m 482.63868,530.17401 28.42993,-20.03089 5.61906,7.97515 -15.66112,16.86332 21.1501,-9.07278 5.61906,7.97515 -28.42994,20.03089 -3.56393,-5.05832 25.29576,-17.65689 -28.95075,12.46935 -2.28925,-3.24913 21.48469,-23.06597 -25.12667,17.89689 -3.57694,-5.07677 z"
           inkscape:connector-curvature="0" />
        <path
           id="path7632"
           style="font-style:normal;font-variant:normal;font-weight:bold;font-stretch:condensed;font-size:46.25px;font-family:'Swis721 Cn BT';-inkscape-font-specification:'Swis721 Cn BT Bold Condensed'"
           d="m 502.4199,559.04134 31.14104,-15.48333 4.34337,8.73566 -18.03936,14.29068 22.2822,-5.75722 4.34338,8.73566 -31.14104,15.48334 -2.75482,-5.54068 27.68282,-13.61259 -30.50803,7.93036 -1.76952,-3.55897 24.73697,-19.53748 -27.55213,13.87547 -2.76488,-5.5609 z"
           inkscape:connector-curvature="0" />
        <path
           id="path7634"
           style="font-style:normal;font-variant:normal;font-weight:bold;font-stretch:condensed;font-size:46.25px;font-family:'Swis721 Cn BT';-inkscape-font-specification:'Swis721 Cn BT Bold Condensed'"
           d="m 517.17949,590.71646 32.56757,-12.20045 2.27372,6.06941 -32.56757,12.20045 -2.27372,-6.06941 z"
           inkscape:connector-curvature="0" />
        <path
           id="path7636"
           style="font-style:normal;font-variant:normal;font-weight:bold;font-stretch:condensed;font-size:46.25px;font-family:'Swis721 Cn BT';-inkscape-font-specification:'Swis721 Cn BT Bold Condensed'"
           d="m 533.12241,598.34462 1.76832,6.23543 -2.1509,0.60998 q -3.08513,0.87491 -3.99924,1.95572 -0.88623,1.09638 -0.35019,2.98656 0.56069,1.97709 1.84968,2.7148 1.29515,0.75944 3.25051,0.20491 1.49912,-0.42514 2.36038,-1.44401 0.88298,-1.02503 1.89988,-3.89551 l 1.3538,-3.83454 q 1.6972,-4.94129 3.24526,-6.60093 1.55423,-1.63792 4.37864,-2.4389 4.21489,-1.19531 7.31334,0.62545 3.09844,1.82077 4.34305,6.20947 1.31853,4.64941 -0.52104,7.84709 -1.83957,3.19767 -6.59762,4.54702 -0.47797,0.13555 -0.74485,0.18776 -0.26072,0.0739 -0.46241,0.10766 l -1.6759,-5.90954 0.89077,-0.25261 q 2.71578,-0.77018 3.63638,-1.99367 0.9206,-1.22349 0.34143,-3.26576 -0.42513,-1.49911 -1.56236,-2.11554 -1.10935,-0.60087 -2.67364,-0.15725 -2.10744,0.59766 -3.58057,5.17025 l -0.025,0.0775 -1.35121,4.09201 q -1.39206,4.36181 -3.195,6.28153 -1.78122,1.91355 -5.12706,2.8624 -4.56251,1.29389 -7.77867,-0.61086 -3.21616,-1.90475 -4.59015,-6.7497 -1.42944,-5.04049 0.47531,-8.25665 1.91091,-3.19443 7.25557,-4.71013 0.56488,-0.1602 1.8931,-0.44297 l 0.13036,-0.037 z"
           inkscape:connector-curvature="0" />
        <path
           id="path7638"
           style="font-style:normal;font-variant:normal;font-weight:bold;font-stretch:condensed;font-size:46.25px;font-family:'Swis721 Cn BT';-inkscape-font-specification:'Swis721 Cn BT Bold Condensed'"
           d="m 540.10168,624.16208 1.07005,6.39239 -2.20504,0.36911 q -3.16278,0.52943 -4.19049,1.50286 -1.00171,0.99198 -0.67734,2.92974 0.33929,2.02686 1.53909,2.90219 1.20352,0.8976 3.2081,0.56204 1.53685,-0.25725 2.50519,-1.17496 0.99062,-0.92143 2.3178,-3.66229 l 1.76833,-3.6619 q 2.23165,-4.72404 3.95326,-6.20288 1.72534,-1.45657 4.62085,-1.94126 4.32098,-0.72331 7.19979,1.42797 2.8788,2.15129 3.63194,6.65046 0.79788,4.76644 -1.38304,7.7418 -2.18092,2.97535 -7.05873,3.79187 -0.49001,0.082 -0.76101,0.10449 -0.26728,0.0447 -0.47147,0.056 l -1.01412,-6.05829 0.9132,-0.15286 q 2.78414,-0.46605 3.83402,-1.58058 1.04988,-1.11453 0.69942,-3.2082 -0.25726,-1.53685 -1.3196,-2.27491 -1.03633,-0.71951 -2.63999,-0.45107 -2.16049,0.36165 -4.12879,4.74394 l -0.0334,0.0743 -1.79413,3.91809 q -1.86449,4.18174 -3.8681,5.89096 -1.98133,1.7055 -5.41139,2.27967 -4.67735,0.78296 -7.6639,-1.46477 -2.98654,-2.24774 -3.81797,-7.21464 -0.86499,-5.16736 1.38275,-8.1539 2.25146,-2.96427 7.73065,-3.88146 0.5791,-0.0969 1.9304,-0.23155 l 0.13364,-0.0224 z"
           inkscape:connector-curvature="0" />
        <path
           id="path7640"
           style="font-style:normal;font-variant:normal;font-weight:bold;font-stretch:condensed;font-size:46.25px;font-family:'Swis721 Cn BT';-inkscape-font-specification:'Swis721 Cn BT Bold Condensed'"
           d="m 531.84542,651.93414 34.65649,-2.90255 0.54093,6.45871 -34.65649,2.90255 -0.54093,-6.45871 z"
           inkscape:connector-curvature="0" />
        <path
           id="path7642"
           style="font-style:normal;font-variant:normal;font-weight:bold;font-stretch:condensed;font-size:46.25px;font-family:'Swis721 Cn BT';-inkscape-font-specification:'Swis721 Cn BT Bold Condensed'"
           d="m 550.31548,670.24205 q -8.5815,-0.0242 -10.82002,0.96315 -2.21599,1.00999 -2.22363,3.71994 -0.008,2.66478 2.15771,3.64196 2.18774,0.99982 10.85958,1.02427 8.67184,0.0245 10.88777,-0.96295 2.21593,-0.98741 2.22351,-3.67478 0.008,-2.68737 -2.20275,-3.68726 -2.21033,-0.99988 -10.88217,-1.02433 z m 0.0187,-6.6168 q 5.53281,0.0156 8.82846,0.5443 3.31822,0.52877 4.98624,1.64005 2.36694,1.51974 3.37725,3.62281 1.01031,2.10308 1.00063,5.53568 -0.01,3.43261 -1.03183,5.52995 -1.02215,2.09735 -3.39769,3.6263 -1.71942,1.10173 -5.01793,1.58925 -3.29857,0.51012 -8.8088,0.49458 -5.48765,-0.0155 -8.80588,-0.54424 -3.29564,-0.5287 -5.00888,-1.61752 -2.36688,-1.54233 -3.37719,-3.6454 -1.01031,-2.10308 -1.00063,-5.53568 0.01,-3.43261 1.03183,-5.52995 1.02215,-2.09735 3.39763,-3.60372 1.67425,-1.10185 4.97282,-1.61196 3.32115,-0.51005 8.85397,-0.49445 z"
           inkscape:connector-curvature="0" />
        <path
           id="path7644"
           style="font-style:normal;font-variant:normal;font-weight:bold;font-stretch:condensed;font-size:46.25px;font-family:'Swis721 Cn BT';-inkscape-font-specification:'Swis721 Cn BT Bold Condensed'"
           d="m 532.52225,691.47715 34.51785,4.24446 -0.81306,6.61219 -25.2453,6.01972 24.16213,2.78906 -0.74691,6.07424 -34.51786,-4.24446 0.80755,-6.56736 25.2984,-6.08145 -24.20696,-2.79457 0.74416,-6.05183 z"
           inkscape:connector-curvature="0" />
      </g>
      <g
         id="text7508"
         style="font-style:normal;font-variant:normal;font-weight:bold;font-stretch:condensed;font-size:25px;line-height:125%;font-family:'Swis721 Cn BT';-inkscape-font-specification:'Swis721 Cn BT Bold Condensed';text-align:start;letter-spacing:0px;word-spacing:0px;writing-mode:lr-tb;text-anchor:start;fill:#000000;fill-opacity:1;stroke:none;stroke-width:1px;stroke-linecap:butt;stroke-linejoin:miter;stroke-opacity:1">
        <path
           id="path7533"
           style="font-size:46.25px;letter-spacing:2.20000005px"
           d="m 78.362972,772.9062 1.535033,3.39533 q 1.162903,2.57221 2.638344,3.09478 1.484743,0.54315 4.139268,-0.65697 2.366437,-1.06987 2.819941,-2.58844 0.453503,-1.51857 -0.848948,-4.39945 l -1.311755,-2.90145 -8.971883,4.0562 z m -20.870579,2.57055 31.689676,-14.32697 4.781858,10.57694 q 2.167652,4.79461 1.161699,7.77734 -0.976073,2.99401 -5.379703,4.9849 -3.086657,1.39548 -5.388595,1.07309 -2.281361,-0.3317 -3.585472,-2.39396 0.786662,4.70022 -5.117723,7.59266 -0.26751,0.12094 -0.411554,0.18607 l -4.123427,2.06248 q -1.753048,0.89169 -2.676209,1.75516 -0.902583,0.85417 -1.331013,1.98964 l -3.163098,-6.99642 q 0.690893,-0.60976 1.705114,-1.21699 1.034799,-0.61654 2.991653,-1.55081 l 3.275799,-1.58013 0.843686,-0.38143 q 2.757413,-1.24663 3.256015,-2.88472 0.498602,-1.63809 -1.129463,-5.23919 l -0.911716,-2.01662 -13.910533,6.28898 -2.576994,-5.70002 z"
           inkscape:connector-curvature="0" />
        <path
           id="path7535"
           style="font-size:46.25px;letter-spacing:2.20000005px"
           d="m 69.873242,801.63492 30.079261,-17.45668 8.966387,15.44981 -5.00019,2.90189 -5.735767,-9.88319 -6.953387,4.03544 5.339023,9.19957 -4.765805,2.76586 -5.339023,-9.19957 -8.281563,4.80626 5.871792,10.11757 -5.078317,2.94723 -9.102411,-15.68419 z"
           inkscape:connector-curvature="0" />
        <path
           id="path7537"
           style="font-size:46.25px;letter-spacing:2.20000005px"
           d="m 102.31786,816.85204 1.58458,2.1984 q 1.76945,2.45489 3.43515,2.75752 1.68403,0.28942 4.01067,-1.38759 2.34497,-1.69023 2.58241,-3.25327 0.26896,-1.55792 -1.56651,-4.10441 l -1.6374,-2.27168 -8.4089,6.06103 z m -19.522907,6.36075 28.212867,-20.33548 6.57602,9.12338 q 3.01071,4.17697 2.46255,7.35587 -0.54816,3.1789 -4.79841,6.24243 -4.17697,3.01071 -7.64174,2.52941 -3.43324,-0.47619 -6.3251,-4.48828 l -2.759814,-3.82889 -11.962988,8.62277 -3.763385,-5.22121 z"
           inkscape:connector-curvature="0" />
        <path
           id="path7539"
           style="font-size:46.25px;letter-spacing:2.20000005px"
           d="m 124.99282,821.98676 4.33194,4.82098 -17.43614,15.66745 q -2.99002,2.68671 -3.41604,4.37502 -0.39413,1.69002 1.28129,3.55458 1.66032,1.84776 3.36933,1.58726 1.7241,-0.2437 4.7645,-2.97569 l 17.36896,-15.60707 4.27157,4.75378 -17.8561,16.0448 q -2.60366,2.33955 -4.08479,3.12395 -1.44924,0.7861 -2.97518,0.91246 -2.29644,0.18114 -4.52473,-0.91339 -2.21149,-1.10963 -4.32463,-3.46132 -3.98478,-4.43463 -3.71506,-7.9863 0.30161,-3.54996 5.08899,-7.85171 l 17.85609,-16.0448 z"
           inkscape:connector-curvature="0" />
        <path
           id="path7541"
           style="font-size:46.25px;letter-spacing:2.20000005px"
           d="m 127.43572,867.62148 1.98306,1.78006 q 1.86542,1.67446 3.43627,1.4458 1.58594,-0.24547 3.62245,-2.51422 2.11194,-2.35278 2.08799,-3.98265 -0.024,-1.62988 -2.29271,-3.66639 l -1.44528,-1.29733 -7.39178,8.23473 z m 10.49934,-11.69668 1.61334,1.44819 q 1.815,1.62921 3.21304,1.45784 1.39803,-0.17137 3.29877,-2.28887 1.70464,-1.89903 1.6173,-3.22164 -0.0555,-1.32433 -1.98809,-3.05913 l -1.47889,-1.3275 -6.27547,6.99111 z m -18.49176,11.16831 23.2313,-25.88058 7.74736,6.95431 q 3.32751,2.98688 3.553,5.98118 0.2423,3.00938 -2.63899,6.21924 -2.30804,2.57126 -4.38187,3.25883 -2.05703,0.70266 -3.91001,-0.44474 1.58873,1.88129 1.19413,4.34932 -0.3627,2.46632 -2.65566,5.02076 -3.69589,4.11737 -7.16167,4.49623 -3.44897,0.39394 -7.09578,-2.87956 l -7.88181,-7.07499 z"
           inkscape:connector-curvature="0" />
        <path
           id="path7543"
           style="font-size:46.25px;letter-spacing:2.20000005px"
           d="m 140.14197,885.05379 20.59852,-28.0214 5.22217,3.83882 -17.0941,23.25412 9.42538,6.92859 -3.50442,4.76728 -14.64755,-10.76741 z"
           inkscape:connector-curvature="0" />
        <path
           id="path7545"
           style="font-size:46.25px;letter-spacing:2.20000005px"
           d="m 160.39098,899.33541 18.48337,-29.45951 5.49018,3.44463 -18.48337,29.45951 -5.49018,-3.44463 z"
           inkscape:connector-curvature="0" />
        <path
           id="path7547"
           style="font-size:46.25px;letter-spacing:2.20000005px"
           d="m 190.76971,902.44469 5.58423,2.91799 q -0.10459,0.20015 -0.29375,0.61091 -0.1787,0.39075 -0.29375,0.61092 -2.79248,5.34405 -6.41383,6.76418 -3.59088,1.41058 -8.2344,-1.01585 -2.20167,-1.15046 -3.47956,-2.55714 -1.28835,-1.38667 -1.80169,-3.18373 -0.72449,-2.41699 0.0992,-5.5538 0.82374,-3.1368 4.46338,-10.10208 2.48918,-4.76361 4.3337,-7.36701 1.85497,-2.62343 3.37723,-3.58612 2.34956,-1.47317 4.68252,-1.45168 2.34342,10e-4 5.20558,1.49708 4.68355,2.44735 5.52919,5.99782 0.86566,3.56094 -1.93818,8.97549 l -5.56422,-2.90753 0.38697,-0.74056 q 1.30735,-2.50189 1.12471,-4.15163 -0.15217,-1.65929 -1.81343,-2.52736 -2.06156,-1.07726 -3.71113,0.2266 -1.62955,1.31432 -5.65617,9.02016 -4.35084,8.32631 -4.57158,10.50419 -0.20072,2.18833 1.86084,3.26559 1.92145,1.00403 3.41414,4.1e-4 1.50315,-1.02365 3.49031,-4.82653 l 0.21964,-0.42032 z"
           inkscape:connector-curvature="0" />
        <path
           id="path7549"
           style="font-size:46.25px;letter-spacing:2.20000005px"
           d="m 221.28669,910.08248 q -2.72597,8.13707 -2.49397,10.57263 0.26059,2.42132 2.83019,3.28215 2.52677,0.84649 4.13621,-0.90073 1.63803,-1.76145 4.3927,-9.98418 2.75467,-8.22272 2.51549,-10.63687 -0.23917,-2.41415 -2.78736,-3.26781 -2.54819,-0.85366 -4.19339,0.92921 -1.6452,1.78287 -4.39987,10.0056 z m -6.27411,-2.10187 q 1.75754,-5.24627 3.29739,-8.20763 1.54703,-2.98277 3.12713,-4.21585 2.18792,-1.76777 4.50218,-2.06422 2.31425,-0.29646 5.56908,0.79393 3.25483,1.09039 4.92346,2.72114 1.66863,1.63074 2.37151,4.36695 0.50406,1.97892 -0.0722,5.26309 -0.55484,3.29134 -2.3052,8.5162 -1.74319,5.20344 -3.29022,8.18621 -1.53985,2.96136 -3.11289,4.24444 -2.20933,1.7606 -4.52359,2.05705 -2.31425,0.29646 -5.56908,-0.79393 -3.25483,-1.09039 -4.92346,-2.72114 -1.66863,-1.63075 -2.35009,-4.35978 -0.51841,-1.93609 0.0364,-5.22744 0.56202,-3.31275 2.31955,-8.55902 z"
           inkscape:connector-curvature="0" />
        <path
           id="path7551"
           style="font-size:46.25px;letter-spacing:2.20000005px"
           d="m 238.18529,933.52373 7.64208,-33.92781 17.73499,3.99473 -1.25052,5.55182 -11.41208,-2.57052 -1.80631,8.0193 10.77318,2.42661 -1.22075,5.41964 -10.77318,-2.42661 -3.3645,14.93705 -6.32291,-1.42421 z"
           inkscape:connector-curvature="0" />
        <path
           id="path7553"
           style="font-size:46.25px;letter-spacing:2.20000005px"
           d="m 281.02173,940.8159 2.24342,-28.95497 -7.43012,-0.57569 0.4431,-5.71894 21.3222,1.65204 -0.4431,5.71894 -7.43012,-0.57568 -2.24342,28.95497 -6.46196,-0.50067 z"
           inkscape:connector-curvature="0" />
        <path
           id="path7555"
           style="font-size:46.25px;letter-spacing:2.20000005px"
           d="m 300.56041,942.04924 -0.84112,-34.76766 6.43427,-0.15566 0.3299,13.63614 8.87252,-0.21465 -0.32989,-13.63615 6.43427,-0.15566 0.84113,34.76766 -6.43428,0.15566 -0.38123,-15.75832 -8.87253,0.21465 0.38124,15.75833 -6.43428,0.15566 z"
           inkscape:connector-curvature="0" />
        <path
           id="path7557"
           style="font-size:46.25px;letter-spacing:2.20000005px"
           d="m 330.37714,940.79253 -4.3971,-34.49874 17.71981,-2.25851 0.73094,5.73485 -11.3353,1.44476 1.01647,7.97504 10.55124,-1.34483 0.69669,5.46603 -10.55124,1.34483 1.21063,9.49835 11.60412,-1.47902 0.74237,5.82446 -17.98863,2.29278 z"
           inkscape:connector-curvature="0" />
        <path
           id="path7559"
           style="font-size:46.25px;letter-spacing:2.20000005px"
           d="m 369.40146,913.81223 2.60663,-0.74122 q 2.91073,-0.82768 3.76252,-2.29077 0.84561,-1.4848 0.0612,-4.24348 -0.79063,-2.7804 -2.17939,-3.53593 -1.37321,-0.78343 -4.39255,0.0751 l -2.69351,0.76592 2.83514,9.97034 z m -0.66786,20.52211 -9.51225,-33.45168 10.8175,-3.07604 q 4.95258,-1.40831 7.7548,0.18965 2.80222,1.59795 4.23523,6.63742 1.40831,4.95259 -0.22413,8.04635 -1.6169,3.06587 -6.37399,4.41858 l -4.53987,1.29095 4.03344,14.18438 -6.19073,1.76039 z"
           inkscape:connector-curvature="0" />
        <path
           id="path7561"
           style="font-size:46.25px;letter-spacing:2.20000005px"
           d="m 394.99682,926.47947 -13.04608,-32.23814 5.96615,-2.41437 5.11678,12.64405 8.227,-3.32929 -5.11677,-12.64405 5.96615,-2.41437 13.04607,32.23814 -5.96615,2.41437 -5.91309,-14.61183 -8.227,3.32929 5.91309,14.61183 -5.96615,2.41437 z"
           inkscape:connector-curvature="0" />
        <path
           id="path7563"
           style="font-size:46.25px;letter-spacing:2.20000005px"
           d="m 422.39977,914.68253 -15.6823,-31.04131 5.78497,-2.92262 15.68231,31.04132 -5.78498,2.92261 z"
           inkscape:connector-curvature="0" />
        <path
           id="path7565"
           style="font-size:46.25px;letter-spacing:2.20000005px"
           d="m 435.36328,908.00842 -17.92426,-29.803 5.5542,-3.34043 14.87481,24.73262 10.02464,-6.02907 3.04945,5.07038 -15.57884,9.3695 z"
           inkscape:connector-curvature="0" />
        <path
           id="path7567"
           style="font-size:46.25px;letter-spacing:2.20000005px"
           d="m 456.34274,894.82316 -20.06695,-28.40449 5.29356,-3.73975 20.06695,28.40449 -5.29356,3.73975 z"
           inkscape:connector-curvature="0" />
        <path
           id="path7569"
           style="font-size:46.25px;letter-spacing:2.20000005px"
           d="m 460.52398,867.31539 2.08398,-1.73233 q 2.3271,-1.93442 2.51422,-3.61702 0.17268,-1.69997 -1.6607,-3.90551 -1.84781,-2.2229 -3.42349,-2.35206 -1.57276,-0.16096 -3.9867,1.84565 l -2.15344,1.79007 6.62613,7.9712 z m 7.69109,19.03812 -22.23147,-26.74433 8.64849,-7.18914 q 3.95955,-3.29141 7.16867,-2.96364 3.20912,0.32778 6.55828,4.3568 3.29141,3.95955 3.05003,7.44924 -0.23844,3.4579 -4.04169,6.61939 l -3.62959,3.01712 9.42672,11.3403 -4.94944,4.11426 z"
           inkscape:connector-curvature="0" />
        <path
           id="path7571"
           style="font-size:46.25px;letter-spacing:2.20000005px"
           d="m 479.42527,850.36363 1.89579,-1.93646 q 2.11695,-2.16239 2.13092,-3.8553 -0.002,-1.70872 -2.0516,-3.71509 -2.06556,-2.02216 -3.64619,-1.98941 -1.58097,8.1e-4 -3.77692,2.24388 l -1.95898,2.00102 7.40698,7.25136 z m 9.59873,18.15124 -24.8513,-24.32921 7.86749,-8.03633 q 3.60199,-3.67928 6.8278,-3.68159 3.22582,-0.002 6.96965,3.66288 3.67928,3.60198 3.79625,7.09806 0.11662,3.46414 -3.34318,6.99819 l -3.30183,3.37268 10.5376,10.31622 -4.50248,4.5991 z"
           inkscape:connector-curvature="0" />
        <path
           id="path7573"
           style="font-size:46.25px;letter-spacing:2.20000005px"
           d="m 507.77777,848.54281 -26.68545,-22.30211 4.1563,-4.9732 26.68546,22.30211 -4.15631,4.9732 z"
           inkscape:connector-curvature="0" />
        <path
           id="path7575"
           style="font-size:46.25px;letter-spacing:2.20000005px"
           d="m 517.11531,837.33549 -28.44602,-20.00803 3.8327,-5.44908 25.10363,6.58558 -19.99768,-13.84485 3.52089,-5.00577 28.44603,20.00803 -3.80672,5.41214 -25.17955,-6.55615 20.03462,13.87084 -3.5079,4.98729 z"
           inkscape:connector-curvature="0" />
        <path
           id="path7577"
           style="font-size:46.25px;letter-spacing:2.20000005px"
           d="m 533.79,812.69451 -30.35442,-16.97371 8.71831,-15.59113 5.04593,2.8216 -5.57707,9.9736 7.01699,3.92379 5.19131,-9.28372 4.8094,2.68934 -5.19131,9.28372 8.35732,4.67328 5.70934,-10.21012 5.12478,2.86569 -8.85058,15.82766 z"
           inkscape:connector-curvature="0" />
        <path
           id="path7579"
           style="font-size:46.25px;letter-spacing:2.20000005px"
           d="m 534.30327,786.2971 2.58904,-5.94175 2.04959,0.89308 q 2.93983,1.28099 4.33212,1.02548 1.38061,-0.28524 2.16544,-2.0864 0.82091,-1.88397 0.29256,-3.27197 -0.51932,-1.40872 -2.38259,-2.22061 -1.42851,-0.62245 -2.74065,-0.38128 -1.33284,0.23214 -3.93999,1.80583 l -3.4792,2.10515 q -4.44679,2.74279 -6.69634,3.04353 -2.24053,0.28004 -4.93191,-0.89269 -4.01638,-1.75008 -5.25629,-5.12324 -1.2399,-3.37315 0.58235,-7.55515 1.9305,-4.43044 5.38114,-5.73512 3.45065,-1.30468 7.9846,0.67093 0.45547,0.19846 0.69488,0.32742 0.24844,0.10825 0.42574,0.21014 l -2.45372,5.63121 -0.84882,-0.36986 q -2.58787,-1.12763 -4.0757,-0.76594 -1.48782,0.36168 -2.3358,2.30776 -0.62245,1.42851 -0.13447,2.62649 0.4763,1.16826 1.96691,1.81777 2.00819,0.87504 6.04787,-1.7249 l 0.0685,-0.0441 3.64054,-2.30582 q 3.84329,-2.48844 6.45485,-2.82852 2.59085,-0.34909 5.77911,1.04015 4.34763,1.89441 5.62524,5.40717 1.27761,3.51275 -0.73408,8.12952 -2.09288,4.80309 -5.60563,6.0807 -3.50374,1.25691 -8.59667,-0.96226 -0.53828,-0.23455 -1.74437,-0.85862 l -0.12422,-0.0541 z"
           inkscape:connector-curvature="0" />
      </g>
      <circle
         r="6"
         cy="741.36218"
         cx="65"
         id="path7515"
         style="color:#000000;clip-rule:nonzero;display:inline;overflow:visible;visibility:visible;opacity:1;isolation:auto;mix-blend-mode:normal;color-interpolation:sRGB;color-interpolation-filters:linearRGB;solid-color:#000000;solid-opacity:1;fill:#000000;fill-opacity:1;fill-rule:evenodd;stroke:none;stroke-width:1;stroke-linecap:butt;stroke-linejoin:round;stroke-miterlimit:4;stroke-dasharray:none;stroke-dashoffset:0;stroke-opacity:1;color-rendering:auto;image-rendering:auto;shape-rendering:auto;text-rendering:auto;enable-background:accumulate" />
      <circle
         r="6"
         cy="741.36218"
         cx="541"
         id="path7515-8"
         style="color:#000000;clip-rule:nonzero;display:inline;overflow:visible;visibility:visible;opacity:1;isolation:auto;mix-blend-mode:normal;color-interpolation:sRGB;color-interpolation-filters:linearRGB;solid-color:#000000;solid-opacity:1;fill:#000000;fill-opacity:1;fill-rule:evenodd;stroke:none;stroke-width:1;stroke-linecap:butt;stroke-linejoin:round;stroke-miterlimit:4;stroke-dasharray:none;stroke-dashoffset:0;stroke-opacity:1;color-rendering:auto;image-rendering:auto;shape-rendering:auto;text-rendering:auto;enable-background:accumulate" />
    </g>
  </g>
</svg>
